  0
SECTION
  2
HEADER
  9
$ACADVER
  1
AC1014
  9
$DWGCODEPAGE
  3
ansi_1252
  9
$PLINEGEN
 70
0
  9
$PSLTSCALE
 70
1
  9
$ANGDIR
 70
0
  9
$MIRRTEXT
 70
0
  9
$LUNITS
 70
2
  9
$LUPREC
 70
4
  9
$AUNITS
 70
0
  9
$AUPREC
 70
0
  9
$ATTMODE
 70
1
  9
$PDMODE
 70
34
  9
$SPLINESEGS
 70
8
  9
$SURFU
 70
6
  9
$SURFV
 70
6
  9
$CMLJUST
 70
0
  9
$LTSCALE
 40
1.0
  9
$TEXTSIZE
 40
0.5
  9
$TEXTSTYLE
  7
Standard
  9
$CLAYER
  8
0
  9
$CELTYPE
  6
ByLayer
  9
$CMLSTYLE
  2
Standard
  9
$ANGBASE
 50
0.0
  9
$PDSIZE
 40
0.1
  9
$CMLSCALE
 40
1.0
  9
$CELTSCALE
 40
1.0
  9
$HANDSEED
  5
C36
  9
$TDCREATE
 40
2459632.97434028
  9
$TDUCREATE
 40
2460523.90405149
  9
$TDUPDATE
 40
2460442.24149306
  9
$TDUUPDATE
 40
2460523.90405149
  9
$TDINDWG
 40
0.2153125
  9
$CECOLOR
 62
0
  9
$INSBASE
 10
0.0
 20
0.0
 30
0.0
  9
$CELWEIGHT
370
-1
  9
$LWDISPLAY
290
0
  9
$EXTNAMES
290
1
  9
$INSUNITS
 70
0
  9
$DIMSTYLE
  2
Standard
  0
ENDSEC
  0
SECTION
  2
CLASSES
  0
CLASS
  1
ACDBDICTIONARYWDFLT
  2
AcDbDictionaryWithDefault
  3
ObjectDBX Classes
 90
0
 91
0
280
0
281
0
  0
CLASS
  1
ACDBPLACEHOLDER
  2
AcDbPlaceHolder
  3
ObjectDBX Classes
 90
0
 91
0
280
0
281
0
  0
CLASS
  1
LAYOUT
  2
AcDbLayout
  3
ObjectDBX Classes
 90
0
 91
0
280
0
281
0
  0
CLASS
  1
DICTIONARYVAR
  2
AcDbDictionaryVar
  3
ObjectDBX Classes
 90
0
 91
0
280
0
281
0
  0
CLASS
  1
TABLESTYLE
  2
AcDbTableStyle
  3
ObjectDBX Classes
 90
4095
 91
0
280
0
281
0
  0
CLASS
  1
MATERIAL
  2
AcDbMaterial
  3
ObjectDBX Classes
 90
1153
 91
0
280
0
281
0
  0
CLASS
  1
VISUALSTYLE
  2
AcDbVisualStyle
  3
ObjectDBX Classes
 90
4095
 91
0
280
0
281
0
  0
CLASS
  1
SCALE
  2
AcDbScale
  3
ObjectDBX Classes
 90
1153
 91
0
280
0
281
0
  0
CLASS
  1
MLEADERSTYLE
  2
AcDbMLeaderStyle
  3
ACDB_MLEADERSTYLE_CLASS
 90
4095
 91
0
280
0
281
0
  0
CLASS
  1
CELLSTYLEMAP
  2
AcDbCellStyleMap
  3
ObjectDBX Classes
 90
1152
 91
0
280
0
281
0
  0
CLASS
  1
EXACXREFPANELOBJECT
  2
ExAcXREFPanelObject
  3
EXAC_ESW
 90
1025
 91
0
280
0
281
0
  0
CLASS
  1
NPOCOLLECTION
  2
AcDbImpNonPersistentObjectsCollection
  3
ObjectDBX Classes
 90
1153
 91
0
280
0
281
0
  0
CLASS
  1
LAYER_INDEX
  2
AcDbLayerIndex
  3
ObjectDBX Classes
 90
0
 91
0
280
0
281
0
  0
CLASS
  1
SPATIAL_INDEX
  2
AcDbSpatialIndex
  3
ObjectDBX Classes
 90
0
 91
0
280
0
281
0
  0
CLASS
  1
IDBUFFER
  2
AcDbIdBuffer
  3
ObjectDBX Classes
 90
0
 91
0
280
0
281
0
  0
CLASS
  1
ACDBSECTIONVIEWSTYLE
  2
AcDbSectionViewStyle
  3
ObjectDBX Classes
 90
1025
 91
0
280
0
281
0
  0
CLASS
  1
ACDBDETAILVIEWSTYLE
  2
AcDbDetailViewStyle
  3
ObjectDBX Classes
 90
1025
 91
0
280
0
281
0
  0
CLASS
  1
MESH
  2
AcDbSubDMesh
  3
ObjectDBX Classes
 90
0
 91
0
280
0
281
1
  0
CLASS
  1
SORTENTSTABLE
  2
AcDbSortentsTable
  3
ObjectDBX Classes
 90
0
 91
0
280
0
281
0
  0
CLASS
  1
ACDB_TEXTOBJECTCONTEXTDATA_CLASS
  2
AcDbTextObjectContextData
  3
ObjectDBX Classes
 90
1153
 91
0
280
0
281
0
  0
CLASS
  1
WIPEOUT
  2
AcDbWipeout
  3
WipeOut|Product Desc: Object Enabler for WipeOut entity | Company: Autodesk, Inc. | WEB Address: www.autodesk.com
 90
2175
 91
0
280
0
281
1
  0
CLASS
  1
WIPEOUTVARIABLES
  2
AcDbWipeoutVariables
  3
"WipeOut|Product Desc:     WipeOut Dbx Application|Company:          Autodesk, Inc.|WEB Address:      www.autodesk.com"
 90
0
 91
0
280
0
281
0
  0
CLASS
  1
DIMASSOC
  2
AcDbDimAssoc
  3
"AcDbDimAssoc|Product Desc:     AcDim ARX App For Dimension|Company:          Autodesk, Inc.|WEB Address:      www.autodesk.com"
 90
0
 91
0
280
0
281
0
  0
CLASS
  1
ACAD_TABLE
  2
AcDbTable
  3
ObjectDBX Classes
 90
1025
 91
0
280
0
281
1
  0
CLASS
  1
TABLECONTENT
  2
AcDbTableContent
  3
ObjectDBX Classes
 90
1152
 91
0
280
0
281
0
  0
CLASS
  1
TABLEGEOMETRY
  2
AcDbTableGeometry
  3
ObjectDBX Classes
 90
1152
 91
0
280
0
281
0
  0
CLASS
  1
MULTILEADER
  2
AcDbMLeader
  3
ACDB_MLEADER_CLASS
 90
1025
 91
0
280
0
281
1
  0
CLASS
  1
RASTERVARIABLES
  2
AcDbRasterVariables
  3
ISM
 90
0
 91
0
280
0
281
0
  0
CLASS
  1
IMAGEDEF
  2
AcDbRasterImageDef
  3
ISM
 90
0
 91
0
280
0
281
0
  0
CLASS
  1
IMAGEDEF_REACTOR
  2
AcDbRasterImageDefReactor
  3
ISM
 90
1
 91
0
280
0
281
0
  0
CLASS
  1
IMAGE
  2
AcDbRasterImage
  3
ISM
 90
2175
 91
0
280
0
281
1
  0
CLASS
  1
DATATABLE
  2
AcDbDataTable
  3
ObjectDBX Classes
 90
0
 91
0
280
0
281
0
  0
CLASS
  1
LWPOLYLINE
  2
AcDbPolyline
  3
ObjectDBX Classes
 90
0
 91
0
280
0
281
1
  0
CLASS
  1
HATCH
  2
AcDbHatch
  3
ObjectDBX Classes
 90
0
 91
0
280
0
281
1
  0
CLASS
  1
XRECORD
  2
AcDbXrecord
  3
ObjectDBX Classes
 90
0
 91
0
280
0
281
0
  0
ENDSEC
  0
SECTION
  2
TABLES
  0
TABLE
  2
VPORT
  5
8
330
0
102
{ACAD_XDICTIONARY
360
B6B
102
}
100
AcDbSymbolTable
 70
1
  0
VPORT
  5
94
330
8
102
{ACAD_XDICTIONARY
360
B3F
102
}
100
AcDbSymbolTableRecord
100
AcDbViewportTableRecord
  2
*ACTIVE
 70
64
 10
0.0
 20
0.0
 11
1.0
 21
1.0
 12
542.431548394831
 22
-47.3944666331709
 13
0.0
 23
0.0
 14
0.5
 24
0.5
 15
0.5
 25
0.5
 16
0.0
 26
0.0
 36
1.0
 17
0.0
 27
0.0
 37
0.0
 40
436.197937843098
 41
2.49683544303797
 75
0
 76
1
  0
ENDTAB
  0
TABLE
  2
LTYPE
  5
5
330
0
100
AcDbSymbolTable
 70
8
  0
LTYPE
  5
16
330
5
102
{ACAD_XDICTIONARY
360
B24
102
}
100
AcDbSymbolTableRecord
100
AcDbLinetypeTableRecord
  2
CONTINUOUS
 70
64
  3
Solid line
 72
65
 73
0
 40
0.0
  0
LTYPE
  5
280
330
5
100
AcDbSymbolTableRecord
100
AcDbLinetypeTableRecord
  2
ACAD_ISO02W100
 70
64
  3
ISO dash __ __ __ __ __ __ __ __ __ __ __ __ __
 72
65
 73
2
 40
15.0
 49
12.0
 74
0
 49
-3.0
 74
0
  0
LTYPE
  5
6B2
330
5
100
AcDbSymbolTableRecord
100
AcDbLinetypeTableRecord
  2
GAS_LINE
 70
64
  3
Gas line ----GAS----GAS----GAS----GAS----GAS---
 72
65
 73
3
 40
0.95
 49
0.5
 74
0
 49
-0.2
 74
10
 75
0
340
11
 46
0.1
 50
0.0
 44
-0.1
 45
-0.05
  9

 49
-0.25
 74
0
  0
LTYPE
  5
6BF
330
5
100
AcDbSymbolTableRecord
100
AcDbLinetypeTableRecord
  2
TRACKS
 70
64
  3
Tracks -|-|-|-|-|-|-|-|-|-|-|-|-|-|-|-|-|-|-|-|
 72
65
 73
2
 40
0.3
 49
0.15
 74
4
 75
130
340
27F
 46
0.25
 50
0.0
 44
0.0
 45
0.0
  9

 49
0.15
 74
0
  0
LTYPE
  5
6CC
330
5
100
AcDbSymbolTableRecord
100
AcDbLinetypeTableRecord
  2
ZIGZAG
 70
64
  3
Zig zag /\/\/\/\/\/\/\/\/\/\/\/\/\/\/\/\/\/\/\/
 72
65
 73
4
 40
0.8001
 49
0.0001
 74
0
 49
-0.2
 74
4
 75
131
340
27F
 46
0.2
 50
0.0
 44
-0.2
 45
0.0
  9

 49
-0.4
 74
4
 75
131
340
27F
 46
0.2
 50
0.0548311355616075
 44
0.2
 45
0.0
  9

 49
-0.2
 74
0
  0
LTYPE
  5
6D9
330
5
100
AcDbSymbolTableRecord
100
AcDbLinetypeTableRecord
  2
BATTING
 70
64
  3
Batting SSSSSSSSSSSSSSSSSSSSSSSSSSSSSSSSSSSSSSS
 72
65
 73
4
 40
0.4001
 49
0.0001
 74
0
 49
-0.1
 74
4
 75
134
340
27F
 46
0.1
 50
0.0
 44
-0.1
 45
0.0
  9

 49
-0.2
 74
4
 75
134
340
27F
 46
0.1
 50
0.0548311355616075
 44
0.1
 45
0.0
  9

 49
-0.1
 74
0
  0
LTYPE
  5
14
330
5
102
{ACAD_XDICTIONARY
360
B20
102
}
100
AcDbSymbolTableRecord
100
AcDbLinetypeTableRecord
  2
BYBLOCK
 70
64
  3

 72
65
 73
0
 40
0.0
  0
LTYPE
  5
15
330
5
102
{ACAD_XDICTIONARY
360
B22
102
}
100
AcDbSymbolTableRecord
100
AcDbLinetypeTableRecord
  2
BYLAYER
 70
64
  3

 72
65
 73
0
 40
0.0
  0
ENDTAB
  0
TABLE
  2
LAYER
  5
2
330
0
102
{ACAD_XDICTIONARY
360
18E
102
}
100
AcDbSymbolTable
 70
19
  0
LAYER
  5
10
330
2
102
{ACAD_XDICTIONARY
360
E6
102
}
100
AcDbSymbolTableRecord
100
AcDbLayerTableRecord
  2
0
 70
64
 62
-7
  6
CONTINUOUS
290
1
370
-3
390
0
  0
LAYER
  5
275
330
2
102
{ACAD_XDICTIONARY
360
AFF
102
}
100
AcDbSymbolTableRecord
100
AcDbLayerTableRecord
  2
LAYER1
 70
64
 62
-7
  6
CONTINUOUS
290
1
370
-3
390
0
  0
LAYER
  5
278
330
2
102
{ACAD_XDICTIONARY
360
B01
102
}
100
AcDbSymbolTableRecord
100
AcDbLayerTableRecord
  2
LAYER_OFF
 70
64
 62
7
  6
CONTINUOUS
290
1
370
-3
390
0
  0
LAYER
  5
279
330
2
102
{ACAD_XDICTIONARY
360
B03
102
}
100
AcDbSymbolTableRecord
100
AcDbLayerTableRecord
  2
LAYER_FREEZE
 70
65
 62
-7
  6
CONTINUOUS
290
1
370
-3
390
0
  0
LAYER
  5
27A
330
2
102
{ACAD_XDICTIONARY
360
B05
102
}
100
AcDbSymbolTableRecord
100
AcDbLayerTableRecord
  2
LAYER_LOCK
 70
68
 62
-7
  6
CONTINUOUS
290
1
370
-3
390
0
  0
LAYER
  5
27B
330
2
102
{ACAD_XDICTIONARY
360
B07
102
}
100
AcDbSymbolTableRecord
100
AcDbLayerTableRecord
  2
LAYER_NOPLOT
 70
64
 62
-7
  6
CONTINUOUS
290
1
370
-3
390
0
  0
LAYER
  5
27C
330
2
102
{ACAD_XDICTIONARY
360
B09
102
}
100
AcDbSymbolTableRecord
100
AcDbLayerTableRecord
  2
LAYER_COLOR_80
 70
64
 62
-80
  6
CONTINUOUS
290
1
370
-3
390
0
  0
LAYER
  5
27D
330
2
102
{ACAD_XDICTIONARY
360
B0B
102
}
100
AcDbSymbolTableRecord
100
AcDbLayerTableRecord
  2
LAYER_LT_DASH
 70
64
 62
-10
  6
ACAD_ISO02W100
290
1
370
-3
390
0
  0
LAYER
  5
281
330
2
102
{ACAD_XDICTIONARY
360
B0D
102
}
100
AcDbSymbolTableRecord
100
AcDbLayerTableRecord
  2
LAYER_LW_035
 70
64
 62
-7
  6
CONTINUOUS
290
1
370
-3
390
0
  0
LAYER
  5
282
330
2
102
{ACAD_XDICTIONARY
360
B0F
102
}
100
AcDbSymbolTableRecord
100
AcDbLayerTableRecord
  2
LAYER_TRANSP_70
 70
64
 62
-7
  6
CONTINUOUS
290
1
370
-3
390
0
  0
LAYER
  5
283
330
2
102
{ACAD_XDICTIONARY
360
B11
102
}
100
AcDbSymbolTableRecord
100
AcDbLayerTableRecord
  2
LAYER_VP_FREEZE
 70
66
 62
-7
  6
CONTINUOUS
290
1
370
-3
390
0
  0
LAYER
  5
284
330
2
102
{ACAD_XDICTIONARY
360
B13
102
}
100
AcDbSymbolTableRecord
100
AcDbLayerTableRecord
  2
LAYER_DESC
 70
64
 62
-7
  6
CONTINUOUS
290
1
370
-3
390
0
  0
LAYER
  5
285
330
2
102
{ACAD_XDICTIONARY
360
B15
102
}
100
AcDbSymbolTableRecord
100
AcDbLayerTableRecord
  2
LAYER_TRUE_COLOR
 70
64
 62
-150
  6
CONTINUOUS
290
1
370
-3
390
0
  0
LAYER
  5
286
330
2
102
{ACAD_XDICTIONARY
360
B17
102
}
100
AcDbSymbolTableRecord
100
AcDbLayerTableRecord
  2
LAYER_COLOR_BOOK
 70
64
 62
-31
  6
CONTINUOUS
290
1
370
-3
390
0
  0
LAYER
  5
4D2
330
2
102
{ACAD_XDICTIONARY
360
B19
102
}
100
AcDbSymbolTableRecord
100
AcDbLayerTableRecord
  2
DEFPOINTS
 70
64
 62
-7
  6
CONTINUOUS
290
1
370
-3
390
0
  0
LAYER
  5
4D3
330
2
102
{ACAD_XDICTIONARY
360
4D4
102
}
100
AcDbSymbolTableRecord
100
AcDbLayerTableRecord
  2
LAYER2
 70
64
 62
-65
  6
CONTINUOUS
290
1
370
-3
390
0
  0
LAYER
  5
761
330
2
102
{ACAD_XDICTIONARY
360
B1C
102
}
100
AcDbSymbolTableRecord
100
AcDbLayerTableRecord
  2
LAYER_LW_050
 70
64
 62
-7
  6
CONTINUOUS
290
1
370
-3
390
0
  0
LAYER
  5
AE0
330
2
102
{ACAD_XDICTIONARY
360
AE2
102
}
100
AcDbSymbolTableRecord
100
AcDbLayerTableRecord
  2
0___1
 70
64
 62
-7
  6
CONTINUOUS
290
1
370
-3
390
0
  0
LAYER
  5
AE6
330
2
102
{ACAD_XDICTIONARY
360
AE7
102
}
100
AcDbSymbolTableRecord
100
AcDbLayerTableRecord
  2
LAYER_COLOR_80___1
 70
64
 62
-80
  6
CONTINUOUS
290
1
370
-3
390
0
  0
ENDTAB
  0
TABLE
  2
STYLE
  5
3
330
0
100
AcDbSymbolTable
 70
6
  0
STYLE
  5
11
330
3
102
{ACAD_XDICTIONARY
360
B36
102
}
100
AcDbSymbolTableRecord
100
AcDbTextStyleTableRecord
  2
STANDARD
 70
64
  3
arial.ttf
 40
0.0
 41
1.0
 42
0.5
 50
0.0
 71
0
  0
STYLE
  5
DC
330
3
102
{ACAD_XDICTIONARY
360
B38
102
}
100
AcDbSymbolTableRecord
100
AcDbTextStyleTableRecord
  2
ANNOTATIVE
 70
64
  3
arial.ttf
 40
0.0
 41
1.0
 42
0.2
 50
0.0
 71
0
  0
STYLE
  5
27F
330
3
100
AcDbSymbolTableRecord
100
AcDbTextStyleTableRecord
  2

 70
65
  3
ltypeshp.shx
 40
0.0
 41
1.0
 42
0.2
 50
0.0
 71
0
  0
STYLE
  5
399
330
3
102
{ACAD_XDICTIONARY
360
B3A
102
}
100
AcDbSymbolTableRecord
100
AcDbTextStyleTableRecord
  2
CUSTOM_TEXT_STYLE
 70
64
  3
consola.ttf
 40
0.0
 41
1.0
 42
7.5
 50
0.0
 71
0
  0
STYLE
  5
409
330
3
102
{ACAD_XDICTIONARY
360
B3C
102
}
100
AcDbSymbolTableRecord
100
AcDbTextStyleTableRecord
  2
MYTEXTSTYLE
 70
64
  3
arial.ttf
 40
0.0
 41
1.0
 42
7.5
 50
0.0
 71
0
  0
STYLE
  5
887
330
3
100
AcDbSymbolTableRecord
100
AcDbTextStyleTableRecord
  2

 70
65
  3
D:\Albert DC\Documents\Visual Studio 2022\Repos\ACadSharp\samples\sample_base\test_shape.shx
 40
0.0
 41
1.0
 42
7.5
 50
0.0
 71
0
  0
ENDTAB
  0
TABLE
  2
VIEW
  5
6
330
0
100
AcDbSymbolTable
 70
1
  0
VIEW
  5
302
330
6
102
{ACAD_XDICTIONARY
360
303
102
}
100
AcDbSymbolTableRecord
100
AcDbViewTableRecord
  2
VIEW_CUSTOM
 70
64
 40
106.915892711978
 41
234.122392799953
 42
50.0
 43
0.0
 44
0.0
 10
65.697589158126
 20
15.93009216546
 11
0.0
 21
0.0
 31
1.0
 12
0.0
 22
0.0
 32
0.0
 50
0.0
 71
16
 72
0
 79
0
281
0
110
0.0
120
0.0
130
0.0
111
0.0
121
0.0
131
0.0
112
0.0
122
0.0
132
0.0
146
0.0
  0
ENDTAB
  0
TABLE
  2
UCS
  5
7
330
0
100
AcDbSymbolTable
 70
0
  0
ENDTAB
  0
TABLE
  2
APPID
  5
9
330
0
100
AcDbSymbolTable
 70
19
  0
APPID
  5
12
330
9
100
AcDbSymbolTableRecord
100
AcDbRegAppTableRecord
  2
ACAD
 70
64
  0
APPID
  5
DD
330
9
102
{ACAD_XDICTIONARY
360
B26
102
}
100
AcDbSymbolTableRecord
100
AcDbRegAppTableRecord
  2
ACADANNOPO
 70
64
  0
APPID
  5
DE
330
9
102
{ACAD_XDICTIONARY
360
B28
102
}
100
AcDbSymbolTableRecord
100
AcDbRegAppTableRecord
  2
ACADANNOTATIVE
 70
64
  0
APPID
  5
DF
330
9
100
AcDbSymbolTableRecord
100
AcDbRegAppTableRecord
  2
ACAD_DSTYLE_DIMJAG
 70
64
  0
APPID
  5
E0
330
9
100
AcDbSymbolTableRecord
100
AcDbRegAppTableRecord
  2
ACAD_DSTYLE_DIMTALN
 70
64
  0
APPID
  5
107
330
9
100
AcDbSymbolTableRecord
100
AcDbRegAppTableRecord
  2
ACAD_MLEADERVER
 70
64
  0
APPID
  5
1A6
330
9
100
AcDbSymbolTableRecord
100
AcDbRegAppTableRecord
  2
ACAD_NAV_VCDISPLAY
 70
64
  0
APPID
  5
243
330
9
100
AcDbSymbolTableRecord
100
AcDbRegAppTableRecord
  2
ACAD_PSEXT
 70
64
  0
APPID
  5
276
330
9
102
{ACAD_XDICTIONARY
360
B2A
102
}
100
AcDbSymbolTableRecord
100
AcDbRegAppTableRecord
  2
ACAECLAYERSTANDARD
 70
64
  0
APPID
  5
277
330
9
102
{ACAD_XDICTIONARY
360
B2C
102
}
100
AcDbSymbolTableRecord
100
AcDbRegAppTableRecord
  2
ACCMTRANSPARENCY
 70
64
  0
APPID
  5
2C0
330
9
100
AcDbSymbolTableRecord
100
AcDbRegAppTableRecord
  2
ACAD_EXEMPT_FROM_CAD_STANDARDS
 70
64
  0
APPID
  5
358
330
9
102
{ACAD_XDICTIONARY
360
B2E
102
}
100
AcDbSymbolTableRecord
100
AcDbRegAppTableRecord
  2
GRADIENTCOLOR1ACI
 70
64
  0
APPID
  5
359
330
9
102
{ACAD_XDICTIONARY
360
B30
102
}
100
AcDbSymbolTableRecord
100
AcDbRegAppTableRecord
  2
GRADIENTCOLOR2ACI
 70
64
  0
APPID
  5
4D5
330
9
100
AcDbSymbolTableRecord
100
AcDbRegAppTableRecord
  2
ACAD_DSTYLE_DIMRADIAL_EXTENSION
 70
64
  0
APPID
  5
6FA
330
9
102
{ACAD_XDICTIONARY
360
B32
102
}
100
AcDbSymbolTableRecord
100
AcDbRegAppTableRecord
  2
ACDBDYNAMICBLOCKGUID
 70
64
  0
APPID
  5
AE1
330
9
102
{ACAD_XDICTIONARY
360
B34
102
}
100
AcDbSymbolTableRecord
100
AcDbRegAppTableRecord
  2
ACADANNOTATIVEDECOMPOSITION
 70
64
  0
APPID
  5
BE2
330
9
100
AcDbSymbolTableRecord
100
AcDbRegAppTableRecord
  2
ACAD_SPLINE_DATA
 70
64
  0
APPID
  5
C19
330
9
100
AcDbSymbolTableRecord
100
AcDbRegAppTableRecord
  2
AcDbAttr
 70
64
  0
APPID
  5
C20
330
9
100
AcDbSymbolTableRecord
100
AcDbRegAppTableRecord
  2
CONTENTBLOCKICON
 70
64
  0
ENDTAB
  0
TABLE
  2
DIMSTYLE
  5
A
330
0
100
AcDbSymbolTable
 70
3
100
AcDbDimStyleTable
  0
DIMSTYLE
105
27
330
A
102
{ACAD_XDICTIONARY
360
AFB
102
}
100
AcDbSymbolTableRecord
100
AcDbDimStyleTableRecord
  2
STANDARD
 70
64
  3

  4

 40
1.0
 41
0.18
 42
0.0625
 43
0.38
 44
0.18
 45
0.0
 46
0.0
 47
0.0
 48
0.0
 49
1.0
 50
45.0
 70
0
 90
0
140
0.18
141
0.09
142
0.0
143
25.4
144
1.0
145
0.0
146
1.0
147
0.09
148
0.0
 71
0
 72
0
 73
0
 74
1
 75
1
 76
0
 77
0
 78
0
 79
0
170
0
171
2
172
0
173
0
174
0
175
0
176
0
177
0
178
0
179
0
271
4
272
4
273
2
274
2
275
0
276
0
277
2
278
46
279
0
280
0
281
0
282
0
283
1
284
0
285
0
286
0
287
3
288
0
289
3
290
0
340
11
341
0
342
0
343
0
344
0
371
-2
372
-2
  0
DIMSTYLE
105
E1
330
A
102
{ACAD_XDICTIONARY
360
AFD
102
}
100
AcDbSymbolTableRecord
100
AcDbDimStyleTableRecord
  2
ANNOTATIVE
 70
64
  3

  4

 40
0.0
 41
0.18
 42
0.0625
 43
0.38
 44
0.18
 45
0.0
 46
0.0
 47
0.0
 48
0.0
 49
1.0
 50
45.0
 70
0
 90
0
140
0.18
141
0.09
142
0.0
143
25.4
144
1.0
145
0.0
146
1.0
147
0.09
148
0.0
 71
0
 72
0
 73
0
 74
1
 75
1
 76
0
 77
0
 78
0
 79
0
170
0
171
2
172
0
173
0
174
0
175
0
176
0
177
0
178
0
179
0
271
4
272
4
273
2
274
2
275
0
276
0
277
2
278
46
279
0
280
0
281
0
282
0
283
1
284
0
285
0
286
0
287
3
288
0
289
3
290
0
340
11
341
0
342
0
343
0
344
0
371
-2
372
-2
  0
DIMSTYLE
105
39A
330
A
102
{ACAD_XDICTIONARY
360
BD2
102
}
100
AcDbSymbolTableRecord
100
AcDbDimStyleTableRecord
  2
ISO-25
 70
64
  3

  4

 40
1.0
 41
2.5
 42
0.625
 43
3.75
 44
1.25
 45
0.0
 46
0.0
 47
0.0
 48
0.0
 49
1.0
 50
45.0
 70
0
 90
0
140
2.5
141
2.5
142
0.0
143
0.03937007874016
144
1.0
145
0.0
146
1.0
147
0.625
148
0.0
 71
0
 72
0
 73
0
 74
0
 75
0
 76
0
 77
1
 78
8
 79
0
170
0
171
3
172
1
173
0
174
0
175
0
176
0
177
0
178
0
179
0
271
2
272
2
273
2
274
3
275
0
276
0
277
2
278
46
279
0
280
0
281
0
282
0
283
0
284
8
285
0
286
0
287
3
288
0
289
3
290
0
340
11
341
0
342
0
343
0
344
0
371
-2
372
-2
  0
ENDTAB
  0
TABLE
  2
BLOCK_RECORD
  5
1
330
0
100
AcDbSymbolTable
 70
16
  0
BLOCK_RECORD
  5
5D
330
1
102
{ACAD_XDICTIONARY
360
AF3
102
}
100
AcDbSymbolTableRecord
100
AcDbBlockTableRecord
  2
*PAPER_SPACE0
 70
64
340
0
 70
0
  0
BLOCK_RECORD
  5
259
330
1
102
{ACAD_XDICTIONARY
360
AF5
102
}
100
AcDbSymbolTableRecord
100
AcDbBlockTableRecord
  2
*PAPER_SPACE1
 70
64
340
0
 70
0
  0
BLOCK_RECORD
  5
4A4
330
1
102
{ACAD_XDICTIONARY
360
AF7
102
}
100
AcDbSymbolTableRecord
100
AcDbBlockTableRecord
  2
_ARCHTICK
 70
64
340
0
 70
0
  0
BLOCK_RECORD
  5
529
330
1
100
AcDbSymbolTableRecord
100
AcDbBlockTableRecord
  2
*D3
 70
64
340
0
 70
0
  0
BLOCK_RECORD
  5
535
330
1
100
AcDbSymbolTableRecord
100
AcDbBlockTableRecord
  2
*D4
 70
64
340
0
 70
0
  0
BLOCK_RECORD
  5
542
330
1
100
AcDbSymbolTableRecord
100
AcDbBlockTableRecord
  2
*D5
 70
64
340
0
 70
0
  0
BLOCK_RECORD
  5
550
330
1
100
AcDbSymbolTableRecord
100
AcDbBlockTableRecord
  2
*D6
 70
64
340
0
 70
0
  0
BLOCK_RECORD
  5
55A
330
1
100
AcDbSymbolTableRecord
100
AcDbBlockTableRecord
  2
*D7
 70
64
340
0
 70
0
  0
BLOCK_RECORD
  5
564
330
1
100
AcDbSymbolTableRecord
100
AcDbBlockTableRecord
  2
*D8
 70
64
340
0
 70
0
  0
BLOCK_RECORD
  5
570
330
1
100
AcDbSymbolTableRecord
100
AcDbBlockTableRecord
  2
*T9
 70
64
340
0
 70
0
  0
BLOCK_RECORD
  5
5AD
330
1
100
AcDbSymbolTableRecord
100
AcDbBlockTableRecord
  2
*D10
 70
64
340
0
 70
0
  0
BLOCK_RECORD
  5
5B6
330
1
100
AcDbSymbolTableRecord
100
AcDbBlockTableRecord
  2
*D11
 70
64
340
0
 70
0
  0
BLOCK_RECORD
  5
6F2
330
1
102
{ACAD_XDICTIONARY
360
6F3
102
}
100
AcDbSymbolTableRecord
100
AcDbBlockTableRecord
  2
MYBLOCK
 70
64
340
0
 70
0
  0
BLOCK_RECORD
  5
77F
330
1
102
{ACAD_XDICTIONARY
360
79A
102
}
100
AcDbSymbolTableRecord
100
AcDbBlockTableRecord
  2
MY_BLOCK_V2
 70
64
340
0
 70
0
  0
BLOCK_RECORD
  5
1F
330
1
102
{ACAD_XDICTIONARY
360
15D
102
}
100
AcDbSymbolTableRecord
100
AcDbBlockTableRecord
  2
*MODEL_SPACE
 70
64
340
0
 70
0
  0
BLOCK_RECORD
  5
58
330
1
102
{ACAD_XDICTIONARY
360
AF1
102
}
100
AcDbSymbolTableRecord
100
AcDbBlockTableRecord
  2
*PAPER_SPACE
 70
64
340
0
 70
0
  0
ENDTAB
  0
ENDSEC
  0
SECTION
  2
BLOCKS
  0
BLOCK
  5
5F
330
5D
100
AcDbEntity
  8
0
  6
BYLAYER
 62
256
 48
1.0
 60
1
370
-1
100
AcDbBlockBegin
  2
*PAPER_SPACE0
 70
0
 10
0.0
 20
0.0
 30
0.0
  3
*PAPER_SPACE0
  0
VIEWPORT
  5
252
330
5D
102
{ACAD_XDICTIONARY
360
253
102
}
100
AcDbEntity
  8
0
  6
BYLAYER
 62
256
 48
1.0
 60
1
370
-1
100
AcDbViewport
 10
5.24999963955617
 20
3.99999988360668
 30
0.0
 40
19.6960561797092
 41
8.99453232206718
 69
1
 12
0.0
 22
0.0
 13
0.0
 23
0.0
 14
0.0
 24
0.0
 15
0.0
 25
0.0
 16
0.0
 26
0.0
 36
0.0
 17
0.0
 27
0.0
 37
0.0
 42
0.0
 43
0.0
 44
0.0
 45
0.0
 50
0.0
 51
0.0
 72
0
 90
0
110
0.0
120
0.0
130
0.0
111
0.0
121
0.0
131
0.0
112
0.0
122
0.0
132
0.0
  0
VIEWPORT
  5
256
330
5D
102
{ACAD_XDICTIONARY
360
257
102
}
100
AcDbEntity
  8
0
  6
BYLAYER
 62
256
 48
1.0
 60
1
370
-1
100
AcDbViewport
 10
5.24999976158142
 20
3.99999976158142
 30
0.0
 40
8.39999961853028
 41
6.39999961853027
 69
1
 12
0.0
 22
0.0
 13
0.0
 23
0.0
 14
0.0
 24
0.0
 15
0.0
 25
0.0
 16
0.0
 26
0.0
 36
0.0
 17
0.0
 27
0.0
 37
0.0
 42
0.0
 43
0.0
 44
0.0
 45
0.0
 50
0.0
 51
0.0
 72
0
 90
0
110
0.0
120
0.0
130
0.0
111
0.0
121
0.0
131
0.0
112
0.0
122
0.0
132
0.0
  0
ENDBLK
  5
60
330
5D
100
AcDbEntity
  8
0
100
AcDbBlockEnd
  0
BLOCK
  5
25B
330
259
100
AcDbEntity
  8
0
  6
BYLAYER
 62
256
 48
1.0
 60
1
370
-1
100
AcDbBlockBegin
  2
*PAPER_SPACE1
 70
0
 10
0.0
 20
0.0
 30
0.0
  3
*PAPER_SPACE1
  0
VIEWPORT
  5
267
330
259
102
{ACAD_XDICTIONARY
360
268
102
}
100
AcDbEntity
  8
0
  6
BYLAYER
 62
256
 48
1.0
 60
1
370
-1
100
AcDbViewport
 10
5.67978986604946
 20
3.96719160981066
 30
0.0
 40
19.1545491120179
 41
8.74724409448819
 69
1
 12
0.0
 22
0.0
 13
0.0
 23
0.0
 14
0.0
 24
0.0
 15
0.0
 25
0.0
 16
0.0
 26
0.0
 36
0.0
 17
0.0
 27
0.0
 37
0.0
 42
0.0
 43
0.0
 44
0.0
 45
0.0
 50
0.0
 51
0.0
 72
0
 90
0
110
0.0
120
0.0
130
0.0
111
0.0
121
0.0
131
0.0
112
0.0
122
0.0
132
0.0
  0
VIEWPORT
  5
26B
330
259
102
{ACAD_XDICTIONARY
360
26C
102
}
100
AcDbEntity
  8
0
  6
BYLAYER
 62
256
 48
1.0
 60
1
370
-1
100
AcDbViewport
 10
5.67999952421414
 20
3.96666677918021
 30
0.0
 40
9.08799923874262
 41
6.34666684668834
 69
1
 12
0.0
 22
0.0
 13
0.0
 23
0.0
 14
0.0
 24
0.0
 15
0.0
 25
0.0
 16
0.0
 26
0.0
 36
0.0
 17
0.0
 27
0.0
 37
0.0
 42
0.0
 43
0.0
 44
0.0
 45
0.0
 50
0.0
 51
0.0
 72
0
 90
0
110
0.0
120
0.0
130
0.0
111
0.0
121
0.0
131
0.0
112
0.0
122
0.0
132
0.0
  0
ENDBLK
  5
25C
330
259
100
AcDbEntity
  8
0
100
AcDbBlockEnd
  0
BLOCK
  5
4A5
330
4A4
100
AcDbEntity
  8
0
  6
BYLAYER
 62
256
 48
1.0
 60
1
370
-1
100
AcDbBlockBegin
  2
_ARCHTICK
 70
0
 10
0.0
 20
0.0
 30
0.0
  3
_ARCHTICK
  0
LWPOLYLINE
  5
4A6
330
4A4
100
AcDbEntity
  8
0
  6
BYBLOCK
 62
0
 48
1.0
 60
1
370
-1
100
AcDbPolyline
 90
2
 70
0
 38
0.0
 39
0.0
 10
-0.5
 20
-0.5
 40
0.0
 41
0.0
 42
0.0
 10
0.5
 20
0.5
 40
0.0
 41
0.0
 42
0.0
210
0.0
220
0.0
230
1.0
  0
ENDBLK
  5
4A7
330
4A4
100
AcDbEntity
  8
0
100
AcDbBlockEnd
  0
BLOCK
  5
52A
330
529
100
AcDbEntity
  8
0
  6
BYLAYER
 62
256
 48
1.0
 60
1
370
-1
100
AcDbBlockBegin
  2
*D3
 70
1
 10
0.0
 20
0.0
 30
0.0
  3
*D3
  0
LINE
  5
626
330
529
100
AcDbEntity
  8
LAYER1
  6
BYLAYER
 62
0
 48
1.0
 60
1
370
-1
100
AcDbLine
 10
329.97655947658
 20
3.48244533243329
 30
0.0
 11
319.276189400818
 21
22.016029963441
 31
0.0
 39
0.0
210
0.0
220
0.0
230
1.0
  0
LINE
  5
627
330
529
100
AcDbEntity
  8
LAYER1
  6
BYLAYER
 62
0
 48
1.0
 60
1
370
-1
100
AcDbLine
 10
364.174764413852
 20
37.6806502697062
 30
0.0
 11
359.733100223525
 21
45.373838317512
 31
0.0
 39
0.0
210
0.0
220
0.0
230
1.0
  0
LINE
  5
628
330
529
100
AcDbEntity
  8
LAYER1
  6
BYLAYER
 62
0
 48
1.0
 60
1
370
-1
100
AcDbLine
 10
322.066252910279
 20
22.1834982087104
 30
0.0
 11
358.193036714064
 21
43.0413065627815
 31
0.0
 39
0.0
210
0.0
220
0.0
230
1.0
  0
SOLID
  5
629
330
529
100
AcDbEntity
  8
LAYER1
  6
BYLAYER
 62
0
 48
1.0
 60
1
370
-1
100
AcDbTrace
 10
321.857919576946
 20
22.5443421269539
 30
0.0
 11
322.274586243613
 21
21.8226542904669
 31
0.0
 12
319.901189400818
 22
20.9334982087104
 32
0.0
 13
319.901189400818
 23
20.9334982087104
 33
0.0
 39
0.0
210
0.0
220
0.0
230
1.0
  0
SOLID
  5
62A
330
529
100
AcDbEntity
  8
LAYER1
  6
BYLAYER
 62
0
 48
1.0
 60
1
370
-1
100
AcDbTrace
 10
357.984703380731
 20
43.402150481025
 30
0.0
 11
358.401370047398
 21
42.680462644538
 31
0.0
 12
360.358100223525
 22
44.2913065627815
 32
0.0
 13
360.358100223525
 23
44.2913065627815
 33
0.0
 39
0.0
210
0.0
220
0.0
230
1.0
  0
MTEXT
  5
62B
330
529
100
AcDbEntity
  8
LAYER1
  6
BYLAYER
 62
0
 48
1.0
 60
1
370
-1
100
AcDbMText
 10
339.065951087752
 20
34.4547739601339
 30
0.0
 40
2.5
 41
0.0
 44
1.0
 71
5
 72
1
  1
46,72
  7
STANDARD
 73
0
 11
0.866025403784433
 21
0.500000000000009
 31
0.0
210
0.0
220
0.0
230
1.0
  0
POINT
  5
62C
330
529
100
AcDbEntity
  8
DEFPOINTS
  6
BYLAYER
 62
0
 48
1.0
 60
1
370
-1
100
AcDbPoint
 10
330.28905947658
 20
2.94117945506801
 30
0.0
 39
0.0
210
0.0
220
0.0
230
1.0
 50
0.0
  0
POINT
  5
62D
330
529
100
AcDbEntity
  8
DEFPOINTS
  6
BYLAYER
 62
0
 48
1.0
 60
1
370
-1
100
AcDbPoint
 10
364.487264413852
 20
37.1393843923409
 30
0.0
 39
0.0
210
0.0
220
0.0
230
1.0
 50
0.0
  0
POINT
  5
62E
330
529
100
AcDbEntity
  8
DEFPOINTS
  6
BYLAYER
 62
0
 48
1.0
 60
1
370
-1
100
AcDbPoint
 10
360.358100223525
 20
44.2913065627815
 30
0.0
 39
0.0
210
0.0
220
0.0
230
1.0
 50
0.0
  0
ENDBLK
  5
52B
330
529
100
AcDbEntity
  8
0
100
AcDbBlockEnd
  0
BLOCK
  5
536
330
535
100
AcDbEntity
  8
0
  6
BYLAYER
 62
256
 48
1.0
 60
1
370
-1
100
AcDbBlockBegin
  2
*D4
 70
1
 10
0.0
 20
0.0
 30
0.0
  3
*D4
  0
LINE
  5
BE3
330
535
100
AcDbEntity
  8
LAYER1
  6
BYLAYER
 62
0
 48
1.0
 60
1
370
-1
100
AcDbLine
 10
456.275404641195
 20
8.44323792418629
 30
0.0
 11
472.66000954325
 21
2.98170295683474
 31
0.0
 39
0.0
210
0.0
220
0.0
230
1.0
  0
LINE
  5
BE4
330
535
100
AcDbEntity
  8
LAYER1
  6
BYLAYER
 62
0
 48
1.0
 60
1
370
-1
100
AcDbLine
 10
444.434660699804
 20
37.7457234549318
 30
0.0
 11
447.295236960302
 21
49.1880284969239
 31
0.0
 39
0.0
210
0.0
220
0.0
230
1.0
  0
ARC
  5
BE5
330
535
100
AcDbEntity
  8
LAYER1
  6
BYLAYER
 62
0
 48
1.0
 60
1
370
-1
100
AcDbCircle
 10
438.583375111277
 20
14.3405811008257
 30
0.0
 39
0.0
 40
34.6699265993171
210
0.0
220
0.0
230
1.0
100
AcDbArc
 50
345.697465466128
 51
71.8313422430238
  0
SOLID
  5
BE6
330
535
100
AcDbEntity
  8
LAYER1
  6
BYLAYER
 62
0
 48
1.0
 60
1
370
-1
100
AcDbTrace
 10
472.578478825536
 20
5.65823314185553
 30
0.0
 11
471.778922270409
 21
5.8930815176175
 31
0.0
 12
471.474155420687
 22
3.3769876643558
 32
0.0
 13
471.474155420687
 23
3.3769876643558
 33
0.0
 39
0.0
210
0.0
220
0.0
230
1.0
  0
SOLID
  5
BE7
330
535
100
AcDbEntity
  8
LAYER1
  6
BYLAYER
 62
0
 48
1.0
 60
1
370
-1
100
AcDbTrace
 10
449.278420764972
 20
46.8816412997165
 30
0.0
 11
449.509550553955
 21
47.6822807098688
 31
0.0
 12
446.992067429006
 22
47.9753503717423
 32
0.0
 13
446.992067429006
 23
47.9753503717423
 33
0.0
 39
0.0
210
0.0
220
0.0
230
1.0
  0
MTEXT
  5
BE8
330
535
100
AcDbEntity
  8
LAYER1
  6
BYLAYER
 62
0
 48
1.0
 60
1
370
-1
100
AcDbMText
 10
470.642040949818
 20
31.9390540112458
 30
0.0
 40
2.5
 41
0.0
 44
1.0
 71
5
 72
1
  1
94\U+00B0
  7
STANDARD
 73
0
 11
0.481209158166613
 21
-0.876605809983358
 31
0.0
210
0.0
220
0.0
230
1.0
  0
POINT
  5
BE9
330
535
100
AcDbEntity
  8
DEFPOINTS
  6
BYLAYER
 62
0
 48
1.0
 60
1
370
-1
100
AcDbPoint
 10
438.583375111277
 20
14.3405811008257
 30
0.0
 39
0.0
210
0.0
220
0.0
230
1.0
 50
0.0
  0
POINT
  5
BEA
330
535
100
AcDbEntity
  8
DEFPOINTS
  6
BYLAYER
 62
0
 48
1.0
 60
1
370
-1
100
AcDbPoint
 10
455.682477579914
 20
8.64088027794682
 30
0.0
 39
0.0
210
0.0
220
0.0
230
1.0
 50
0.0
  0
POINT
  5
BEB
330
535
100
AcDbEntity
  8
DEFPOINTS
  6
BYLAYER
 62
0
 48
1.0
 60
1
370
-1
100
AcDbPoint
 10
444.283075934156
 20
37.1393843923409
 30
0.0
 39
0.0
210
0.0
220
0.0
230
1.0
 50
0.0
  0
POINT
  5
BEC
330
535
100
AcDbEntity
  8
DEFPOINTS
  6
BYLAYER
 62
0
 48
1.0
 60
1
370
-1
100
AcDbPoint
 10
472.360450046828
 20
22.1580627413702
 30
0.0
 39
0.0
210
0.0
220
0.0
230
1.0
 50
0.0
  0
ENDBLK
  5
537
330
535
100
AcDbEntity
  8
0
100
AcDbBlockEnd
  0
BLOCK
  5
543
330
542
100
AcDbEntity
  8
0
  6
BYLAYER
 62
256
 48
1.0
 60
1
370
-1
100
AcDbBlockBegin
  2
*D5
 70
1
 10
0.0
 20
0.0
 30
0.0
  3
*D5
  0
LINE
  5
BED
330
542
100
AcDbEntity
  8
LAYER1
  6
BYLAYER
 62
0
 48
1.0
 60
1
370
-1
100
AcDbLine
 10
513.272412869983
 20
8.44323792418629
 30
0.0
 11
528.965659584681
 21
3.21215568595372
 31
0.0
 39
0.0
210
0.0
220
0.0
230
1.0
  0
LINE
  5
BEE
330
542
100
AcDbEntity
  8
LAYER1
  6
BYLAYER
 62
0
 48
1.0
 60
1
370
-1
100
AcDbLine
 10
501.431668928592
 20
37.7457234549318
 30
0.0
 11
504.115496014272
 21
48.4810317976498
 31
0.0
 39
0.0
210
0.0
220
0.0
230
1.0
  0
ARC
  5
BEF
330
542
100
AcDbEntity
  8
LAYER1
  6
BYLAYER
 62
0
 48
1.0
 60
1
370
-1
100
AcDbCircle
 10
495.580383340065
 20
14.3405811008256
 30
0.0
 39
0.0
 40
33.9411710822996
210
0.0
220
0.0
230
1.0
100
AcDbArc
 50
345.7862328294
 51
71.7425748797511
  0
SOLID
  5
BF0
330
542
100
AcDbEntity
  8
LAYER1
  6
BYLAYER
 62
0
 48
1.0
 60
1
370
-1
100
AcDbTrace
 10
528.882361388667
 20
5.88954064104121
 30
0.0
 11
528.082623150184
 21
6.12376957681025
 31
0.0
 12
527.779805462118
 22
3.60744039347475
 32
0.0
 13
527.779805462118
 23
3.60744039347475
 33
0.0
 39
0.0
210
0.0
220
0.0
230
1.0
  0
SOLID
  5
BF1
330
542
100
AcDbEntity
  8
LAYER1
  6
BYLAYER
 62
0
 48
1.0
 60
1
370
-1
100
AcDbTrace
 10
506.097831900738
 20
46.1728738248698
 30
0.0
 11
506.329581828728
 21
46.973333952122
 31
0.0
 12
503.812326482976
 22
47.2683536724682
 32
0.0
 13
503.812326482976
 23
47.2683536724682
 33
0.0
 39
0.0
210
0.0
220
0.0
230
1.0
  0
MTEXT
  5
BF2
330
542
100
AcDbEntity
  8
LAYER1
  6
BYLAYER
 62
0
 48
1.0
 60
1
370
-1
100
AcDbMText
 10
527.000217858332
 20
31.5883701823925
 30
0.0
 40
2.5
 41
0.0
 44
1.0
 71
5
 72
1
  1
94\U+00B0
  7
STANDARD
 73
0
 11
0.481209158166613
 21
-0.876605809983358
 31
0.0
210
0.0
220
0.0
230
1.0
  0
POINT
  5
BF3
330
542
100
AcDbEntity
  8
DEFPOINTS
  6
BYLAYER
 62
0
 48
1.0
 60
1
370
-1
100
AcDbPoint
 10
528.647470337295
 20
21.9937407068713
 30
0.0
 39
0.0
210
0.0
220
0.0
230
1.0
 50
0.0
  0
POINT
  5
BF4
330
542
100
AcDbEntity
  8
DEFPOINTS
  6
BYLAYER
 62
0
 48
1.0
 60
1
370
-1
100
AcDbPoint
 10
495.580383340065
 20
14.3405811008256
 30
0.0
 39
0.0
210
0.0
220
0.0
230
1.0
 50
0.0
  0
POINT
  5
BF5
330
542
100
AcDbEntity
  8
DEFPOINTS
  6
BYLAYER
 62
0
 48
1.0
 60
1
370
-1
100
AcDbPoint
 10
495.580383340065
 20
14.3405811008256
 30
0.0
 39
0.0
210
0.0
220
0.0
230
1.0
 50
0.0
  0
POINT
  5
BF6
330
542
100
AcDbEntity
  8
DEFPOINTS
  6
BYLAYER
 62
0
 48
1.0
 60
1
370
-1
100
AcDbPoint
 10
501.280084162944
 20
37.1393843923409
 30
0.0
 39
0.0
210
0.0
220
0.0
230
1.0
 50
0.0
  0
POINT
  5
BF7
330
542
100
AcDbEntity
  8
DEFPOINTS
  6
BYLAYER
 62
0
 48
1.0
 60
1
370
-1
100
AcDbPoint
 10
512.679485808702
 20
8.64088027794682
 30
0.0
 39
0.0
210
0.0
220
0.0
230
1.0
 50
0.0
  0
ENDBLK
  5
544
330
542
100
AcDbEntity
  8
0
100
AcDbBlockEnd
  0
BLOCK
  5
551
330
550
100
AcDbEntity
  8
0
  6
BYLAYER
 62
256
 48
1.0
 60
1
370
-1
100
AcDbBlockBegin
  2
*D6
 70
1
 10
0.0
 20
0.0
 30
0.0
  3
*D6
  0
LINE
  5
64F
330
550
100
AcDbEntity
  8
LAYER1
  6
BYLAYER
 62
0
 48
1.0
 60
1
370
-1
100
AcDbLine
 10
661.496707203551
 20
8.64088027794681
 30
0.0
 11
690.769612963703
 21
8.64088027794681
 31
0.0
 39
0.0
210
0.0
220
0.0
230
1.0
  0
LINE
  5
650
330
550
100
AcDbEntity
  8
LAYER1
  6
BYLAYER
 62
0
 48
1.0
 60
1
370
-1
100
AcDbLine
 10
690.769612963703
 20
8.64088027794681
 30
0.0
 11
695.769612963703
 21
14.3405811008256
 31
0.0
 39
0.0
210
0.0
220
0.0
230
1.0
  0
LINE
  5
651
330
550
100
AcDbEntity
  8
LAYER1
  6
BYLAYER
 62
0
 48
1.0
 60
1
370
-1
100
AcDbLine
 10
695.769612963703
 20
14.3405811008256
 30
0.0
 11
711.542975855927
 21
14.3405811008256
 31
0.0
 39
0.0
210
0.0
220
0.0
230
1.0
  0
MTEXT
  5
652
330
550
100
AcDbEntity
  8
LAYER1
  6
BYLAYER
 62
0
 48
1.0
 60
1
370
-1
100
AcDbMText
 10
706.468794409815
 20
16.467968549666
 30
0.0
 40
2.5
 41
0.0
 44
1.0
 71
5
 72
1
  1
102,59
  7
STANDARD
 73
0
 11
1.0
 21
0.0
 31
0.0
210
0.0
220
0.0
230
1.0
  0
POINT
  5
653
330
550
100
AcDbEntity
  8
DEFPOINTS
  6
BYLAYER
 62
0
 48
1.0
 60
1
370
-1
100
AcDbPoint
 10
660.871707203551
 20
8.64088027794681
 30
0.0
 39
0.0
210
0.0
220
0.0
230
1.0
 50
0.0
  0
POINT
  5
654
330
550
100
AcDbEntity
  8
DEFPOINTS
  6
BYLAYER
 62
0
 48
1.0
 60
1
370
-1
100
AcDbPoint
 10
700.769612963703
 20
14.3405811008256
 30
0.0
 39
0.0
210
0.0
220
0.0
230
1.0
 50
0.0
  0
POINT
  5
655
330
550
100
AcDbEntity
  8
DEFPOINTS
  6
BYLAYER
 62
0
 48
1.0
 60
1
370
-1
100
AcDbPoint
 10
313.189957007943
 20
111.235495089766
 30
0.0
 39
0.0
210
0.0
220
0.0
230
1.0
 50
0.0
  0
ENDBLK
  5
552
330
550
100
AcDbEntity
  8
0
100
AcDbBlockEnd
  0
BLOCK
  5
55B
330
55A
100
AcDbEntity
  8
0
  6
BYLAYER
 62
256
 48
1.0
 60
1
370
-1
100
AcDbBlockBegin
  2
*D7
 70
1
 10
0.0
 20
0.0
 30
0.0
  3
*D7
  0
LINE
  5
656
330
55A
100
AcDbEntity
  8
LAYER1
  6
BYLAYER
 62
0
 48
1.0
 60
1
370
-1
100
AcDbLine
 10
666.571408026431
 20
3.56617945506799
 30
0.0
 11
666.571408026431
 21
32.8390852152198
 31
0.0
 39
0.0
210
0.0
220
0.0
230
1.0
  0
LINE
  5
657
330
55A
100
AcDbEntity
  8
LAYER1
  6
BYLAYER
 62
0
 48
1.0
 60
1
370
-1
100
AcDbLine
 10
666.571408026431
 20
32.8390852152198
 30
0.0
 11
677.970809672189
 21
37.8390852152198
 31
0.0
 39
0.0
210
0.0
220
0.0
230
1.0
  0
LINE
  5
658
330
55A
100
AcDbEntity
  8
LAYER1
  6
BYLAYER
 62
0
 48
1.0
 60
1
370
-1
100
AcDbLine
 10
677.970809672189
 20
37.8390852152198
 30
0.0
 11
677.970809672189
 21
53.8460770296809
 31
0.0
 39
0.0
210
0.0
220
0.0
230
1.0
  0
MTEXT
  5
659
330
55A
100
AcDbEntity
  8
LAYER1
  6
BYLAYER
 62
0
 48
1.0
 60
1
370
-1
100
AcDbMText
 10
675.843422223348
 20
48.6550811224502
 30
0.0
 40
2.5
 41
0.0
 44
1.0
 71
5
 72
1
  1
353,38
  7
STANDARD
 73
0
 11
0.0000000000000001
 21
1.0
 31
0.0
210
0.0
220
0.0
230
1.0
  0
POINT
  5
65A
330
55A
100
AcDbEntity
  8
DEFPOINTS
  6
BYLAYER
 62
0
 48
1.0
 60
1
370
-1
100
AcDbPoint
 10
666.571408026431
 20
2.94117945506799
 30
0.0
 39
0.0
210
0.0
220
0.0
230
1.0
 50
0.0
  0
POINT
  5
65B
330
55A
100
AcDbEntity
  8
DEFPOINTS
  6
BYLAYER
 62
0
 48
1.0
 60
1
370
-1
100
AcDbPoint
 10
677.970809672189
 20
42.8390852152198
 30
0.0
 39
0.0
210
0.0
220
0.0
230
1.0
 50
0.0
  0
POINT
  5
65C
330
55A
100
AcDbEntity
  8
DEFPOINTS
  6
BYLAYER
 62
0
 48
1.0
 60
1
370
-1
100
AcDbPoint
 10
313.189957007943
 20
111.235495089766
 30
0.0
 39
0.0
210
0.0
220
0.0
230
1.0
 50
0.0
  0
ENDBLK
  5
55C
330
55A
100
AcDbEntity
  8
0
100
AcDbBlockEnd
  0
BLOCK
  5
565
330
564
100
AcDbEntity
  8
0
  6
BYLAYER
 62
256
 48
1.0
 60
1
370
-1
100
AcDbBlockBegin
  2
*D8
 70
1
 10
0.0
 20
0.0
 30
0.0
  3
*D8
  0
LINE
  5
BF8
330
564
100
AcDbEntity
  8
LAYER1
  6
BYLAYER
 62
0
 48
1.0
 60
1
370
-1
100
AcDbLine
 10
381.144425144247
 20
9.0828220161884
 30
0.0
 11
374.472452497237
 21
15.7547946631988
 31
0.0
 39
0.0
210
0.0
220
0.0
230
1.0
  0
LINE
  5
BF9
330
564
100
AcDbEntity
  8
LAYER1
  6
BYLAYER
 62
0
 48
1.0
 60
1
370
-1
100
AcDbLine
 10
415.34263008152
 20
43.2810269534614
 30
0.0
 11
408.67065743451
 21
49.9529996004717
 31
0.0
 39
0.0
210
0.0
220
0.0
230
1.0
  0
LINE
  5
BFA
330
564
100
AcDbEntity
  8
LAYER1
  6
BYLAYER
 62
1
 48
1.0
 60
1
370
-1
100
AcDbLine
 10
374.472452497237
 20
12.9263675384526
 30
0.0
 11
411.499084559256
 21
49.9529996004717
 31
0.0
 39
0.0
210
0.0
220
0.0
230
1.0
  0
INSERT
  5
BFB
330
564
100
AcDbEntity
  8
LAYER1
  6
BYLAYER
 62
1
 48
1.0
 60
1
370
-1
100
AcDbBlockReference
  2
_ARCHTICK
 10
375.88666605961
 20
14.3405811008257
 30
0.0
 41
2.5
 42
2.5
 43
2.5
 50
225.0
 70
1
 71
1
 44
0.0
 45
0.0
210
0.0
220
0.0
230
1.0
  0
INSERT
  5
BFC
330
564
100
AcDbEntity
  8
LAYER1
  6
BYLAYER
 62
1
 48
1.0
 60
1
370
-1
100
AcDbBlockReference
  2
_ARCHTICK
 10
410.084870996883
 20
48.5387860380986
 30
0.0
 41
2.5
 42
2.5
 43
2.5
 50
45.0
 70
1
 71
1
 44
0.0
 45
0.0
210
0.0
220
0.0
230
1.0
  0
MTEXT
  5
BFD
330
564
100
AcDbEntity
  8
LAYER1
  6
BYLAYER
 62
0
 48
1.0
 60
1
370
-1
100
AcDbMText
 10
390.75736925875
 20
33.6680828389586
 30
0.0
 40
2.5
 41
0.0
 44
1.0
 71
5
 72
1
  1
4'-0{\H1x;\S1#4;}"
  7
STANDARD
 73
0
 11
0.707106781186548
 21
0.707106781186547
 31
0.0
210
0.0
220
0.0
230
1.0
  0
POINT
  5
BFE
330
564
100
AcDbEntity
  8
DEFPOINTS
  6
BYLAYER
 62
0
 48
1.0
 60
1
370
-1
100
AcDbPoint
 10
381.586366882489
 20
8.64088027794679
 30
0.0
 39
0.0
210
0.0
220
0.0
230
1.0
 50
0.0
  0
POINT
  5
BFF
330
564
100
AcDbEntity
  8
DEFPOINTS
  6
BYLAYER
 62
0
 48
1.0
 60
1
370
-1
100
AcDbPoint
 10
415.784571819762
 20
42.8390852152198
 30
0.0
 39
0.0
210
0.0
220
0.0
230
1.0
 50
0.0
  0
POINT
  5
C00
330
564
100
AcDbEntity
  8
DEFPOINTS
  6
BYLAYER
 62
0
 48
1.0
 60
1
370
-1
100
AcDbPoint
 10
410.084870996883
 20
48.5387860380986
 30
0.0
 39
0.0
210
0.0
220
0.0
230
1.0
 50
0.0
  0
ENDBLK
  5
566
330
564
100
AcDbEntity
  8
0
100
AcDbBlockEnd
  0
BLOCK
  5
58D
330
570
100
AcDbEntity
  8
0
  6
BYLAYER
 62
256
 48
1.0
 60
1
370
-1
100
AcDbBlockBegin
  2
*T9
 70
1
 10
0.0
 20
0.0
 30
0.0
  3
*T9
  0
SOLID
  5
571
330
570
100
AcDbEntity
  8
LAYER1
  6
BYLAYER
 62
165
 48
1.0
 60
1
370
-1
100
AcDbTrace
 10
0.0
 20
-26.5443209751214
 30
0.0
 11
0.0
 21
-39.3686478265987
 31
0.0
 12
102.594614811819
 22
-26.5443209751214
 32
0.0
 13
102.594614811819
 23
-39.3686478265987
 33
0.0
 39
0.0
210
0.0
220
0.0
230
1.0
  0
MTEXT
  5
572
330
570
100
AcDbEntity
  8
LAYER1
  6
BYLAYER
 62
0
 48
1.0
 60
1
370
-1
100
AcDbMText
 10
51.2973074059095
 20
-3.74551768360609
 30
0.0
 40
4.0
 41
102.526218401944
 44
1.0
 71
5
 72
5
  1
Table sample
  7
STANDARD
 73
0
 11
1.0
 21
0.0
 31
0.0
210
0.0
220
0.0
230
1.0
  0
MTEXT
  5
573
330
570
100
AcDbEntity
  8
LAYER1
  6
BYLAYER
 62
0
 48
1.0
 60
1
370
-1
100
AcDbMText
 10
17.0991024686365
 20
-10.6665829685304
 30
0.0
 40
4.0
 41
34.1298085273984
 44
1.0
 71
5
 72
5
  1
Text
  7
STANDARD
 73
0
 11
1.0
 21
0.0
 31
0.0
210
0.0
220
0.0
230
1.0
  0
MTEXT
  5
574
330
570
100
AcDbEntity
  8
LAYER1
  6
BYLAYER
 62
0
 48
1.0
 60
1
370
-1
100
AcDbMText
 10
51.2973074059095
 20
-10.6665829685304
 30
0.0
 40
4.0
 41
34.1298085273984
 44
1.0
 71
5
 72
5
  1
Text
  7
STANDARD
 73
0
 11
1.0
 21
0.0
 31
0.0
210
0.0
220
0.0
230
1.0
  0
MTEXT
  5
575
330
570
100
AcDbEntity
  8
LAYER1
  6
BYLAYER
 62
0
 48
1.0
 60
1
370
-1
100
AcDbMText
 10
85.4955123431824
 20
-10.6665829685304
 30
0.0
 40
4.0
 41
34.1298085273984
 44
1.0
 71
5
 72
5
  1
Text
  7
STANDARD
 73
0
 11
1.0
 21
0.0
 31
0.0
210
0.0
220
0.0
230
1.0
  0
MTEXT
  5
576
330
570
100
AcDbEntity
  8
LAYER1
  6
BYLAYER
 62
7
 48
1.0
 60
1
370
-1
100
AcDbMText
 10
51.2973074059095
 20
-32.9564844008601
 30
0.0
 40
4.0
 41
102.526218401944
 44
1.0
 71
5
 72
5
  1
This table will be imported as an           Insert entity
  7
STANDARD
 73
0
 11
1.0
 21
0.0
 31
0.0
210
0.0
220
0.0
230
1.0
  0
MTEXT
  5
577
330
570
100
AcDbEntity
  8
LAYER1
  6
BYLAYER
 62
0
 48
1.0
 60
1
370
-1
100
AcDbMText
 10
17.0991024686365
 20
-39.402846031536
 30
0.0
 40
4.0
 41
34.1298085273984
 44
1.0
 71
2
 72
5
  1
cell text
  7
STANDARD
 73
0
 11
1.0
 21
0.0
 31
0.0
210
0.0
220
0.0
230
1.0
  0
MTEXT
  5
578
330
570
100
AcDbEntity
  8
LAYER1
  6
BYLAYER
 62
0
 48
1.0
 60
1
370
-1
100
AcDbMText
 10
51.2973074059095
 20
-39.402846031536
 30
0.0
 40
4.0
 41
34.1298085273984
 44
1.0
 71
2
 72
5
  1
cell text
  7
STANDARD
 73
0
 11
1.0
 21
0.0
 31
0.0
210
0.0
220
0.0
230
1.0
  0
MTEXT
  5
579
330
570
100
AcDbEntity
  8
LAYER1
  6
BYLAYER
 62
0
 48
1.0
 60
1
370
-1
100
AcDbMText
 10
85.4955123431824
 20
-39.402846031536
 30
0.0
 40
4.0
 41
34.1298085273984
 44
1.0
 71
2
 72
5
  1
cell text
  7
STANDARD
 73
0
 11
1.0
 21
0.0
 31
0.0
210
0.0
220
0.0
230
1.0
  0
LINE
  5
57A
330
570
100
AcDbEntity
  8
LAYER1
  6
BYBLOCK
 62
0
 48
1.0
 60
1
370
-1
100
AcDbLine
 10
0.0
 20
0.0
 30
0.0
 11
102.594614811819
 21
0.0
 31
0.0
 39
0.0
210
0.0
220
0.0
230
1.0
  0
LINE
  5
57B
330
570
100
AcDbEntity
  8
LAYER1
  6
BYBLOCK
 62
0
 48
1.0
 60
1
370
-1
100
AcDbLine
 10
0.0
 20
-7.49103536721217
 30
0.0
 11
102.594614811819
 21
-7.49103536721217
 31
0.0
 39
0.0
210
0.0
220
0.0
230
1.0
  0
LINE
  5
57C
330
570
100
AcDbEntity
  8
LAYER1
  6
BYBLOCK
 62
0
 48
1.0
 60
1
370
-1
100
AcDbLine
 10
0.0
 20
-13.8421305698486
 30
0.0
 11
102.594614811819
 21
-13.8421305698486
 31
0.0
 39
0.0
210
0.0
220
0.0
230
1.0
  0
LINE
  5
57D
330
570
100
AcDbEntity
  8
LAYER1
  6
BYBLOCK
 62
0
 48
1.0
 60
1
370
-1
100
AcDbLine
 10
0.0
 20
-20.193225772485
 30
0.0
 11
102.594614811819
 21
-20.193225772485
 31
0.0
 39
0.0
210
0.0
220
0.0
230
1.0
  0
LINE
  5
57E
330
570
100
AcDbEntity
  8
LAYER1
  6
BYBLOCK
 62
63
 48
1.0
 60
1
370
-1
100
AcDbLine
 10
0.0
 20
-26.5443209751214
 30
0.0
 11
102.594614811819
 21
-26.5443209751214
 31
0.0
 39
0.0
210
0.0
220
0.0
230
1.0
  0
LINE
  5
57F
330
570
100
AcDbEntity
  8
LAYER1
  6
BYBLOCK
 62
63
 48
1.0
 60
1
370
-1
100
AcDbLine
 10
0.0
 20
-39.3686478265987
 30
0.0
 11
34.198204937273
 21
-39.3686478265987
 31
0.0
 39
0.0
210
0.0
220
0.0
230
1.0
  0
LINE
  5
580
330
570
100
AcDbEntity
  8
LAYER1
  6
BYBLOCK
 62
0
 48
1.0
 60
1
370
-1
100
AcDbLine
 10
34.198204937273
 20
-39.3686478265987
 30
0.0
 11
102.594614811819
 21
-39.3686478265987
 31
0.0
 39
0.0
210
0.0
220
0.0
230
1.0
  0
LINE
  5
581
330
570
100
AcDbEntity
  8
LAYER1
  6
BYBLOCK
 62
0
 48
1.0
 60
1
370
-1
100
AcDbLine
 10
0.0
 20
-45.7197430292351
 30
0.0
 11
102.594614811819
 21
-45.7197430292351
 31
0.0
 39
0.0
210
0.0
220
0.0
230
1.0
  0
LINE
  5
582
330
570
100
AcDbEntity
  8
LAYER1
  6
BYBLOCK
 62
0
 48
1.0
 60
1
370
-1
100
AcDbLine
 10
0.0
 20
0.0
 30
0.0
 11
0.0
 21
-26.5443209751214
 31
0.0
 39
0.0
210
0.0
220
0.0
230
1.0
  0
LINE
  5
583
330
570
100
AcDbEntity
  8
LAYER1
  6
BYBLOCK
 62
63
 48
1.0
 60
1
370
-1
100
AcDbLine
 10
0.0
 20
-26.5443209751214
 30
0.0
 11
0.0
 21
-39.3686478265987
 31
0.0
 39
0.0
210
0.0
220
0.0
230
1.0
  0
LINE
  5
584
330
570
100
AcDbEntity
  8
LAYER1
  6
BYBLOCK
 62
0
 48
1.0
 60
1
370
-1
100
AcDbLine
 10
0.0
 20
-39.3686478265987
 30
0.0
 11
0.0
 21
-45.7197430292351
 31
0.0
 39
0.0
210
0.0
220
0.0
230
1.0
  0
LINE
  5
585
330
570
100
AcDbEntity
  8
LAYER1
  6
BYBLOCK
 62
0
 48
1.0
 60
1
370
-1
100
AcDbLine
 10
34.198204937273
 20
-7.49103536721217
 30
0.0
 11
34.198204937273
 21
-26.5443209751214
 31
0.0
 39
0.0
210
0.0
220
0.0
230
1.0
  0
LINE
  5
586
330
570
100
AcDbEntity
  8
LAYER1
  6
BYBLOCK
 62
0
 48
1.0
 60
1
370
-1
100
AcDbLine
 10
34.198204937273
 20
-39.3686478265987
 30
0.0
 11
34.198204937273
 21
-45.7197430292351
 31
0.0
 39
0.0
210
0.0
220
0.0
230
1.0
  0
LINE
  5
587
330
570
100
AcDbEntity
  8
LAYER1
  6
BYBLOCK
 62
0
 48
1.0
 60
1
370
-1
100
AcDbLine
 10
68.396409874546
 20
-7.49103536721217
 30
0.0
 11
68.396409874546
 21
-26.5443209751214
 31
0.0
 39
0.0
210
0.0
220
0.0
230
1.0
  0
LINE
  5
588
330
570
100
AcDbEntity
  8
LAYER1
  6
BYBLOCK
 62
0
 48
1.0
 60
1
370
-1
100
AcDbLine
 10
68.396409874546
 20
-39.3686478265987
 30
0.0
 11
68.396409874546
 21
-45.7197430292351
 31
0.0
 39
0.0
210
0.0
220
0.0
230
1.0
  0
LINE
  5
589
330
570
100
AcDbEntity
  8
LAYER1
  6
BYBLOCK
 62
0
 48
1.0
 60
1
370
-1
100
AcDbLine
 10
102.594614811819
 20
0.0
 30
0.0
 11
102.594614811819
 21
-26.5443209751214
 31
0.0
 39
0.0
210
0.0
220
0.0
230
1.0
  0
LINE
  5
58A
330
570
100
AcDbEntity
  8
LAYER1
  6
BYBLOCK
 62
63
 48
1.0
 60
1
370
-1
100
AcDbLine
 10
102.594614811819
 20
-26.5443209751214
 30
0.0
 11
102.594614811819
 21
-39.3686478265987
 31
0.0
 39
0.0
210
0.0
220
0.0
230
1.0
  0
LINE
  5
58B
330
570
100
AcDbEntity
  8
LAYER1
  6
BYBLOCK
 62
0
 48
1.0
 60
1
370
-1
100
AcDbLine
 10
102.594614811819
 20
-39.3686478265987
 30
0.0
 11
102.594614811819
 21
-45.7197430292351
 31
0.0
 39
0.0
210
0.0
220
0.0
230
1.0
  0
LINE
  5
58C
330
570
100
AcDbEntity
  8
DEFPOINTS
  6
BYLAYER
 62
8
 48
1.0
 60
0
370
-1
100
AcDbLine
 10
0.0
 20
0.0
 30
0.0
 11
0.0
 21
0.0
 31
0.0
 39
0.0
210
0.0
220
0.0
230
1.0
  0
ENDBLK
  5
58E
330
570
100
AcDbEntity
  8
0
100
AcDbBlockEnd
  0
BLOCK
  5
5AE
330
5AD
100
AcDbEntity
  8
0
  6
BYLAYER
 62
256
 48
1.0
 60
1
370
-1
100
AcDbBlockBegin
  2
*D10
 70
1
 10
0.0
 20
0.0
 30
0.0
  3
*D10
  0
LINE
  5
666
330
5AD
100
AcDbEntity
  8
LAYER1
  6
BYLAYER
 62
0
 48
1.0
 60
1
370
-1
100
AcDbLine
 10
588.432922398754
 20
44.4964111078467
 30
0.0
 11
579.504855195641
 21
35.5683439047341
 31
0.0
 39
0.0
210
0.0
220
0.0
230
1.0
  0
MTEXT
  5
667
330
5AD
100
AcDbEntity
  8
LAYER1
  6
BYLAYER
 62
0
 48
1.0
 60
1
370
-1
100
AcDbMText
 10
583.348482182394
 20
42.4205510740598
 30
0.0
 40
2.5
 41
0.0
 44
1.0
 71
5
 72
1
  1
R11,4
  7
STANDARD
 73
0
 11
0.70710678118655
 21
0.707106781186545
 31
0.0
210
0.0
220
0.0
230
1.0
  0
LINE
  5
668
330
5AD
100
AcDbEntity
  8
LAYER1
  6
BYLAYER
 62
0
 48
1.0
 60
1
370
-1
100
AcDbLine
 10
569.67649403749
 20
25.7399827465833
 30
0.0
 11
577.737088242675
 21
33.8005769517678
 31
0.0
 39
0.0
210
0.0
220
0.0
230
1.0
  0
SOLID
  5
669
330
5AD
100
AcDbEntity
  8
LAYER1
  6
BYLAYER
 62
0
 48
1.0
 60
1
370
-1
100
AcDbTrace
 10
579.210227370147
 20
35.8629717302285
 30
0.0
 11
579.799483021135
 21
35.2737160792397
 31
0.0
 12
577.737088242675
 22
33.8005769517678
 32
0.0
 13
577.737088242675
 23
33.8005769517678
 33
0.0
 39
0.0
210
0.0
220
0.0
230
1.0
  0
POINT
  5
66A
330
5AD
100
AcDbEntity
  8
DEFPOINTS
  6
BYLAYER
 62
0
 48
1.0
 60
1
370
-1
100
AcDbPoint
 10
577.737088242675
 20
33.8005769517678
 30
0.0
 39
0.0
210
0.0
220
0.0
230
1.0
 50
0.0
  0
POINT
  5
66B
330
5AD
100
AcDbEntity
  8
DEFPOINTS
  6
BYLAYER
 62
0
 48
1.0
 60
1
370
-1
100
AcDbPoint
 10
569.67649403749
 20
25.7399827465833
 30
0.0
 39
0.0
210
0.0
220
0.0
230
1.0
 50
0.0
  0
ENDBLK
  5
5AF
330
5AD
100
AcDbEntity
  8
0
100
AcDbBlockEnd
  0
BLOCK
  5
5B7
330
5B6
100
AcDbEntity
  8
0
  6
BYLAYER
 62
256
 48
1.0
 60
1
370
-1
100
AcDbBlockBegin
  2
*D11
 70
1
 10
0.0
 20
0.0
 30
0.0
  3
*D11
  0
LINE
  5
64A
330
5B6
100
AcDbEntity
  8
LAYER1
  6
BYLAYER
 62
0
 48
1.0
 60
1
370
-1
100
AcDbLine
 10
621.442431324941
 20
25.7399827465833
 30
0.0
 11
646.972305557794
 21
25.7399827465833
 31
0.0
 39
0.0
210
0.0
220
0.0
230
1.0
  0
MTEXT
  5
64B
330
5B6
102
{ACAD_XDICTIONARY
360
C17
102
}
100
AcDbEntity
  8
LAYER1
  6
BYLAYER
 62
0
 48
1.0
 60
1
370
-1
100
AcDbMText
 10
626.673502266278
 20
27.9082978898302
 30
0.0
 40
2.5
 41
0.0
 44
1.0
 71
5
 72
1
  1
\U+220545,6
  7
STANDARD
 73
0
 11
1.0
 21
0.0
 31
0.0
210
0.0
220
0.0
230
1.0
  0
SOLID
  5
64C
330
5B6
100
AcDbEntity
  8
LAYER1
  6
BYLAYER
 62
0
 48
1.0
 60
1
370
-1
100
AcDbTrace
 10
646.972305557794
 20
26.15664941325
 30
0.0
 11
646.972305557794
 21
25.3233160799166
 31
0.0
 12
649.472305557794
 22
25.7399827465833
 32
0.0
 13
649.472305557794
 23
25.7399827465833
 33
0.0
 39
0.0
210
0.0
220
0.0
230
1.0
  0
POINT
  5
64D
330
5B6
100
AcDbEntity
  8
DEFPOINTS
  6
BYLAYER
 62
0
 48
1.0
 60
1
370
-1
100
AcDbPoint
 10
649.472305557794
 20
25.7399827465833
 30
0.0
 39
0.0
210
0.0
220
0.0
230
1.0
 50
0.0
  0
POINT
  5
64E
330
5B6
100
AcDbEntity
  8
DEFPOINTS
  6
BYLAYER
 62
0
 48
1.0
 60
1
370
-1
100
AcDbPoint
 10
603.874698974763
 20
25.7399827465833
 30
0.0
 39
0.0
210
0.0
220
0.0
230
1.0
 50
0.0
  0
ENDBLK
  5
5B8
330
5B6
100
AcDbEntity
  8
0
100
AcDbBlockEnd
  0
BLOCK
  5
6F4
330
6F2
100
AcDbEntity
  8
0
  6
BYLAYER
 62
256
 48
1.0
 60
1
370
-1
100
AcDbBlockBegin
  2
MYBLOCK
 70
0
 10
0.0
 20
0.0
 30
0.0
  3
MYBLOCK
  0
LINE
  5
6F5
330
6F2
100
AcDbEntity
  8
0
  6
BYLAYER
 62
256
 48
1.0
 60
1
370
-1
100
AcDbLine
 10
-40.0
 20
-40.0
 30
0.0
 11
40.0
 21
40.0
 31
0.0
 39
0.0
210
0.0
220
0.0
230
1.0
  0
LINE
  5
6F6
330
6F2
100
AcDbEntity
  8
0
  6
BYLAYER
 62
256
 48
1.0
 60
1
370
-1
100
AcDbLine
 10
-40.0
 20
40.0
 30
0.0
 11
40.0
 21
-40.0
 31
0.0
 39
0.0
210
0.0
220
0.0
230
1.0
  0
CIRCLE
  5
6F7
330
6F2
100
AcDbEntity
  8
0
  6
BYLAYER
 62
256
 48
1.0
 60
1
370
-1
100
AcDbCircle
 10
0.0
 20
0.0
 30
0.0
 39
0.0
 40
30.0
210
0.0
220
0.0
230
1.0
  0
ATTDEF
  5
6F8
330
6F2
100
AcDbEntity
  8
0
  6
BYLAYER
 62
256
 48
1.0
 60
1
370
-1
100
AcDbText
  1
1
 10
0.0
 20
0.0
 30
0.0
 40
5.0
210
0.0
220
0.0
230
1.0
100
AcDbAttributeDefinition
  3
Enter number:
  2
ATTINFO
 70
0
 73
0
  0
ENDBLK
  5
6F9
330
6F2
100
AcDbEntity
  8
0
100
AcDbBlockEnd
  0
BLOCK
  5
780
330
77F
100
AcDbEntity
  8
0
  6
BYLAYER
 62
256
 48
1.0
 60
1
370
-1
100
AcDbBlockBegin
  2
MY_BLOCK_V2
 70
0
 10
0.0
 20
0.0
 30
0.0
  3
MY_BLOCK_V2
  0
LWPOLYLINE
  5
782
330
77F
100
AcDbEntity
  8
0
  6
BYLAYER
 62
256
 48
1.0
 60
1
370
-1
100
AcDbPolyline
 90
7
 70
1
 38
0.0
 39
0.0
 10
962.400505310526
 20
0.361304862823909
 40
0.0
 41
0.0
 42
0.0
 10
960.206653451059
 20
1.79288966738087
 40
0.0
 41
0.0
 42
-0.799559496789356
 10
961.214034405708
 20
4.49947974778114
 40
0.0
 41
0.0
 42
0.543861678943975
 10
962.825843836815
 20
6.37843480719895
 40
0.0
 41
0.0
 42
-2.84437747740574
 10
964.885378323965
 20
4.94685000264199
 40
0.0
 41
0.0
 42
0.718750983852531
 10
964.101859776925
 20
1.94946925108329
 40
0.0
 41
0.0
 42
0.273793837963669
 10
963.061297025563
 20
1.33349456126218
 40
0.0
 41
0.0
 42
-0.0476105397037214
210
0.0
220
0.0
230
1.0
  0
ATTDEF
  5
796
330
77F
102
{ACAD_XDICTIONARY
360
AE9
102
}
100
AcDbEntity
  8
0
  6
BYLAYER
 62
256
 48
1.0
 60
1
370
-1
100
AcDbText
  1

 10
954.807477957349
 20
5.98387238639042
 30
0.0
 40
0.410546356340082
210
0.0
220
0.0
230
1.0
100
AcDbAttributeDefinition
  3
this is an example of prompt
  2
MULTI_LINE_ATT
 70
0
 73
0
 74
3
  0
ATTDEF
  5
797
330
77F
100
AcDbEntity
  8
0
  6
BYLAYER
 62
256
 48
1.0
 60
1
370
-1
100
AcDbText
  1

 10
958.929706104188
 20
9.48634387968891
 30
0.0
 40
0.410546356340082
210
0.0
220
0.0
230
1.0
100
AcDbAttributeDefinition
  3
a preset prompt
  2
PRESET_ATT
 70
8
 73
0
 74
3
  0
ATTDEF
  5
798
330
77F
100
AcDbEntity
  8
0
  6
BYLAYER
 62
256
 48
1.0
 60
1
370
-1
100
AcDbText
  1

 10
954.602287032648
 20
2.3530699782608
 30
0.0
 40
0.410546356340082
210
0.0
220
0.0
230
1.0
100
AcDbAttributeDefinition
  3

  2
CONSTANT_ATT
 70
2
 73
0
  0
ATTDEF
  5
799
330
77F
100
AcDbEntity
  8
0
  6
BYLAYER
 62
256
 48
1.0
 60
1
370
-1
100
AcDbText
  1

 10
957.051921492461
 20
-0.0946016018677529
 30
0.0
 40
0.410546356340082
210
0.0
220
0.0
230
1.0
100
AcDbAttributeDefinition
  3
verify_prompt
  2
VERIFY_ATT
 70
4
 73
0
  0
ENDBLK
  5
781
330
77F
100
AcDbEntity
  8
0
100
AcDbBlockEnd
  0
BLOCK
  5
20
330
1F
100
AcDbEntity
  8
0
  6
BYLAYER
 62
256
 48
1.0
 60
1
370
-1
100
AcDbBlockBegin
  2
*MODEL_SPACE
 70
0
 10
0.0
 20
0.0
 30
0.0
  3
*MODEL_SPACE
  0
POINT
  5
28E
330
1F
100
AcDbEntity
  8
0
  6
BYLAYER
 62
256
 48
1.0
 60
1
370
-1
100
AcDbPoint
 10
1.49440415013685
 20
1.49132589867844
 30
0.0
 39
0.0
210
0.0
220
0.0
230
1.0
 50
0.0
  0
POINT
  5
298
330
1F
100
AcDbEntity
  8
0
  6
BYBLOCK
 62
0
 48
1.0
 60
1
370
-1
100
AcDbPoint
 10
1.49440415013685
 20
2.24147314439643
 30
0.0
 39
0.0
210
0.0
220
0.0
230
1.0
 50
0.0
  0
POINT
  5
299
330
1F
100
AcDbEntity
  8
LAYER_LOCK
  6
CONTINUOUS
 62
2
 48
1.0
 60
1
370
-1
100
AcDbPoint
 10
1.49440415013685
 20
3.00501584581972
 30
0.0
 39
0.0
210
0.0
220
0.0
230
1.0
 50
0.0
  0
POINT
  5
29A
330
1F
100
AcDbEntity
  8
0
  6
BYLAYER
 62
230
 48
2.0
 60
1
370
-1
100
AcDbPoint
 10
1.49440415013685
 20
3.71497661786495
 30
0.0
 39
0.0
210
0.0
220
0.0
230
1.0
 50
0.0
  0
POINT
  5
29B
330
1F
100
AcDbEntity
  8
0
  6
ACAD_ISO02W100
 62
256
 48
1.0
 60
1
370
-1
100
AcDbPoint
 10
1.49440415013685
 20
4.4115419128935
 30
0.0
 39
0.0
210
0.0
220
0.0
230
1.0
 50
0.0
  0
POINT
  5
29C
330
1F
100
AcDbEntity
  8
0
  6
BYLAYER
 62
7
 48
1.0
 60
1
370
-1
100
AcDbPoint
 10
1.49440415013685
 20
5.12150268493873
 30
0.0
 39
0.0
210
0.0
220
0.0
230
1.0
 50
0.0
  0
LINE
  5
2C7
330
1F
100
AcDbEntity
  8
0
  6
BYLAYER
 62
256
 48
1.0
 60
1
370
-1
100
AcDbLine
 10
3.59253399890939
 20
1.4772418961802
 30
0.0
 11
6.86354703397956
 21
1.4772418961802
 31
0.0
 39
0.0
210
0.0
220
0.0
230
1.0
  0
LINE
  5
2CF
330
1F
100
AcDbEntity
  8
0
  6
ACAD_ISO02W100
 62
3
 48
1.0
 60
1
370
-1
100
AcDbLine
 10
3.59253399890939
 20
2.29771004708093
 30
0.0
 11
6.86354703397956
 21
2.29771004708093
 31
0.0
 39
0.0
210
0.0
220
0.0
230
1.0
  0
LWPOLYLINE
  5
2E2
330
1F
100
AcDbEntity
  8
0
  6
BYLAYER
 62
256
 48
1.0
 60
1
370
-1
100
AcDbPolyline
 90
5
 70
0
 38
0.0
 39
0.0
 10
12.1405161954316
 20
1.37983119435663
 40
0.0
 41
0.0
 42
0.0
 10
10.9463776085586
 20
4.05346711062759
 40
0.0
 41
0.0
 42
0.0
 10
12.7818129554314
 20
5.04779447978565
 40
0.0
 41
0.0
 42
0.0
 10
15.3248860815288
 20
3.25800519330564
 40
0.0
 41
0.0
 42
0.0
 10
12.914494993881
 20
2.77188957716444
 40
0.0
 41
0.0
 42
0.0
210
0.0
220
0.0
230
1.0
  0
LWPOLYLINE
  5
2E3
330
1F
100
AcDbEntity
  8
0
  6
BYLAYER
 62
256
 48
1.0
 60
1
370
-1
100
AcDbPolyline
 90
7
 70
1
 38
0.0
 39
0.0
 10
19.3656302580073
 20
1.79741645278733
 40
0.0
 41
0.0
 42
0.0
 10
17.6319178313619
 20
3.60046347638152
 40
0.0
 41
0.0
 42
0.0
 10
20.6393782124462
 20
5.65098756291582
 40
0.0
 41
0.0
 42
0.0
 10
22.7976732102957
 20
4.09541754727298
 40
0.0
 41
0.0
 42
0.0
 10
21.5239253762702
 20
2.75197077556918
 40
0.0
 41
0.0
 42
0.0
 10
22.939200814306
 20
1.9388319487467
 40
0.0
 41
0.0
 42
0.0
 10
21.5593071568594
 20
0.383261933103853
 40
0.0
 41
0.0
 42
0.0
210
0.0
220
0.0
230
1.0
  0
LWPOLYLINE
  5
2E4
330
1F
100
AcDbEntity
  8
0
  6
BYLAYER
 62
256
 48
1.0
 60
1
370
-1
100
AcDbPolyline
 90
7
 70
1
 38
0.0
 39
0.0
 10
28.0056368441282
 20
0.361304862823907
 40
0.0
 41
0.0
 42
0.0
 10
25.8117849846613
 20
1.79288966738087
 40
0.0
 41
0.0
 42
-0.799559496789356
 10
26.8191659393103
 20
4.49947974778114
 40
0.0
 41
0.0
 42
0.543861678943975
 10
28.4309753704178
 20
6.37843480719895
 40
0.0
 41
0.0
 42
-2.84437747740574
 10
30.4905098575679
 20
4.94685000264199
 40
0.0
 41
0.0
 42
0.718750983852531
 10
29.7069913105269
 20
1.94946925108329
 40
0.0
 41
0.0
 42
0.273793837963669
 10
28.666428559166
 20
1.33349456126217
 40
0.0
 41
0.0
 42
-0.0476105397037214
210
0.0
220
0.0
230
1.0
  0
LWPOLYLINE
  5
2E5
330
1F
100
AcDbEntity
  8
0
  6
BYLAYER
 62
256
 48
1.0
 60
1
370
-1
100
AcDbPolyline
 90
5
 70
0
 38
0.0
 39
0.0
 10
35.3008317241206
 20
5.70074568984457
 40
0.0
 41
0.0
 42
2.12777622037806
 10
39.6519677112644
 20
5.70074568984457
 40
0.0
 41
0.0
 42
0.307935849143464
 10
38.3466269030799
 20
11.099127218258
 40
0.0
 41
0.0
 42
0.0
 10
35.6634263395437
 20
8.74412856049466
 40
0.0
 41
0.0
 42
0.0
 10
38.0464184504254
 20
8.33006720230919
 40
3.66960951761941
 41
5.08056392803054
 42
0.0
210
0.0
220
0.0
230
1.0
  0
CIRCLE
  5
31F
330
1F
100
AcDbEntity
  8
0
  6
BYLAYER
 62
256
 48
1.0
 60
1
370
-1
100
AcDbCircle
 10
46.8724783614526
 20
6.6729639639462
 30
0.0
 39
0.0
 40
3.68248095158793
210
0.0
220
0.0
230
1.0
  0
ARC
  5
320
330
1F
100
AcDbEntity
  8
0
  6
BYLAYER
 62
256
 48
1.0
 60
1
370
-1
100
AcDbCircle
 10
56.3517924259523
 20
4.69760173251888
 30
0.0
 39
0.0
 40
3.04449439059889
210
0.0
220
0.0
230
1.0
100
AcDbArc
 50
341.043545351196
 51
161.043545351196
  0
ELLIPSE
  5
321
330
1F
100
AcDbEntity
  8
0
  6
BYLAYER
 62
256
 48
1.0
 60
1
370
-1
100
AcDbEllipse
 10
68.000516893537
 20
4.18521049735528
 30
0.0
 11
-5.10125530629179
 21
0.0
 31
0.0
210
0.0
220
0.0
230
1.0
 39
0.0
 40
0.640372738515538
 41
0.0
 42
6.28318530717959
  0
3DFACE
  5
322
330
1F
100
AcDbEntity
  8
0
  6
BYLAYER
 62
256
 48
1.0
 60
1
370
-1
100
AcDbFace
 10
75.0394178539563
 20
8.05039238222594
 30
0.0
 11
80.721041570185
 21
8.05039238222594
 31
0.0
 12
82.1904270902043
 22
1.49233563275085
 32
0.0
 13
76.606762425968
 23
1.49233563275085
 33
0.0
 70
0
  0
LWPOLYLINE
  5
353
330
1F
100
AcDbEntity
  8
0
  6
BYLAYER
 62
256
 48
1.0
 60
1
370
-1
100
AcDbPolyline
 90
4
 70
1
 38
0.0
 39
0.0
 10
102.745761602892
 20
0.0853177934775715
 40
0.0
 41
0.0
 42
0.0
 10
123.19908748479
 20
0.0853177934775715
 40
0.0
 41
0.0
 42
0.0
 10
123.19908748479
 20
13.7100687448263
 40
0.0
 41
0.0
 42
0.0
 10
102.745761602892
 20
13.7100687448263
 40
0.0
 41
0.0
 42
0.0
210
0.0
220
0.0
230
1.0
  0
HATCH
  5
35A
330
1F
100
AcDbEntity
  8
0
  6
BYLAYER
 62
256
 48
1.0
 60
1
370
-1
100
AcDbHatch
 10
0.0
 20
0.0
 30
0.0
210
0.0
220
0.0
230
1.0
  2
ANSI31
 70
0
 71
1
 91
1
 92
1
 93
4
 72
1
 10
102.745761602892
 20
0.0853177934775715
 11
123.19908748479
 21
0.0853177934775715
 72
1
 10
123.19908748479
 20
0.0853177934775715
 11
123.19908748479
 21
13.7100687448263
 72
1
 10
123.19908748479
 20
13.7100687448263
 11
102.745761602892
 21
13.7100687448263
 72
1
 10
102.745761602892
 20
13.7100687448263
 11
102.745761602892
 21
0.0853177934775715
 97
1
330
353
 75
1
 76
1
 52
0.0
 41
1.0
 77
0
 78
1
 53
45.0
 43
2.75038172371808
 44
0.0
 45
-0.0883883476483184
 46
0.0883883476483184
 79
0
 98
1
 10
2.75038172371808
 20
0.0
  0
LWPOLYLINE
  5
35B
330
1F
100
AcDbEntity
  8
0
  6
BYLAYER
 62
256
 48
1.0
 60
1
370
-1
100
AcDbPolyline
 90
5
 70
0
 38
0.0
 39
0.0
 10
12.1405161954316
 20
7.49931616368043
 40
0.2
 41
0.1
 42
0.0
 10
10.9463776085586
 20
10.1729520799514
 40
0.0
 41
0.0
 42
0.0
 10
12.7818129554314
 20
11.1672794491094
 40
0.0
 41
0.0
 42
0.0
 10
15.6844771244563
 20
8.91632950439668
 40
0.0
 41
0.0
 42
0.0
 10
13.2740860368084
 20
8.43021388825549
 40
0.1
 41
0.5
 42
0.0
210
0.0
220
0.0
230
1.0
  0
LWPOLYLINE
  5
36C
330
1F
100
AcDbEntity
  8
0
  6
BYLAYER
 62
256
 48
1.0
 60
1
370
-1
100
AcDbPolyline
 90
4
 70
1
 38
0.0
 39
0.0
 10
102.745761602892
 20
17.3141306084723
 40
0.0
 41
0.0
 42
0.0
 10
123.19908748479
 20
17.3141306084723
 40
0.0
 41
0.0
 42
0.0
 10
123.19908748479
 20
30.938881559821
 40
0.0
 41
0.0
 42
0.0
 10
102.745761602892
 20
30.938881559821
 40
0.0
 41
0.0
 42
0.0
210
0.0
220
0.0
230
1.0
  0
HATCH
  5
36E
330
1F
100
AcDbEntity
  8
0
  6
BYLAYER
 62
256
 48
1.0
 60
1
370
-1
100
AcDbHatch
 10
0.0
 20
0.0
 30
0.0
210
0.0
220
0.0
230
1.0
  2
AR-PARQ1
 70
0
 71
1
 91
1
 92
1
 93
4
 72
1
 10
102.745761602892
 20
17.3141306084723
 11
123.19908748479
 21
17.3141306084723
 72
1
 10
123.19908748479
 20
17.3141306084723
 11
123.19908748479
 21
30.938881559821
 72
1
 10
123.19908748479
 20
30.938881559821
 11
102.745761602892
 21
30.938881559821
 72
1
 10
102.745761602892
 20
30.938881559821
 11
102.745761602892
 21
17.3141306084723
 97
1
330
36C
 75
1
 76
1
 52
0.0
 41
1.0
 77
0
 78
14
 53
90.0
 43
0.0
 44
0.0
 45
-12.0
 46
12.0
 79
2
 49
12.0
 49
-12.0
 53
90.0
 43
2.0
 44
0.0
 45
-12.0
 46
12.0
 79
2
 49
12.0
 49
-12.0
 53
90.0
 43
4.0
 44
0.0
 45
-12.0
 46
12.0
 79
2
 49
12.0
 49
-12.0
 53
90.0
 43
6.0
 44
0.0
 45
-12.0
 46
12.0
 79
2
 49
12.0
 49
-12.0
 53
90.0
 43
8.0
 44
0.0
 45
-12.0
 46
12.0
 79
2
 49
12.0
 49
-12.0
 53
90.0
 43
10.0
 44
0.0
 45
-12.0
 46
12.0
 79
2
 49
12.0
 49
-12.0
 53
90.0
 43
12.0
 44
0.0
 45
-12.0
 46
12.0
 79
2
 49
12.0
 49
-12.0
 53
0.0
 43
0.0
 44
12.0
 45
12.0
 46
-12.0
 79
2
 49
12.0
 49
-12.0
 53
0.0
 43
0.0
 44
14.0
 45
12.0
 46
-12.0
 79
2
 49
12.0
 49
-12.0
 53
0.0
 43
0.0
 44
16.0
 45
12.0
 46
-12.0
 79
2
 49
12.0
 49
-12.0
 53
0.0
 43
0.0
 44
18.0
 45
12.0
 46
-12.0
 79
2
 49
12.0
 49
-12.0
 53
0.0
 43
0.0
 44
20.0
 45
12.0
 46
-12.0
 79
2
 49
12.0
 49
-12.0
 53
0.0
 43
0.0
 44
22.0
 45
12.0
 46
-12.0
 79
2
 49
12.0
 49
-12.0
 53
0.0
 43
0.0
 44
24.0
 45
12.0
 46
-12.0
 79
2
 49
12.0
 49
-12.0
 98
1
 10
0.0
 20
0.0
  0
LWPOLYLINE
  5
36F
330
1F
100
AcDbEntity
  8
0
  6
BYLAYER
 62
256
 48
1.0
 60
1
370
-1
100
AcDbPolyline
 90
4
 70
1
 38
0.0
 39
0.0
 10
102.745761602892
 20
33.4672114995504
 40
0.0
 41
0.0
 42
0.0
 10
123.19908748479
 20
33.4672114995504
 40
0.0
 41
0.0
 42
0.0
 10
123.19908748479
 20
47.0919624508991
 40
0.0
 41
0.0
 42
0.0
 10
102.745761602892
 20
47.0919624508991
 40
0.0
 41
0.0
 42
0.0
210
0.0
220
0.0
230
1.0
  0
HATCH
  5
371
330
1F
102
{ACAD_XDICTIONARY
360
BCE
102
}
100
AcDbEntity
  8
0
  6
BYLAYER
 62
5
 48
1.0
 60
1
370
-1
100
AcDbHatch
 10
0.0
 20
0.0
 30
0.0
210
0.0
220
0.0
230
1.0
  2
SOLID,_O
 70
1
 71
1
 91
1
 92
1
 93
4
 72
1
 10
102.745761602892
 20
33.4672114995504
 11
123.19908748479
 21
33.4672114995504
 72
1
 10
123.19908748479
 20
33.4672114995504
 11
123.19908748479
 21
47.0919624508991
 72
1
 10
123.19908748479
 20
47.0919624508991
 11
102.745761602892
 21
47.0919624508991
 72
1
 10
102.745761602892
 20
47.0919624508991
 11
102.745761602892
 21
33.4672114995504
 97
1
330
36F
 75
1
 76
1
 98
1
 10
0.0
 20
0.0
  0
LWPOLYLINE
  5
372
330
1F
100
AcDbEntity
  8
0
  6
BYLAYER
 62
256
 48
1.0
 60
1
370
-1
100
AcDbPolyline
 90
4
 70
1
 38
0.0
 39
0.0
 10
102.745761602892
 20
49.5096547418996
 40
0.0
 41
0.0
 42
0.0
 10
123.19908748479
 20
49.5096547418996
 40
0.0
 41
0.0
 42
0.0
 10
123.19908748479
 20
63.1344056932483
 40
0.0
 41
0.0
 42
0.0
 10
102.745761602892
 20
63.1344056932483
 40
0.0
 41
0.0
 42
0.0
210
0.0
220
0.0
230
1.0
  0
HATCH
  5
376
330
1F
102
{ACAD_XDICTIONARY
360
BD0
102
}
100
AcDbEntity
  8
0
  6
BYLAYER
 62
5
 48
1.0
 60
1
370
-1
100
AcDbHatch
 10
0.0
 20
0.0
 30
0.0
210
0.0
220
0.0
230
1.0
  2
SOLID,_O
 70
1
 71
1
 91
1
 92
1
 93
4
 72
1
 10
102.745761602892
 20
49.5096547418996
 11
123.19908748479
 21
49.5096547418996
 72
1
 10
123.19908748479
 20
49.5096547418996
 11
123.19908748479
 21
63.1344056932483
 72
1
 10
123.19908748479
 20
63.1344056932483
 11
102.745761602892
 21
63.1344056932483
 72
1
 10
102.745761602892
 20
63.1344056932483
 11
102.745761602892
 21
49.5096547418996
 97
1
330
372
 75
1
 76
1
 98
1
 10
0.0
 20
0.0
  0
XLINE
  5
389
330
1F
100
AcDbEntity
  8
0
  6
BYLAYER
 62
256
 48
1.0
 60
1
370
-1
100
AcDbXline
 10
-6.80568835837437
 20
-5.11057303876828
 30
0.0
 11
0.0
 21
1.0
 31
0.0
  0
RAY
  5
38A
330
1F
100
AcDbEntity
  8
0
  6
BYLAYER
 62
256
 48
1.0
 60
1
370
-1
100
AcDbRay
 10
-15.4176098639582
 20
-4.20354218647213
 30
0.0
 11
0.0
 21
1.0
 31
0.0
  0
MLINE
  5
38B
330
1F
100
AcDbEntity
  8
0
  6
BYLAYER
 62
256
 48
1.0
 60
1
370
-1
100
AcDbMline
  2
STANDARD
340
18
 40
1.5
 70
1
 71
1
 72
8
 73
2
 10
137.828615337973
 20
1.01457844964628
 30
0.0
210
0.0
220
0.0
230
1.0
 11
137.828615337973
 21
1.01457844964628
 31
0.0
 12
0.0
 22
1.0
 32
0.0
 13
-1.0
 23
0.0000000000000001
 33
0.0
 74
2
 41
0.75
 41
0.0
 75
0
 74
2
 41
-0.75
 41
0.0
 75
0
 11
137.828615337973
 21
8.93172710492843
 31
0.0
 12
1.0
 22
0.0
 32
0.0
 13
-0.707106781186547
 23
0.707106781186548
 33
0.0
 74
2
 41
1.06066017177982
 41
0.0
 75
0
 74
2
 41
-1.06066017177982
 41
0.0
 75
0
 11
142.14912813203
 21
8.93172710492843
 31
0.0
 12
0.0
 22
1.0
 32
0.0
 13
-0.707106781186547
 23
0.707106781186548
 33
0.0
 74
2
 41
1.06066017177982
 41
0.0
 75
0
 74
2
 41
-1.06066017177982
 41
0.0
 75
0
 11
142.14912813203
 21
14.182719629951
 31
0.0
 12
-1.0
 22
0.0000000000000002
 32
0.0
 13
-0.707106781186548
 23
-0.707106781186548
 33
0.0
 74
2
 41
1.06066017177982
 41
0.0
 75
0
 74
2
 41
-1.06066017177982
 41
0.0
 75
0
 11
133.616597846833
 21
14.182719629951
 31
0.0
 12
0.0
 22
1.0
 32
0.0
 13
-0.707106781186548
 23
-0.707106781186548
 33
0.0
 74
2
 41
1.06066017177982
 41
0.0
 75
0
 74
2
 41
-1.06066017177982
 41
0.0
 75
0
 11
133.616597846833
 21
20.0234272312665
 31
0.0
 12
1.0
 22
0.0
 32
0.0
 13
-0.707106781186547
 23
0.707106781186548
 33
0.0
 74
2
 41
1.06066017177982
 41
0.0
 75
0
 74
2
 41
-1.06066017177982
 41
0.0
 75
0
 11
141.608640949161
 21
20.0234272312665
 31
0.0
 12
0.0
 22
1.0
 32
0.0
 13
-0.707106781186547
 23
0.707106781186548
 33
0.0
 74
2
 41
1.06066017177982
 41
0.0
 75
0
 74
2
 41
-1.06066017177982
 41
0.0
 75
0
 11
141.608640949161
 21
26.682650090512
 31
0.0
 12
0.0
 22
1.0
 32
0.0
 13
-1.0
 23
0.0000000000000001
 33
0.0
 74
2
 41
0.75
 41
0.0
 75
0
 74
2
 41
-0.75
 41
0.0
 75
0
  0
MLINE
  5
3A5
330
1F
100
AcDbEntity
  8
LAYER_TRUE_COLOR
  6
BYLAYER
 62
256
 48
1.0
 60
1
370
-1
100
AcDbMline
  2
STANDARD
340
18
 40
2.13094331641872
 70
0
 71
1
 72
2
 73
2
 10
132.546887891034
 20
37.5406345497555
 30
0.0
210
0.0
220
0.0
230
1.0
 11
132.546887891034
 21
37.5406345497555
 31
0.0
 12
0.0
 22
1.0
 32
0.0
 13
-1.0
 23
0.0000000000000001
 33
0.0
 74
2
 41
0.0
 41
0.0
 75
0
 74
4
 41
-2.13094331641872
 41
0.0
 41
3.46278288918042
 41
5.06099037649447
 75
0
 11
132.546887891034
 21
46.0644078154304
 31
0.0
 12
0.0
 22
1.0
 32
0.0
 13
-1.0
 23
0.0000000000000001
 33
0.0
 74
2
 41
0.0
 41
0.0
 75
0
 74
2
 41
-2.13094331641872
 41
0.0
 75
0
  0
MLINE
  5
3A6
330
1F
100
AcDbEntity
  8
LAYER_TRUE_COLOR
  6
BYLAYER
 62
256
 48
1.0
 60
1
370
-1
100
AcDbMline
  2
STANDARD
340
18
 40
1.59820748731404
 70
1
 71
1
 72
2
 73
2
 10
132.546887891034
 20
41.8025211825929
 30
0.0
210
0.0
220
0.0
230
1.0
 11
132.546887891034
 21
41.8025211825929
 31
0.0
 12
1.0
 22
0.0
 32
0.0
 13
0.0000000000000002
 23
1.0
 33
0.0
 74
2
 41
0.799103743657021
 41
2.13094331641872
 75
0
 74
2
 41
-0.799103743657021
 41
2.13094331641872
 75
0
 11
141.070661156709
 21
41.8025211825929
 31
0.0
 12
1.0
 22
0.0
 32
0.0
 13
0.0000000000000002
 23
1.0
 33
0.0
 74
2
 41
0.799103743657021
 41
0.0
 75
0
 74
2
 41
-0.799103743657021
 41
0.0
 75
0
  0
TEXT
  5
3B9
330
1F
100
AcDbEntity
  8
0
  6
BYLAYER
 62
256
 48
1.0
 60
1
370
-1
100
AcDbText
  1
Hello this is a single line text
 10
147.81944711946
 20
2.85497529980876
 30
0.0
 40
1.0
210
0.0
220
0.0
230
1.0
100
AcDbText
  0
TEXT
  5
3BA
330
1F
102
{ACAD_XDICTIONARY
360
3C3
102
}
100
AcDbEntity
  8
0___1
  6
BYLAYER
 62
256
 48
1.0
 60
1
370
-1
100
AcDbText
  1
Hello this is a single line text
 10
147.81944711946
 20
10.3257405013127
 30
0.0
 40
1.0
210
0.0
220
0.0
230
1.0
100
AcDbText
  0
TEXT
  5
3CF
330
1F
100
AcDbEntity
  8
0
  6
BYLAYER
 62
256
 48
1.0
 60
1
370
-1
100
AcDbText
  1
Hello this is a single line text
 10
147.81944711946
 20
17.2787300802819
 30
0.0
 40
1.0
210
0.0
220
0.0
230
1.0
100
AcDbText
  0
TEXT
  5
3D0
330
1F
102
{ACAD_XDICTIONARY
360
3D1
102
}
100
AcDbEntity
  8
0
  6
BYLAYER
 62
256
 48
1.0
 60
1
370
-1
100
AcDbText
  1
Hello this is a single line text
 10
147.81944711946
 20
24.7494952817858
 30
0.0
 40
1.0
210
0.0
220
0.0
230
1.0
100
AcDbText
  0
MTEXT
  5
3EC
330
1F
102
{ACAD_XDICTIONARY
360
BDC
102
}
100
AcDbEntity
  8
0
  6
BYLAYER
 62
256
 48
1.0
 60
1
370
-1
100
AcDbMText
 10
183.588928079041
 20
5.22637071841314
 30
0.0
 40
1.0
 41
15.7414142449875
 44
1.0
 71
1
 72
5
  1
this is a Mtext\Pwith multiple lines in it
  7
STANDARD
 73
0
 11
1.0
 21
0.0
 31
0.0
210
0.0
220
0.0
230
1.0
  0
MTEXT
  5
3F5
330
1F
102
{ACAD_XDICTIONARY
360
BDE
102
}
100
AcDbEntity
  8
0
  6
BYLAYER
 62
256
 48
1.0
 60
1
370
-1
100
AcDbMText
 10
183.588928079041
 20
9.18755635632726
 30
0.0
 40
1.0
 41
15.7414142449875
 44
1.0
 71
1
 72
3
  1
this is a Mtext\Pwith multiple lines in it
  7
STANDARD
 73
0
 11
1.0
 21
0.0
 31
0.0
210
0.0
220
0.0
230
1.0
  0
MTEXT
  5
3F6
330
1F
102
{ACAD_XDICTIONARY
360
BE0
102
}
100
AcDbEntity
  8
0
  6
BYLAYER
 62
256
 48
1.0
 60
1
370
-1
100
AcDbMText
 10
199.330342324029
 20
15.3261017448291
 30
0.0
 40
1.0
 41
15.7414142449875
 44
1.0
 71
6
 72
1
  1
this is a Mtext\Pwith multiple lines in it
  7
STANDARD
 73
0
 11
1.0
 21
0.0
 31
0.0
210
0.0
220
0.0
230
1.0
  0
POLYLINE
  5
422
330
1F
100
AcDbEntity
  8
0
  6
BYLAYER
 62
256
 48
1.0
 60
1
370
-1
100
AcDbPolyFaceMesh
 10
0.0
 20
0.0
 30
0.0
 70
0
 75
0
210
0.0
220
0.0
230
1.0
  0
VERTEX
  5
423
330
422
100
AcDbEntity
  8
0
  6
BYLAYER
 62
256
 48
1.0
 60
1
370
-1
100
AcDbVertex
100
AcDbPolyFaceMeshVertex
 10
213.692028984871
 20
2.25286706307065
 30
0.0
 70
192
 50
0.0
  0
VERTEX
  5
424
330
422
100
AcDbEntity
  8
0
  6
BYLAYER
 62
256
 48
1.0
 60
1
370
-1
100
AcDbVertex
100
AcDbPolyFaceMeshVertex
 10
222.457789311651
 20
3.34858710391815
 30
0.0
 70
192
 50
0.0
  0
VERTEX
  5
425
330
422
100
AcDbEntity
  8
0
  6
BYLAYER
 62
256
 48
1.0
 60
1
370
-1
100
AcDbVertex
100
AcDbPolyFaceMeshVertex
 10
215.603725703082
 20
6.63574722646063
 30
0.0
 70
192
 50
0.0
  0
VERTEX
  5
426
330
422
100
AcDbEntity
  8
0
  6
BYLAYER
 62
256
 48
1.0
 60
1
370
-1
100
AcDbVertex
100
AcDbPolyFaceMeshVertex
 10
215.944552561236
 20
12.0758781194371
 30
0.0
 70
192
 50
0.0
  0
VERTEX
  5
427
330
422
100
AcDbEntity
  8
0
  6
BYLAYER
 62
256
 48
1.0
 60
1
370
-1
100
AcDbVertex
100
AcDbPolyFaceMeshVertex
 10
211.562495648362
 20
8.82718730815562
 30
0.0
 70
192
 50
0.0
  0
SEQEND
  5
42A
330
422
100
AcDbEntity
  8
0
  0
POLYLINE
  5
42B
330
1F
100
AcDbEntity
  8
0
  6
BYLAYER
 62
256
 48
1.0
 60
1
370
-1
100
AcDb3dPolyline
 10
0.0
 20
0.0
 30
0.0
 70
8
 75
0
210
0.0
220
0.0
230
1.0
  0
VERTEX
  5
42C
330
42B
100
AcDbEntity
  8
0
  6
BYLAYER
 62
256
 48
1.0
 60
1
370
-1
100
AcDbVertex
100
AcDb3dPolylineVertex
 10
232.601720744304
 20
0.892693590346994
 30
0.0
 70
32
 50
0.0
  0
VERTEX
  5
42D
330
42B
100
AcDbEntity
  8
0
  6
BYLAYER
 62
256
 48
1.0
 60
1
370
-1
100
AcDbVertex
100
AcDb3dPolylineVertex
 10
233.414989720126
 20
3.34858710391815
 30
5.47860020423747
 70
32
 50
0.0
  0
VERTEX
  5
42E
330
42B
100
AcDbEntity
  8
0
  6
BYLAYER
 62
256
 48
1.0
 60
1
370
-1
100
AcDbVertex
100
AcDb3dPolylineVertex
 10
229.032109556736
 20
4.73611885305195
 30
0.0
 70
32
 50
0.0
  0
VERTEX
  5
42F
330
42B
100
AcDbEntity
  8
0
  6
BYLAYER
 62
256
 48
1.0
 60
1
370
-1
100
AcDbVertex
100
AcDb3dPolylineVertex
 10
227.878838422795
 20
8.43359075493493
 30
5.47860020423747
 70
32
 50
0.0
  0
VERTEX
  5
430
330
42B
100
AcDbEntity
  8
0
  6
BYLAYER
 62
256
 48
1.0
 60
1
370
-1
100
AcDbVertex
100
AcDb3dPolylineVertex
 10
225.744949434193
 20
9.92290734900311
 30
0.0
 70
32
 50
0.0
  0
SEQEND
  5
431
330
42B
100
AcDbEntity
  8
0
  0
SOLID
  5
432
330
1F
100
AcDbEntity
  8
0
  6
BYLAYER
 62
256
 48
1.0
 60
1
370
-1
100
AcDbTrace
 10
235.606429801821
 20
4.78576355580594
 30
0.0
 11
244.372190128601
 21
3.34858710391815
 31
0.0
 12
236.702149842668
 22
11.7915003832211
 32
0.0
 13
246.09572676557
 23
11.9374537440431
 33
0.0
 39
0.0
210
0.0
220
0.0
230
1.0
  0
SPLINE
  5
433
330
1F
100
AcDbEntity
  8
0
  6
BYLAYER
 62
256
 48
1.0
 60
1
370
-1
100
AcDbSpline
 70
0
 71
3
 72
8
 73
4
 42
0.000000001
 43
0.0000000001
 44
0.0000000001
 12
0.0
 22
0.0
 32
0.0
 13
0.0
 23
0.0
 33
0.0
 40
0.0
 40
0.0
 40
0.0
 40
0.0
 40
1.0
 40
1.0
 40
1.0
 40
1.0
 10
250.458790783224
 20
1.15714702222316
 30
0.0
 10
254.713771109526
 20
11.98610420237
 30
0.0
 10
259.387964086944
 20
1.23424435279787
 30
0.0
 10
259.224551110004
 20
11.0186273898506
 30
0.0
  0
SPLINE
  5
434
330
1F
100
AcDbEntity
  8
0
  6
BYLAYER
 62
256
 48
1.0
 60
1
370
-1
100
AcDbSpline
 70
0
 71
3
 72
8
 73
4
 42
0.000000001
 43
0.0000000001
 44
0.0000000001
 12
0.0
 22
0.0
 32
0.0
 13
0.0
 23
0.0
 33
0.0
 40
0.0
 40
0.0
 40
0.0
 40
0.0
 40
1.0
 40
1.0
 40
1.0
 40
1.0
 10
250.458790783224
 20
17.4260241848448
 30
0.0
 10
254.713771109526
 20
28.2549813649916
 30
0.0
 10
259.387964086944
 20
17.5031215154195
 30
0.0
 10
259.224551110004
 20
27.2875045524722
 30
0.0
  0
WIPEOUT
  5
44D
330
1F
100
AcDbEntity
  8
0
  6
BYLAYER
 62
256
 48
1.0
 60
1
370
-1
100
AcDbWipeout
 90
0
 10
271.921128880819
 20
3.98812335185096
 30
0.0
 11
31.7077429260727
 21
0.0
 31
0.0
 12
0.0
 22
31.7077429260727
 32
0.0
 13
1.0
 23
1.0
340
0
 70
7
280
1
281
50
282
50
283
0
 71
2
 91
5
 14
-0.5
 24
0.5
 14
0.32605110088009
 24
0.492063502336059
 14
0.25059449345054
 24
-0.210317459489027
 14
-0.47617156637515
 24
-0.5
 14
-0.5
 24
0.5
  0
LEADER
  5
512
330
1F
100
AcDbEntity
  8
LAYER1
  6
BYLAYER
 62
256
 48
1.0
 60
1
370
-1
100
AcDbLeader
  3
ISO-25
 71
1
 72
0
 73
0
 74
0
 75
0
 40
1.84482130999727
 41
16.3740041033794
 76
3
 10
717.86871543234
 20
2.94117945506799
 30
0.0
 10
729.268117078097
 20
48.5387860380986
 30
0.0
 10
740.398750025285
 20
14.0718124022556
 30
0.0
210
0.0
220
0.0
230
1.0
211
1.0
221
0.0
231
0.0
212
0.0
222
0.0
232
0.0
213
0.0
223
0.0
233
0.0
  0
MTEXT
  5
513
330
1F
100
AcDbEntity
  8
LAYER1
  6
BYLAYER
 62
256
 48
1.0
 60
1
370
-1
100
AcDbMText
 10
741.023750025285
 20
14.6968124022556
 30
0.0
 40
1.42492520571971
 41
0.0
 44
1.0
 71
7
 72
1
  1
Sample annotation
  7
STANDARD
 73
0
 11
1.0
 21
0.0
 31
0.0
210
0.0
220
0.0
230
1.0
  0
DIMENSION
  5
514
330
1F
100
AcDbEntity
  8
LAYER1
  6
BYLAYER
 62
256
 48
1.0
 60
1
370
-1
100
AcDbDimension
  2
*D3
 10
360.358100223525
 20
44.2913065627815
 30
0.0
 11
339.065951087752
 21
34.4547739601339
 31
0.0
 70
32
 71
0
210
0.0
220
0.0
230
1.0
  3
ISO-25
100
AcDbAlignedDimension
 13
330.28905947658
 23
2.94117945506799
 33
0.0
 14
364.487264413852
 24
37.1393843923409
 34
0.0
 50
30.0000000000006
100
AcDbRotatedDimension
  0
DIMENSION
  5
515
330
1F
100
AcDbEntity
  8
LAYER1
  6
BYLAYER
 62
256
 48
1.0
 60
1
370
-1
100
AcDbDimension
  2
*D4
 10
472.360450046828
 20
22.1580627413702
 30
0.0
 11
470.642040949818
 21
31.9390540112458
 31
0.0
 70
37
 71
0
210
0.0
220
0.0
230
1.0
  3
ISO-25
100
AcDb3PointAngularDimension
 13
455.682477579914
 23
8.64088027794681
 33
0.0
 14
444.283075934156
 24
37.1393843923409
 34
0.0
 15
438.583375111277
 25
14.3405811008256
 35
0.0
  0
DIMENSION
  5
516
330
1F
100
AcDbEntity
  8
LAYER1
  6
BYLAYER
 62
256
 48
1.0
 60
1
370
-1
100
AcDbDimension
  2
*D5
 10
512.679485808702
 20
8.64088027794681
 30
0.0
 11
527.000217858332
 21
31.5883701823925
 31
0.0
 70
34
 71
0
210
0.0
220
0.0
230
1.0
  3
ISO-25
100
AcDb2LineAngularDimension
 13
495.580383340065
 23
14.3405811008256
 33
0.0
 14
501.280084162944
 24
37.1393843923409
 34
0.0
 15
495.580383340065
 25
14.3405811008256
 35
0.0
 16
528.647470337295
 26
21.9937407068713
 36
0.0
  0
LINE
  5
517
330
1F
100
AcDbEntity
  8
LAYER2
  6
BYLAYER
 62
256
 48
1.0
 60
1
370
-1
100
AcDbLine
 10
330.28905947658
 20
2.94117945506799
 30
0.0
 11
364.487264413852
 21
37.1393843923409
 31
0.0
 39
0.0
210
0.0
220
0.0
230
1.0
  0
LINE
  5
518
330
1F
100
AcDbEntity
  8
LAYER2
  6
BYLAYER
 62
256
 48
1.0
 60
1
370
-1
100
AcDbLine
 10
381.586366882489
 20
8.64088027794681
 30
0.0
 11
415.784571819762
 21
42.8390852152198
 31
0.0
 39
0.0
210
0.0
220
0.0
230
1.0
  0
LINE
  5
519
330
1F
100
AcDbEntity
  8
LAYER2
  6
BYLAYER
 62
256
 48
1.0
 60
1
370
-1
100
AcDbLine
 10
438.583375111277
 20
14.3405811008256
 30
0.0
 11
444.283075934156
 21
37.1393843923409
 31
0.0
 39
0.0
210
0.0
220
0.0
230
1.0
  0
LINE
  5
51A
330
1F
100
AcDbEntity
  8
LAYER2
  6
BYLAYER
 62
256
 48
1.0
 60
1
370
-1
100
AcDbLine
 10
438.583375111277
 20
14.3405811008256
 30
0.0
 11
455.682477579914
 21
8.64088027794681
 31
0.0
 39
0.0
210
0.0
220
0.0
230
1.0
  0
LINE
  5
51B
330
1F
100
AcDbEntity
  8
LAYER2
  6
BYLAYER
 62
256
 48
1.0
 60
1
370
-1
100
AcDbLine
 10
495.580383340065
 20
14.3405811008256
 30
0.0
 11
501.280084162944
 21
37.1393843923409
 31
0.0
 39
0.0
210
0.0
220
0.0
230
1.0
  0
LINE
  5
51C
330
1F
100
AcDbEntity
  8
LAYER2
  6
BYLAYER
 62
256
 48
1.0
 60
1
370
-1
100
AcDbLine
 10
495.580383340065
 20
14.3405811008256
 30
0.0
 11
512.679485808702
 21
8.64088027794681
 31
0.0
 39
0.0
210
0.0
220
0.0
230
1.0
  0
CIRCLE
  5
51D
330
1F
100
AcDbEntity
  8
LAYER2
  6
BYLAYER
 62
256
 48
1.0
 60
1
370
-1
100
AcDbCircle
 10
569.67649403749
 20
25.7399827465833
 30
0.0
 39
0.0
 40
11.3994016457576
210
0.0
220
0.0
230
1.0
  0
CIRCLE
  5
51E
330
1F
100
AcDbEntity
  8
LAYER2
  6
BYLAYER
 62
256
 48
1.0
 60
1
370
-1
100
AcDbCircle
 10
626.673502266278
 20
25.7399827465833
 30
0.0
 39
0.0
 40
22.7988032915153
210
0.0
220
0.0
230
1.0
  0
DIMENSION
  5
51F
330
1F
102
{ACAD_XDICTIONARY
360
520
102
}
100
AcDbEntity
  8
LAYER1
  6
BYLAYER
 62
256
 48
1.0
 60
1
370
-1
100
AcDbDimension
  2
*D10
 10
569.67649403749
 20
25.7399827465833
 30
0.0
 11
583.348482182394
 21
42.4205510740598
 31
0.0
 70
36
 71
0
210
0.0
220
0.0
230
1.0
  3
ISO-25
100
AcDbRadialDimension
 15
577.737088242675
 25
33.8005769517678
 35
0.0
 40
0.0
  0
DIMENSION
  5
522
330
1F
102
{ACAD_XDICTIONARY
360
523
102
}
100
AcDbEntity
  8
LAYER1
  6
BYLAYER
 62
256
 48
1.0
 60
1
370
-1
100
AcDbDimension
  2
*D11
 10
649.472305557794
 20
25.7399827465833
 30
0.0
 11
626.673502266278
 21
25.7399827465833
 31
0.0
 70
163
 71
0
210
0.0
220
0.0
230
1.0
  3
ISO-25
100
AcDbDiametricDimension
 15
603.874698974763
 25
25.7399827465833
 35
0.0
 40
0.0
  0
DIMENSION
  5
525
330
1F
100
AcDbEntity
  8
LAYER1
  6
BYLAYER
 62
256
 48
1.0
 60
1
370
-1
100
AcDbDimension
  2
*D6
 10
313.189957007943
 20
111.235495089766
 30
0.0
 11
706.468794409815
 21
16.467968549666
 31
0.0
 70
38
 71
0
210
0.0
220
0.0
230
1.0
  3
ISO-25
100
AcDbOrdinateDimension
 13
660.871707203551
 23
8.64088027794681
 33
0.0
 14
700.769612963703
 24
14.3405811008256
 34
0.0
  0
DIMENSION
  5
526
330
1F
100
AcDbEntity
  8
LAYER1
  6
BYLAYER
 62
256
 48
1.0
 60
1
370
-1
100
AcDbDimension
  2
*D7
 10
313.189957007943
 20
111.235495089766
 30
0.0
 11
675.843422223348
 21
48.6550811224502
 31
0.0
 70
102
 71
0
210
0.0
220
0.0
230
1.0
  3
ISO-25
100
AcDbOrdinateDimension
 13
666.571408026431
 23
2.94117945506799
 33
0.0
 14
677.970809672189
 24
42.8390852152198
 34
0.0
  0
DIMENSION
  5
527
330
1F
100
AcDbEntity
  8
LAYER1
  6
BYLAYER
 62
256
 48
1.0
 60
1
370
-1
100
AcDbDimension
  2
*D8
 10
410.084870996883
 20
48.5387860380986
 30
0.0
 11
390.75736925875
 21
33.6680828389586
 31
0.0
 70
32
 71
0
210
0.0
220
0.0
230
1.0
  3
ISO-25
100
AcDbAlignedDimension
 13
381.586366882489
 23
8.64088027794681
 33
0.0
 14
415.784571819762
 24
42.8390852152198
 34
0.0
 50
0.0
100
AcDbRotatedDimension
  0
LINE
  5
694
330
1F
100
AcDbEntity
  8
0
  6
GAS_LINE
 62
256
 48
1.0
 60
1
370
-1
100
AcDbLine
 10
3.59253399890939
 20
3.27501309309945
 30
0.0
 11
6.86354703397956
 21
3.27501309309945
 31
0.0
 39
0.0
210
0.0
220
0.0
230
1.0
  0
LINE
  5
695
330
1F
100
AcDbEntity
  8
0
  6
TRACKS
 62
3
 48
1.0
 60
1
370
-1
100
AcDbLine
 10
3.59253399890939
 20
4.09548124400019
 30
0.0
 11
6.86354703397956
 21
4.09548124400019
 31
0.0
 39
0.0
210
0.0
220
0.0
230
1.0
  0
LINE
  5
696
330
1F
100
AcDbEntity
  8
0
  6
ZIGZAG
 62
256
 48
1.0
 60
1
370
-1
100
AcDbLine
 10
3.59253399890939
 20
5.16047899502427
 30
0.0
 11
6.86354703397956
 21
5.16047899502427
 31
0.0
 39
0.0
210
0.0
220
0.0
230
1.0
  0
LINE
  5
697
330
1F
100
AcDbEntity
  8
0
  6
BATTING
 62
200
 48
1.0
 60
1
370
-1
100
AcDbLine
 10
3.59253399890939
 20
6.21589163122735
 30
0.0
 11
6.86354703397956
 21
6.21589163122735
 31
0.0
 39
0.0
210
0.0
220
0.0
230
1.0
  0
LINE
  5
698
330
1F
100
AcDbEntity
  8
0
  6
BYLAYER
 62
256
 48
1.0
 60
1
370
-1
100
AcDbLine
 10
3.59253399890939
 20
-7.79531737951857
 30
0.0
 11
6.86354703397956
 21
-7.79531737951857
 31
0.0
 39
0.0
210
0.0
220
0.0
230
1.0
  0
LINE
  5
699
330
1F
100
AcDbEntity
  8
0
  6
ACAD_ISO02W100
 62
3
 48
1.0
 60
1
370
-1
100
AcDbLine
 10
3.59253399890939
 20
-6.97484922861783
 30
0.0
 11
6.86354703397956
 21
-6.97484922861783
 31
0.0
 39
0.0
210
0.0
220
0.0
230
1.0
  0
LINE
  5
69A
330
1F
100
AcDbEntity
  8
0
  6
BYLAYER
 62
256
 48
1.0
 60
1
370
-1
100
AcDbLine
 10
3.59253399890939
 20
-5.99754618259932
 30
0.0
 11
6.86354703397956
 21
-5.99754618259932
 31
0.0
 39
0.0
210
0.0
220
0.0
230
1.0
  0
LINE
  5
69B
330
1F
100
AcDbEntity
  8
0
  6
ACAD_ISO02W100
 62
3
 48
1.0
 60
1
370
-1
100
AcDbLine
 10
3.59253399890939
 20
-5.17707803169858
 30
0.0
 11
6.86354703397956
 21
-5.17707803169858
 31
0.0
 39
0.0
210
0.0
220
0.0
230
1.0
  0
LINE
  5
69C
330
1F
100
AcDbEntity
  8
0
  6
BYLAYER
 62
256
 48
1.0
 60
1
370
-1
100
AcDbLine
 10
3.59253399890939
 20
-4.1120802806745
 30
0.0
 11
6.86354703397956
 21
-4.1120802806745
 31
0.0
 39
0.0
210
0.0
220
0.0
230
1.0
  0
LINE
  5
69D
330
1F
100
AcDbEntity
  8
0
  6
ACAD_ISO02W100
 62
3
 48
1.0
 60
1
370
-1
100
AcDbLine
 10
3.59253399890939
 20
-3.29161212977376
 30
0.0
 11
6.86354703397956
 21
-3.29161212977376
 31
0.0
 39
0.0
210
0.0
220
0.0
230
1.0
  0
LINE
  5
69F
330
1F
100
AcDbEntity
  8
LAYER_LT_DASH
  6
BYLAYER
 62
256
 48
1.0
 60
1
370
-1
100
AcDbLine
 10
3.59253399890938
 20
-14.6255294053312
 30
0.0
 11
6.86354703397955
 21
-14.6255294053312
 31
0.0
 39
0.0
210
0.0
220
0.0
230
1.0
  0
LINE
  5
6A0
330
1F
100
AcDbEntity
  8
LAYER_LT_DASH
  6
ACAD_ISO02W100
 62
256
 48
1.0
 60
1
370
-1
100
AcDbLine
 10
3.59253399890938
 20
-13.8050612544305
 30
0.0
 11
6.86354703397955
 21
-13.8050612544305
 31
0.0
 39
0.0
210
0.0
220
0.0
230
1.0
  0
LINE
  5
6A1
330
1F
100
AcDbEntity
  8
LAYER_LT_DASH
  6
BYLAYER
 62
256
 48
1.0
 60
1
370
-1
100
AcDbLine
 10
3.59253399890938
 20
-12.827758208412
 30
0.0
 11
6.86354703397955
 21
-12.827758208412
 31
0.0
 39
0.0
210
0.0
220
0.0
230
1.0
  0
LINE
  5
6A2
330
1F
100
AcDbEntity
  8
LAYER_LT_DASH
  6
ACAD_ISO02W100
 62
256
 48
1.0
 60
1
370
-1
100
AcDbLine
 10
3.59253399890938
 20
-12.0072900575112
 30
0.0
 11
6.86354703397955
 21
-12.0072900575112
 31
0.0
 39
0.0
210
0.0
220
0.0
230
1.0
  0
LINE
  5
6A3
330
1F
100
AcDbEntity
  8
LAYER_LT_DASH
  6
BYLAYER
 62
256
 48
1.0
 60
1
370
-1
100
AcDbLine
 10
3.59253399890938
 20
-10.9422923064872
 30
0.0
 11
6.86354703397955
 21
-10.9422923064872
 31
0.0
 39
0.0
210
0.0
220
0.0
230
1.0
  0
LINE
  5
6A4
330
1F
100
AcDbEntity
  8
LAYER_LT_DASH
  6
ACAD_ISO02W100
 62
256
 48
1.0
 60
1
370
-1
100
AcDbLine
 10
3.59253399890938
 20
-10.1218241555864
 30
0.0
 11
6.86354703397955
 21
-10.1218241555864
 31
0.0
 39
0.0
210
0.0
220
0.0
230
1.0
  0
INSERT
  5
704
330
1F
100
AcDbEntity
  8
LAYER1
  6
BYLAYER
 62
256
 48
1.0
 60
1
370
-1
100
AcDbBlockReference
  2
MYBLOCK
 10
920.679626662723
 20
16.3528537738905
 30
0.0
 41
0.363373694847201
 42
0.363373694847201
 43
0.363373694847201
 50
0.0
 70
1
 71
1
 44
0.0
 45
0.0
210
0.0
220
0.0
230
1.0
 66
1
  0
ATTRIB
  5
705
330
704
100
AcDbEntity
  8
0
  6
BYLAYER
 62
256
 48
1.0
 60
1
370
-1
100
AcDbText
  1
17
 10
920.679626662723
 20
16.3528537738905
 30
0.0
 40
1.816868474236
210
0.0
220
0.0
230
1.0
100
AcDbAttribute
  2
ATTINFO
 70
0
 73
0
  0
SEQEND
  5
706
330
704
100
AcDbEntity
  8
LAYER1
  0
TEXT
  5
756
330
1F
100
AcDbEntity
  8
LAYER2
  6
BYLAYER
 62
256
 48
1.0
 60
1
370
-1
100
AcDbText
  1
Hello this is a single line text
 10
147.589772910276
 20
32.3481892763946
 30
0.0
 40
1.0
210
0.0
220
0.0
230
1.0
100
AcDbText
  0
TEXT
  5
757
330
1F
102
{ACAD_XDICTIONARY
360
758
102
}
100
AcDbEntity
  8
LAYER_COLOR_80___1
  6
BYLAYER
 62
256
 48
1.0
 60
1
370
-1
100
AcDbText
  1
Hello this is a single line text
 10
147.589772910276
 20
39.8189544778985
 30
0.0
 40
1.0
210
0.0
220
0.0
230
1.0
100
AcDbText
  0
TEXT
  5
75C
330
1F
100
AcDbEntity
  8
LAYER_TRUE_COLOR
  6
BYLAYER
 62
256
 48
1.0
 60
1
370
-1
100
AcDbText
  1
Hello this is a single line text
 10
147.589772910276
 20
46.7719440568677
 30
0.0
 40
1.0
210
0.0
220
0.0
230
1.0
100
AcDbText
  0
TEXT
  5
75D
330
1F
102
{ACAD_XDICTIONARY
360
75E
102
}
100
AcDbEntity
  8
LAYER_COLOR_BOOK
  6
BYLAYER
 62
256
 48
1.0
 60
1
370
-1
100
AcDbText
  1
Hello this is a single line text
 10
147.589772910276
 20
54.2427092583716
 30
0.0
 40
1.0
210
0.0
220
0.0
230
1.0
100
AcDbText
  0
MTEXT
  5
779
330
1F
102
{ACAD_XDICTIONARY
360
C1E
102
}
100
AcDbEntity
  8
0
  6
BYLAYER
 62
256
 48
1.0
 60
1
370
-1
100
AcDbMText
 10
183.588928079041
 20
-1.38637568506374
 30
0.0
 40
1.0
 41
15.7414142449875
 44
1.0
 71
1
 72
5
  3
this is a really long Mtext\Pbla bla bla bla bla bla bla bla bla bla bla bla bla bla bla bla bla bla bla bla bla bla bla bla bla bla bla bla bla bla bla bla bla bla bla bla bla bla bla bla bla bla bla bla bla bla bla bla bla bla bla bla bla bla bla b
  3
la bla bla bla bla bla bla bla bla bla bla bla bla bla bla bla bla bla bla bla bla bla bla bla bla bla bla bla bla bla bla bla bla bla bla bla bla bla bla bla bla bla bla bla bla bla bla bla bla bla bla bla bla bla bla bla bla bla bla bla bla bla bla
  3
 bla bla bla bla bla bla bla bla bla bla bla bla bla bla bla bla bla bla bla bla bla bla bla bla bla bla bla bla bla bla bla bla bla bla bla bla bla bla bla bla bla bla bla bla bla bla bla bla bla bla bla bla bla bla bla bla bla bla bla bla bla bla b
  3
la bla bla bla bla bla bla bla bla bla bla bla bla bla bla bla bla bla bla bla bla bla bla bla bla bla bla bla bla bla bla bla bla bla bla bla bla bla bla bla bla bla bla bla bla bla bla bla bla bla bla bla bla bla bla bla bla bla bla bla bla bla bla
  3
 bla bla bla bla bla bla bla bla bla bla bla bla bla bla bla bla bla bla bla bla bla bla bla bla bla bla bla bla bla bla bla bla bla bla bla bla bla bla bla bla bla bla bla bla bla bla bla bla bla bla bla bla bla bla bla bla bla bla bla bla bla bla b
  3
la bla bla bla bla bla bla bla bla bla bla bla bla bla bla bla bla bla bla bla bla bla bla bla bla bla bla bla bla bla bla bla bla bla bla bla bla bla bla bla bla bla bla bla bla bla bla bla bla bla bla bla bla bla bla bla bla bla bla bla bla bla bla
  3
 bla bla bla bla bla bla bla bla bla bla bla bla bla bla bla bla bla bla bla bla bla bla bla bla bla bla bla bla bla bla bla bla bla bla bla bla bla bla bla bla bla bla bla bla bla bla bla bla bla bla bla bla bla bla bla bla bla bla bla bla bla bla b
  3
la bla bla bla bla bla bla bla bla bla bla bla bla bla bla bla bla bla bla bla bla bla bla bla bla bla bla bla bla bla bla bla bla bla bla bla bla bla bla bla bla bla bla bla bla bla bla bla bla bla bla bla bla bla bla bla bla bla bla bla bla bla bla
  3
 bla bla bla bla bla bla bla bla bla bla bla bla bla bla bla bla bla bla bla bla bla bla bla bla bla bla bla bla bla bla bla bla bla bla bla bla bla bla bla bla bla bla bla bla bla bla bla bla bla bla bla bla bla bla bla bla bla bla bla bla bla bla b
  3
la bla bla bla bla bla bla bla bla bla bla bla bla bla bla bla bla bla bla bla bla bla bla bla bla bla bla bla bla bla bla bla bla bla bla bla bla bla bla bla bla bla bla bla bla bla bla bla bla bla bla bla bla bla bla bla bla bla bla bla bla bla bla
  3
 bla bla bla bla bla bla bla bla bla bla bla bla bla bla bla bla bla bla bla bla bla bla bla bla bla bla bla bla bla bla bla bla bla bla bla bla bla bla bla bla bla bla bla bla bla bla bla bla bla bla bla bla bla bla bla bla bla bla bla bla bla bla b
  3
la bla bla bla bla bla bla bla bla bla bla bla bla bla bla bla bla bla bla bla bla bla bla bla bla bla bla bla bla bla bla bla bla bla bla bla bla bla bla bla bla bla bla bla bla bla bla bla bla bla bla bla bla bla bla bla bla bla bla bla bla bla bla
  3
 bla bla bla bla bla bla bla bla bla bla bla bla bla bla bla bla bla bla bla bla bla bla bla bla bla bla bla bla bla bla bla bla bla bla bla bla bla bla bla bla bla bla bla bla bla bla bla bla bla bla bla bla bla bla bla bla bla bla bla bla bla bla b
  1
this is a really long Mtext\Pbla bla bla bla bla bla bla bla bla bla bla bla bla bla bla bla bla bla bla bla bla bla bla bla bla bla bla bla bla bla bla bla bla bla bla bla bla bla bla bla bla bla bla bla bla bla bla bla bla bla bla bla bla bla bla bla bla bla bla bla bla bla bla bla bla bla bla bla bla bla bla bla bla bla bla bla bla bla bla bla bla bla bla bla bla bla bla bla bla bla bla bla bla bla bla bla bla bla bla bla bla bla bla bla bla bla bla bla bla bla bla bla bla bla bla bla bla bla bla bla bla bla bla bla bla bla bla bla bla bla bla bla bla bla bla bla bla bla bla bla bla bla bla bla bla bla bla bla bla bla bla bla bla bla bla bla bla bla bla bla bla bla bla bla bla bla bla bla bla bla bla bla bla bla bla bla bla bla bla bla bla bla bla bla bla bla bla bla bla bla bla bla bla bla bla bla bla bla bla bla bla bla bla bla bla bla bla bla bla bla bla bla bla bla bla bla bla bla bla bla bla bla bla bla bla bla bla bla bla bla bla bla bla bla bla bla bla bla bla bla bla bla bla bla bla bla bla bla bla bla bla bla bla bla bla bla bla bla bla bla bla bla bla bla bla bla bla bla bla bla bla bla bla bla bla bla bla bla bla bla bla bla bla bla bla bla bla bla bla bla bla bla bla bla bla bla bla bla bla bla bla bla bla bla bla bla bla bla bla bla bla bla bla bla bla bla bla bla bla bla bla bla bla bla bla bla bla bla bla bla bla bla bla bla bla bla bla bla bla bla bla bla bla bla bla bla bla bla bla bla bla bla bla bla bla bla bla bla bla bla bla bla bla bla bla bla bla bla bla bla bla bla bla bla bla bla bla bla bla bla bla bla bla bla bla bla bla bla bla bla bla bla bla bla bla bla bla bla bla bla bla bla bla bla bla bla bla bla bla bla bla bla bla bla bla bla bla bla bla bla bla bla bla bla bla bla bla bla bla bla bla bla bla bla bla bla bla bla bla bla bla bla bla bla bla bla bla bla bla bla bla bla bla bla bla bla bla bla bla bla bla bla bla bla bla bla bla bla bla bla bla bla bla bla bla bla bla bla bla bla bla bla bla bla bla bla bla bla bla bla bla bla bla bla bla bla bla bla bla bla bla bla bla bla bla bla bla bla bla bla bla bla bla bla bla bla bla bla bla bla bla bla bla bla bla bla bla bla bla bla bla bla bla bla bla bla bla bla bla bla bla bla bla bla bla bla bla bla bla bla bla bla bla bla bla bla bla bla bla bla bla bla bla bla bla bla bla bla bla bla bla bla bla bla bla bla bla bla bla bla bla bla bla bla bla bla bla bla bla bla bla bla bla bla bla bla bla bla bla bla bla bla bla bla bla bla bla bla bla bla bla bla bla bla bla bla bla bla bla bla bla bla bla bla bla bla bla bla bla bla bla bla bla bla bla bla bla bla bla bla bla bla bla bla bla bla bla bla bla bla bla bla bla bla bla bla bla bla bla bla bla bla bla bla bla bla bla bla bla bla bla bla bla bla bla bla bla bla bla bla bla bla bla bla bla bla bla bla bla bla bla bla bla bla bla bla bla bla bla bla bla bla bla bla bla bla bla bla bla bla bla bla bla bla bla bla bla bla bla bla bla bla bla bla bla bla bla bla bla bla bla bla bla bla bla bla bla bla bla bla bla bla bla bla bla bla bla bla bla bla bla bla bla bla bla bla bla bla bla bla bla bla bla bla bla bla bla bla bla bla bla bla bla bla bla bla bla bla bla bla bla bla bla bla bla bla bla bla bla bla bla bla bla bla bla bla bla bla bla bla bla bla bla bla bla bla bla bla bla bla bla bla bla bla bla bla bla bla bla bla bla bla bla bla bla bla bla bla bla bla bla bla bla bla bla bla bla bla bla bla bla bla bla bla bla bla bla bla bla bla bla bla
  7
STANDARD
 73
0
 11
1.0
 21
0.0
 31
0.0
210
0.0
220
0.0
230
1.0
  0
INSERT
  5
783
330
1F
100
AcDbEntity
  8
0
  6
BYLAYER
 62
256
 48
1.0
 60
1
370
-1
100
AcDbBlockReference
  2
MY_BLOCK_V2
 10
-208.149532769608
 20
8.9901243659841
 30
0.0
 41
1.21788926458238
 42
1.21788926458238
 43
1.21788926458238
 50
0.0
 70
1
 71
1
 44
0.0
 45
0.0
210
0.0
220
0.0
230
1.0
  0
INSERT
  5
79C
330
1F
100
AcDbEntity
  8
0
  6
BYLAYER
 62
256
 48
1.0
 60
1
370
-1
100
AcDbBlockReference
  2
MY_BLOCK_V2
 10
-3024.44381838633
 20
1.95095366051225
 30
0.0
 41
4.19113318054708
 42
4.19113318054708
 43
4.19113318054708
 50
0.0
 70
1
 71
1
 44
0.0
 45
0.0
210
0.0
220
0.0
230
1.0
 66
1
  0
ATTRIB
  5
79D
330
79C
102
{ACAD_XDICTIONARY
360
AEC
102
}
100
AcDbEntity
  8
0
  6
BYLAYER
 62
256
 48
1.0
 60
1
370
-1
100
AcDbText
  1
my multi line text for the attrrib
 10
977.123033070722
 20
27.0008170923713
 30
0.0
 40
1.72065445620962
210
0.0
220
0.0
230
1.0
100
AcDbAttribute
  2
MULTI_LINE_ATT_001
 70
0
 73
0
  0
ATTRIB
  5
79F
330
79C
100
AcDbEntity
  8
0
  6
BYLAYER
 62
256
 48
1.0
 60
1
370
-1
100
AcDbText
  1
hello
 10
994.55829067919
 20
41.7094842567561
 30
0.0
 40
1.72065445620962
210
0.0
220
0.0
230
1.0
100
AcDbAttribute
  2
PRESET_ATT
 70
0
 73
0
 74
3
  0
ATTRIB
  5
7A0
330
79C
100
AcDbEntity
  8
0
  6
BYLAYER
 62
256
 48
1.0
 60
1
370
-1
100
AcDbText
  1
bla bla
 10
986.688245287059
 20
1.55446574799142
 30
0.0
 40
1.72065445620962
210
0.0
220
0.0
230
1.0
100
AcDbAttribute
  2
VERIFY_ATT
 70
0
 73
0
  0
SEQEND
  5
79E
330
79C
100
AcDbEntity
  8
0
  0
TOLERANCE
  5
822
330
1F
100
AcDbEntity
  8
0
  6
BYLAYER
 62
256
 48
1.0
 60
1
370
-1
100
AcDbFcf
  3
STANDARD
 10
214.175239377513
 20
-4.32043774706062
 30
0.0
 11
1.0
 21
0.0
 31
0.0
210
0.0
220
0.0
230
1.0
  1
{\Fgdt;j}%%v{\Fgdt;n}%%v%%v%%v%%v^J{\Fgdt;d}%%v%%v%%v%%v%%v^J.5^J5
  0
TOLERANCE
  5
823
330
1F
100
AcDbEntity
  8
0
  6
BYLAYER
 62
256
 48
1.0
 60
1
370
-1
100
AcDbFcf
  3
STANDARD
 10
215.904047348762
 20
-4.26969171078736
 30
0.0
 11
1.0
 21
0.0
 31
0.0
210
0.0
220
0.0
230
1.0
  1
99^Ja
  0
TOLERANCE
  5
824
330
1F
100
AcDbEntity
  8
0
  6
BYLAYER
 62
256
 48
1.0
 60
1
370
-1
100
AcDbFcf
  3
STANDARD
 10
217.104523528104
 20
-4.3572342337709
 30
0.0
 11
1.0
 21
0.0
 31
0.0
210
0.0
220
0.0
230
1.0
  1
{\Fgdt;p}
  0
SHAPE
  5
889
330
1F
100
AcDbEntity
  8
0
  6
BYLAYER
 62
256
 48
1.0
 60
1
370
-1
100
AcDbShape
 39
0.0
 10
15.2770201665726
 20
-20.3594711018486
 30
0.0
 40
1.0
  2
D:\Albert DC\Documents\Visual Studio 2022\Repos\ACadSharp\samples\sample_base\test_shape.shx
 50
0.0
 41
1.0
 51
0.0
210
0.0
220
0.0
230
1.0
  0
IMAGE
  5
8C6
330
1F
100
AcDbEntity
  8
0
  6
BYLAYER
 62
256
 48
1.0
 60
1
370
-1
100
AcDbRasterImage
 90
0
 10
0.0
 20
15.0
 30
0.0
 11
0.0104166666666667
 21
0.0
 31
0.0
 12
0.0
 22
0.0104166666666667
 32
0.0
 13
994.0
 23
965.0
340
8C4
 70
7
280
0
281
50
282
50
283
0
 71
1
 91
2
 14
-0.5
 24
-0.5
 14
993.5
 24
964.5
  0
ENDBLK
  5
21
330
1F
100
AcDbEntity
  8
0
100
AcDbBlockEnd
  0
BLOCK
  5
5A
330
58
100
AcDbEntity
  8
0
  6
BYLAYER
 62
256
 48
1.0
 60
1
370
-1
100
AcDbBlockBegin
  2
*PAPER_SPACE
 70
0
 10
0.0
 20
0.0
 30
0.0
  3
*PAPER_SPACE
  0
VIEWPORT
  5
240
330
58
102
{ACAD_XDICTIONARY
360
241
102
}
100
AcDbEntity
  8
0
  6
BYLAYER
 62
256
 48
1.0
 60
1
370
-1
100
AcDbViewport
 10
5.24999963955617
 20
3.99999988360668
 30
0.0
 40
19.6927001732123
 41
8.99299974576695
 69
1
 12
0.0
 22
0.0
 13
0.0
 23
0.0
 14
0.0
 24
0.0
 15
0.0
 25
0.0
 16
0.0
 26
0.0
 36
0.0
 17
0.0
 27
0.0
 37
0.0
 42
0.0
 43
0.0
 44
0.0
 45
0.0
 50
0.0
 51
0.0
 72
0
 90
0
110
0.0
120
0.0
130
0.0
111
0.0
121
0.0
131
0.0
112
0.0
122
0.0
132
0.0
  0
VIEWPORT
  5
245
330
58
102
{ACAD_XDICTIONARY
360
246
102
}
100
AcDbEntity
  8
0
  6
BYLAYER
 62
256
 48
1.0
 60
1
370
-1
100
AcDbViewport
 10
5.24999976158142
 20
3.99999976158142
 30
0.0
 40
8.39999961853028
 41
6.39999961853027
 69
1
 12
0.0
 22
0.0
 13
0.0
 23
0.0
 14
0.0
 24
0.0
 15
0.0
 25
0.0
 16
0.0
 26
0.0
 36
0.0
 17
0.0
 27
0.0
 37
0.0
 42
0.0
 43
0.0
 44
0.0
 45
0.0
 50
0.0
 51
0.0
 72
0
 90
0
110
0.0
120
0.0
130
0.0
111
0.0
121
0.0
131
0.0
112
0.0
122
0.0
132
0.0
  0
ENDBLK
  5
5B
330
58
100
AcDbEntity
  8
0
100
AcDbBlockEnd
  0
ENDSEC
  0
SECTION
  2
ENTITIES
  0
ENDSEC
  0
SECTION
  2
OBJECTS
  0
DICTIONARY
  5
C
330
0
102
{ACAD_XDICTIONARY
360
B6D
102
}
100
AcDbDictionary
280
0
281
0
  3
ACAD_CIP_PREVIOUS_PRODUCT_INFO
350
1A5
  3
ACAD_COLOR
350
73
  3
ACAD_DETAILVIEWSTYLE
350
1AB
  3
ACAD_GROUP
350
D
  3
ACAD_IMAGE_DICT
350
8C2
  3
ACAD_LAYOUT
350
1A
  3
ACAD_MATERIAL
350
72
  3
ACAD_MLEADERSTYLE
350
D7
  3
ACAD_MLINESTYLE
350
17
  3
ACAD_PLOTSETTINGS
350
19
  3
ACAD_PLOTSTYLENAME
350
E
  3
ACAD_SCALELIST
350
B6
  3
ACAD_SECTIONVIEWSTYLE
350
1A8
  3
ACAD_TABLESTYLE
350
86
  3
ACAD_VISUALSTYLE
350
99
  3
ACDB_RECOMPOSE_DATA
350
AEF
  3
ACDBHEADERROUNDTRIPXREC
350
B42
  3
ACDBVARIABLEDICTIONARY
350
66
  3
ACDSDECOMPOSEDATA
350
B68
  3
AUXHDRRNDTRIPDATA
350
B62
  3
DWGPROPS
350
B41
  0
DICTIONARY
  5
B6B
330
8
100
AcDbDictionary
280
0
281
0
  3
ACAD_XREC_ROUNDTRIP
350
B6C
  0
DICTIONARY
  5
B3F
330
94
100
AcDbDictionary
280
0
281
0
  3
ACAD_XREC_ROUNDTRIP
350
B40
  0
DICTIONARY
  5
B24
330
16
100
AcDbDictionary
280
0
281
0
  3
ACAD_XREC_ROUNDTRIP
350
B25
  0
DICTIONARY
  5
B20
330
14
100
AcDbDictionary
280
0
281
0
  3
ACAD_XREC_ROUNDTRIP
350
B21
  0
DICTIONARY
  5
B22
330
15
100
AcDbDictionary
280
0
281
0
  3
ACAD_XREC_ROUNDTRIP
350
B23
  0
DICTIONARY
  5
18E
330
2
100
AcDbDictionary
280
0
281
0
  3
ACAD_LAYERSTATES
350
18F
  3
ACLYDICTIONARY
350
28F
  0
DICTIONARY
  5
E6
330
10
100
AcDbDictionary
280
0
281
0
  0
DICTIONARY
  5
AFF
330
275
100
AcDbDictionary
280
0
281
0
  3
ACAD_XREC_ROUNDTRIP
350
B00
  0
DICTIONARY
  5
B01
330
278
100
AcDbDictionary
280
0
281
0
  3
ACAD_XREC_ROUNDTRIP
350
B02
  0
DICTIONARY
  5
B03
330
279
100
AcDbDictionary
280
0
281
0
  3
ACAD_XREC_ROUNDTRIP
350
B04
  0
DICTIONARY
  5
B05
330
27A
100
AcDbDictionary
280
0
281
0
  3
ACAD_XREC_ROUNDTRIP
350
B06
  0
DICTIONARY
  5
B07
330
27B
100
AcDbDictionary
280
0
281
0
  3
ACAD_XREC_ROUNDTRIP
350
B08
  0
DICTIONARY
  5
B09
330
27C
100
AcDbDictionary
280
0
281
0
  3
ACAD_XREC_ROUNDTRIP
350
B0A
  0
DICTIONARY
  5
B0B
330
27D
100
AcDbDictionary
280
0
281
0
  3
ACAD_XREC_ROUNDTRIP
350
B0C
  0
DICTIONARY
  5
B0D
330
281
100
AcDbDictionary
280
0
281
0
  3
ACAD_XREC_ROUNDTRIP
350
B0E
  0
DICTIONARY
  5
B0F
330
282
100
AcDbDictionary
280
0
281
0
  3
ACAD_XREC_ROUNDTRIP
350
B10
  0
DICTIONARY
  5
B11
330
283
100
AcDbDictionary
280
0
281
0
  3
ACAD_XREC_ROUNDTRIP
350
B12
  0
DICTIONARY
  5
B13
330
284
100
AcDbDictionary
280
0
281
0
  3
ACAD_XREC_ROUNDTRIP
350
B14
  0
DICTIONARY
  5
B15
330
285
100
AcDbDictionary
280
0
281
0
  3
ACAD_XREC_ROUNDTRIP
350
B16
  0
DICTIONARY
  5
B17
330
286
100
AcDbDictionary
280
0
281
0
  3
ACAD_XREC_ROUNDTRIP
350
B18
  0
DICTIONARY
  5
B19
330
4D2
100
AcDbDictionary
280
0
281
0
  3
ACAD_XREC_ROUNDTRIP
350
B1A
  0
DICTIONARY
  5
4D4
330
4D3
100
AcDbDictionary
280
0
281
0
  3
ACAD_XREC_ROUNDTRIP
350
B1B
  0
DICTIONARY
  5
B1C
330
761
100
AcDbDictionary
280
0
281
0
  3
ACAD_XREC_ROUNDTRIP
350
B1D
  0
DICTIONARY
  5
AE2
330
AE0
100
AcDbDictionary
280
0
281
0
  3
ACAD_XREC_ROUNDTRIP
350
B1E
  3
ASDK_XREC_ANNO_SCALE_INFO
350
AE3
  0
DICTIONARY
  5
AE7
330
AE6
100
AcDbDictionary
280
0
281
0
  3
ACAD_XREC_ROUNDTRIP
350
B1F
  3
ASDK_XREC_ANNO_SCALE_INFO
350
AE8
  0
DICTIONARY
  5
B36
330
11
100
AcDbDictionary
280
0
281
0
  3
ACAD_XREC_ROUNDTRIP
350
B37
  0
DICTIONARY
  5
B38
330
DC
100
AcDbDictionary
280
0
281
0
  3
ACAD_XREC_ROUNDTRIP
350
B39
  0
DICTIONARY
  5
B3A
330
399
100
AcDbDictionary
280
0
281
0
  3
ACAD_XREC_ROUNDTRIP
350
B3B
  0
DICTIONARY
  5
B3C
330
409
100
AcDbDictionary
280
0
281
0
  3
ACAD_XREC_ROUNDTRIP
350
B3D
  0
DICTIONARY
  5
303
330
302
100
AcDbDictionary
280
0
281
0
  3
ACAD_XREC_ROUNDTRIP
350
B3E
  3
ADSK_XREC_VTR_ANNOSCALE_DATA
350
304
  3
ADSK_XREC_VTRANIMATIONINFO
350
309
  3
ADSK_XREC_VTRVIEWINFO
350
305
  0
DICTIONARY
  5
B26
330
DD
100
AcDbDictionary
280
0
281
0
  3
ACAD_XREC_ROUNDTRIP
350
B27
  0
DICTIONARY
  5
B28
330
DE
100
AcDbDictionary
280
0
281
0
  3
ACAD_XREC_ROUNDTRIP
350
B29
  0
DICTIONARY
  5
B2A
330
276
100
AcDbDictionary
280
0
281
0
  3
ACAD_XREC_ROUNDTRIP
350
B2B
  0
DICTIONARY
  5
B2C
330
277
100
AcDbDictionary
280
0
281
0
  3
ACAD_XREC_ROUNDTRIP
350
B2D
  0
DICTIONARY
  5
B2E
330
358
100
AcDbDictionary
280
0
281
0
  3
ACAD_XREC_ROUNDTRIP
350
B2F
  0
DICTIONARY
  5
B30
330
359
100
AcDbDictionary
280
0
281
0
  3
ACAD_XREC_ROUNDTRIP
350
B31
  0
DICTIONARY
  5
B32
330
6FA
100
AcDbDictionary
280
0
281
0
  3
ACAD_XREC_ROUNDTRIP
350
B33
  0
DICTIONARY
  5
B34
330
AE1
100
AcDbDictionary
280
0
281
0
  3
ACAD_XREC_ROUNDTRIP
350
B35
  0
DICTIONARY
  5
AFB
330
27
100
AcDbDictionary
280
0
281
0
  3
ACAD_XREC_ROUNDTRIP
350
AFC
  0
DICTIONARY
  5
AFD
330
E1
100
AcDbDictionary
280
0
281
0
  3
ACAD_XREC_ROUNDTRIP
350
AFE
  0
DICTIONARY
  5
BD2
330
39A
100
AcDbDictionary
280
0
281
0
  3
ACAD_XREC_ROUNDTRIP
350
BD3
  0
DICTIONARY
  5
AF3
330
5D
100
AcDbDictionary
280
0
281
0
  3
ACAD_LAYOUTSELFREF
350
B78
  3
ACAD_XREC_ROUNDTRIP
350
AF4
  0
DICTIONARY
  5
AF5
330
259
100
AcDbDictionary
280
0
281
0
  3
ACAD_LAYOUTSELFREF
350
BC7
  3
ACAD_XREC_ROUNDTRIP
350
AF6
  0
DICTIONARY
  5
AF7
330
4A4
100
AcDbDictionary
280
0
281
0
  3
ACAD_XREC_ROUNDTRIP
350
AF8
  0
DICTIONARY
  5
6F3
330
6F2
100
AcDbDictionary
280
0
281
0
  3
ACAD_XREC_ROUNDTRIP
350
AF9
  0
DICTIONARY
  5
79A
330
77F
100
AcDbDictionary
280
0
281
0
  3
ACAD_SORTENTS
350
79B
  3
ACAD_XREC_ROUNDTRIP
350
AFA
  0
DICTIONARY
  5
15D
330
1F
100
AcDbDictionary
280
0
281
0
  3
ACAD_LAYOUTSELFREF
350
B73
  3
ACAD_SORTENTS
350
355
  3
ACAD_XREC_ROUNDTRIP
350
AF0
  0
DICTIONARY
  5
AF1
330
58
100
AcDbDictionary
280
0
281
0
  3
ACAD_LAYOUTSELFREF
350
B75
  3
ACAD_XREC_ROUNDTRIP
350
AF2
  0
DICTIONARY
  5
253
330
252
100
AcDbDictionary
280
0
281
0
  3
ACAD_XREC_ROUNDTRIP
350
BC5
  3
ASDK_XREC_ANNOTATION_SCALE_INFO
350
254
  0
DICTIONARY
  5
257
330
256
100
AcDbDictionary
280
0
281
0
  3
ACAD_XREC_ROUNDTRIP
350
BC6
  3
ASDK_XREC_ANNOTATION_SCALE_INFO
350
258
  0
DICTIONARY
  5
268
330
267
100
AcDbDictionary
280
0
281
0
  3
ACAD_XREC_ROUNDTRIP
350
BCA
  3
ASDK_XREC_ANNOTATION_SCALE_INFO
350
269
  0
DICTIONARY
  5
26C
330
26B
100
AcDbDictionary
280
0
281
0
  3
ACAD_XREC_ROUNDTRIP
350
BCB
  3
ASDK_XREC_ANNOTATION_SCALE_INFO
350
26D
  0
DICTIONARY
  5
C17
330
64B
100
AcDbDictionary
280
0
281
0
  3
ACAD_MTEXT_RT
350
C18
  0
DICTIONARY
  5
AE9
330
796
100
AcDbDictionary
280
0
281
0
  3
ACAD_MLATT
350
AEB
  3
ACAD_XREC_ROUNDTRIP
350
AEA
  0
DICTIONARY
  5
BCE
330
371
100
AcDbDictionary
280
0
281
0
  3
ACAD_XREC_ROUNDTRIP
350
BCF
  0
DICTIONARY
  5
BD0
330
376
100
AcDbDictionary
280
0
281
0
  3
ACAD_XREC_ROUNDTRIP
350
BD1
  0
DICTIONARY
  5
3C3
330
3BA
102
{ACAD_XDICTIONARY
360
BD8
102
}
100
AcDbDictionary
280
0
281
0
  3
ACDBCONTEXTDATAMANAGER
350
3C4
  0
DICTIONARY
  5
3D1
330
3D0
102
{ACAD_XDICTIONARY
360
BDA
102
}
100
AcDbDictionary
280
0
281
0
  3
ACDBCONTEXTDATAMANAGER
350
3D2
  0
DICTIONARY
  5
BDC
330
3EC
100
AcDbDictionary
280
0
281
0
  3
ACAD_MTEXT_RT
350
BDD
  0
DICTIONARY
  5
BDE
330
3F5
100
AcDbDictionary
280
0
281
0
  3
ACAD_MTEXT_RT
350
BDF
  0
DICTIONARY
  5
BE0
330
3F6
100
AcDbDictionary
280
0
281
0
  3
ACAD_MTEXT_RT
350
BE1
  0
DICTIONARY
  5
520
330
51F
100
AcDbDictionary
280
0
281
0
  0
DICTIONARY
  5
523
330
522
100
AcDbDictionary
280
0
281
0
  0
DICTIONARY
  5
758
330
757
102
{ACAD_XDICTIONARY
360
C1A
102
}
100
AcDbDictionary
280
0
281
0
  3
ACDBCONTEXTDATAMANAGER
350
759
  0
DICTIONARY
  5
75E
330
75D
102
{ACAD_XDICTIONARY
360
C1C
102
}
100
AcDbDictionary
280
0
281
0
  3
ACDBCONTEXTDATAMANAGER
350
75F
  0
DICTIONARY
  5
C1E
330
779
100
AcDbDictionary
280
0
281
0
  3
ACAD_MTEXT_RT
350
C1F
  0
DICTIONARY
  5
AEC
330
79D
100
AcDbDictionary
280
0
281
0
  3
ACAD_MLATT
350
AEE
  3
ACAD_XREC_ROUNDTRIP
350
AED
  0
DICTIONARY
  5
241
330
240
100
AcDbDictionary
280
0
281
0
  3
ACAD_XREC_ROUNDTRIP
350
BC3
  3
ASDK_XREC_ANNOTATION_SCALE_INFO
350
242
  0
DICTIONARY
  5
246
330
245
100
AcDbDictionary
280
0
281
0
  3
ACAD_XREC_ROUNDTRIP
350
BC4
  3
ASDK_XREC_ANNOTATION_SCALE_INFO
350
247
  0
DICTIONARY
  5
B6D
330
C
100
AcDbDictionary
280
0
281
0
  3
ACAD_XREC_ROUNDTRIP
350
B6E
  0
DICTIONARY
  5
73
330
C
100
AcDbDictionary
280
0
281
0
  0
DICTIONARY
  5
1AB
330
C
102
{ACAD_XDICTIONARY
360
BBF
102
}
100
AcDbDictionary
280
0
281
0
  0
DICTIONARY
  5
D
330
C
100
AcDbDictionary
280
0
281
0
  3
*A1
350
69E
  3
*A2
350
6A5
  0
DICTIONARY
  5
8C2
330
C
102
{ACAD_XDICTIONARY
360
C21
102
}
100
AcDbDictionary
280
0
281
0
  3
IMAGE
350
8C4
  0
DICTIONARY
  5
1A
330
C
102
{ACAD_XDICTIONARY
360
B71
102
}
100
AcDbDictionary
280
0
281
0
  3
LAYOUT1
350
59
  3
LAYOUT2
350
5E
  3
MODEL
350
22
  3
MYLAYOUT
350
25A
  0
DICTIONARY
  5
72
330
C
102
{ACAD_XDICTIONARY
360
B7B
102
}
100
AcDbDictionary
280
0
281
0
  0
DICTIONARY
  5
D7
330
C
102
{ACAD_XDICTIONARY
360
BA5
102
}
100
AcDbDictionary
280
0
281
0
  0
DICTIONARY
  5
17
330
C
102
{ACAD_XDICTIONARY
360
B6F
102
}
100
AcDbDictionary
280
0
281
0
  3
STANDARD
350
18
  0
DICTIONARY
  5
19
330
C
100
AcDbDictionary
280
0
281
0
  0
DICTIONARY
  5
E
330
C
100
AcDbDictionary
280
0
281
0
  0
DICTIONARY
  5
B6
330
C
100
AcDbDictionary
280
0
281
0
  3
A0
350
B7
  3
A1
350
124
  3
A2
350
125
  3
A3
350
126
  3
A4
350
127
  3
A5
350
128
  3
A6
350
129
  3
A7
350
12A
  3
A8
350
12B
  3
A9
350
12C
  3
B0
350
12D
  3
B1
350
12E
  3
B2
350
12F
  3
B3
350
130
  3
B4
350
131
  3
B5
350
132
  3
B6
350
133
  3
B7
350
134
  3
B8
350
135
  3
B9
350
136
  3
C0
350
137
  3
C1
350
138
  3
C2
350
139
  3
C3
350
13A
  3
C4
350
13B
  3
C5
350
13C
  3
C6
350
13D
  3
C7
350
13E
  3
C8
350
13F
  3
C9
350
140
  3
D0
350
141
  3
D1
350
142
  3
D2
350
143
  0
DICTIONARY
  5
1A8
330
C
102
{ACAD_XDICTIONARY
360
BBB
102
}
100
AcDbDictionary
280
0
281
0
  0
DICTIONARY
  5
86
330
C
102
{ACAD_XDICTIONARY
360
B7D
102
}
100
AcDbDictionary
280
0
281
0
  0
DICTIONARY
  5
99
330
C
102
{ACAD_XDICTIONARY
360
B83
102
}
100
AcDbDictionary
280
0
281
0
  0
DICTIONARY
  5
B42
330
C
100
AcDbDictionary
280
0
281
0
  3
CEPSNTYPE
350
B4C
  3
FINGERPRINTGUID
350
B4D
  3
HYPERLINKBASE
350
B45
  3
INSUNITS
350
B4B
  3
LAYOUTDICT
350
B47
  3
LWETCUNION
350
B4A
  3
PLOTSETDICT
350
B48
  3
PLOTSTYLNAMDICT
350
B49
  3
PSVPSCALE
350
B4F
  3
PUCSBASE
350
B52
  3
PUCSORGBACK
350
B58
  3
PUCSORGBOTTOM
350
B54
  3
PUCSORGFRONT
350
B57
  3
PUCSORGLEFT
350
B55
  3
PUCSORGRIGHT
350
B56
  3
PUCSORGTOP
350
B53
  3
PUCSORTHOREF
350
B50
  3
PUCSORTHOVIEW
350
B51
  3
STYLESHEET
350
B46
  3
TSTACKALIGN
350
B43
  3
TSTACKSIZE
350
B44
  3
UCSBASE
350
B5B
  3
UCSORGBACK
350
B61
  3
UCSORGBOTTOM
350
B5D
  3
UCSORGFRONT
350
B60
  3
UCSORGLEFT
350
B5E
  3
UCSORGRIGHT
350
B5F
  3
UCSORGTOP
350
B5C
  3
UCSORTHOREF
350
B59
  3
UCSORTHOVIEW
350
B5A
  3
VERSIONGUID
350
B4E
  0
DICTIONARY
  5
66
330
C
100
AcDbDictionary
280
0
281
0
  3
CANNOSCALE
350
F0
  3
CMLEADERSTYLE
350
EF
  3
CTABLESTYLE
350
89
  3
CVIEWDETAILSTYLE
350
1B7
  3
CVIEWSECTIONSTYLE
350
1B8
  3
DIMASSOC
350
67
  3
HIDETEXT
350
6B
  3
HPCOLOR
350
357
  3
HPTRANSPARENCY
350
356
  3
INDEXCTL
350
C34
  3
LAYEREVAL
350
14D
  3
LAYERNOTIFY
350
14E
  3
LIGHTINGUNITS
350
C32
  3
MSLTSCALE
350
C31
  3
SORTENTS
350
C33
  3
XCLIPFRAME
350
C35
  0
DICTIONARY
  5
B68
330
C
102
{ACAD_XDICTIONARY
360
C2F
102
}
100
AcDbDictionary
280
0
281
0
  3
ACDSRECORDS
350
B6A
  3
ACDSSCHEMAS
350
B69
  0
DICTIONARY
  5
18F
330
18E
102
{ACAD_XDICTIONARY
360
BB9
102
}
100
AcDbDictionary
280
0
281
0
  3
ACAD_VIEWS_VIEW_CUSTOM
350
306
  0
DICTIONARY
  5
28F
330
18E
100
AcDbDictionary
280
0
281
0
  0
SORTENTSTABLE
  5
79B
330
79A
100
AcDbSortentsTable
330
77F
  0
SORTENTSTABLE
  5
355
330
15D
100
AcDbSortentsTable
330
1F
331
353
  5
35A
331
35A
  5
354
331
36C
  5
36E
331
36E
  5
36D
331
36F
  5
371
331
371
  5
370
331
372
  5
376
331
376
  5
375
  0
DICTIONARY
  5
BD8
330
3C3
100
AcDbDictionary
280
0
281
0
  3
ACAD_XREC_ROUNDTRIP
350
BD9
  0
DICTIONARY
  5
3C4
330
3C3
100
AcDbDictionary
280
0
281
0
  3
ACDB_ANNOTATIONSCALES
350
3C5
  0
DICTIONARY
  5
BDA
330
3D1
100
AcDbDictionary
280
0
281
0
  3
ACAD_XREC_ROUNDTRIP
350
BDB
  0
DICTIONARY
  5
3D2
330
3D1
100
AcDbDictionary
280
0
281
0
  3
ACDB_ANNOTATIONSCALES
350
3D3
  0
DICTIONARY
  5
C1A
330
758
100
AcDbDictionary
280
0
281
0
  3
ACAD_XREC_ROUNDTRIP
350
C1B
  0
DICTIONARY
  5
759
330
758
100
AcDbDictionary
280
0
281
0
  3
ACDB_ANNOTATIONSCALES
350
75A
  0
DICTIONARY
  5
C1C
330
75E
100
AcDbDictionary
280
0
281
0
  3
ACAD_XREC_ROUNDTRIP
350
C1D
  0
DICTIONARY
  5
75F
330
75E
100
AcDbDictionary
280
0
281
0
  3
ACDB_ANNOTATIONSCALES
350
760
  0
DICTIONARY
  5
BBF
330
1AB
100
AcDbDictionary
280
0
281
0
  3
ACAD_XREC_ROUNDTRIP
350
BC0
  0
GROUP
  5
69E
330
D
100
AcDbGroup
300

 70
1
 71
1
340
69D
340
69C
340
69B
340
69A
340
699
340
698
  0
GROUP
  5
6A5
330
D
100
AcDbGroup
300

 70
1
 71
1
340
6A4
340
6A3
340
6A2
340
6A1
340
6A0
340
69F
  0
DICTIONARY
  5
C21
330
8C2
100
AcDbDictionary
280
0
281
0
  3
ACAD_XREC_ROUNDTRIP
350
C22
  0
IMAGEDEF
  5
8C4
330
8C2
100
AcDbRasterImageDef
 90
0
  1
.\image.JPG
 10
994.0
 20
965.0
280
1
281
5
  0
DICTIONARY
  5
B71
330
1A
100
AcDbDictionary
280
0
281
0
  3
ACAD_XREC_ROUNDTRIP
350
B72
  0
LAYOUT
  5
59
330
1A
102
{ACAD_XDICTIONARY
360
B76
102
}
100
AcDbPlotSettings
  1

  2
none_device
  4
Letter_(8.50_x_11.00_Inches)
  6

  7

 40
6.34999990463257
 41
6.34999990463257
 42
6.35000610351562
 43
6.35000610351562
 44
215.899993896484
 45
279.399993896484
 46
0.0
 47
0.0
 48
0.0
 49
0.0
140
0.0
141
0.0
142
1.0
143
1.0
 70
688
 72
0
 73
1
 74
5
 75
16
 76
0
 77
0
 78
300
147
1.0
148
0.0
149
0.0
100
AcDbLayout
  1
Layout1
 71
1
 10
-0.250000240295891
 20
-0.249999996245377
 11
10.7499995194082
 21
8.24999976345873
 12
0.0
 22
0.0
 32
0.0
 13
0.0
 23
0.0
 33
0.0
 14
1.04999995231628
 24
0.799999952316284
 34
0.0
 15
9.44999957084656
 25
7.19999957084656
 35
0.0
 16
1.0
 26
0.0
 36
0.0
 17
0.0
 27
1.0
 37
0.0
146
0.0
 76
0
330
58
  0
LAYOUT
  5
5E
330
1A
102
{ACAD_XDICTIONARY
360
B79
102
}
100
AcDbPlotSettings
  1

  2
none_device
  4
Letter_(8.50_x_11.00_Inches)
  6

  7

 40
6.34999990463257
 41
6.34999990463257
 42
6.35000610351562
 43
6.35000610351562
 44
215.899993896484
 45
279.399993896484
 46
0.0
 47
0.0
 48
0.0
 49
0.0
140
0.0
141
0.0
142
1.0
143
1.0
 70
688
 72
0
 73
1
 74
5
 75
16
 76
0
 77
0
 78
300
147
1.0
148
0.0
149
0.0
100
AcDbLayout
  1
Layout2
 71
2
 10
-0.250000240295891
 20
-0.249999996245377
 11
10.7499995194082
 21
8.24999976345873
 12
0.0
 22
0.0
 32
0.0
 13
0.0
 23
0.0
 33
0.0
 14
1.04999995231628
 24
0.799999952316284
 34
0.0
 15
9.44999957084656
 25
7.19999957084656
 35
0.0
 16
1.0
 26
0.0
 36
0.0
 17
0.0
 27
1.0
 37
0.0
146
0.0
 76
0
330
5D
  0
LAYOUT
  5
22
330
1A
102
{ACAD_XDICTIONARY
360
194
102
}
100
AcDbPlotSettings
  1

  2
none_device
  4
ANSI_A_(8.50_x_11.00_Inches)
  6

  7

 40
6.34999990463257
 41
19.0499992370605
 42
6.35000610351562
 43
19.0499877929688
 44
215.899993896484
 45
279.399993896484
 46
0.0
 47
0.0
 48
0.0
 49
0.0
140
0.0
141
0.0
142
1.0
143
2.58489546470837
 70
11952
 72
0
 73
1
 74
0
 75
0
 76
0
 77
0
 78
300
147
0.386862839775542
148
0.0
149
0.0
100
AcDbLayout
  1
Model
 71
0
 10
0.0
 20
0.0
 11
12.0
 21
9.0
 12
0.0
 22
0.0
 32
0.0
 13
0.0
 23
0.0
 33
0.0
 14
0.0
 24
0.0
 34
0.0
 15
0.0
 25
0.0
 35
0.0
 16
1.0
 26
0.0
 36
0.0
 17
0.0
 27
1.0
 37
0.0
146
0.0
 76
0
330
1F
  0
LAYOUT
  5
25A
330
1A
102
{ACAD_XDICTIONARY
360
BC8
102
}
100
AcDbPlotSettings
  1

  2
MON-MUR-09-PRINT (HP LaserJet Pro M148fdw)
  4
A4
  6

  7

 40
4.23333311080933
 41
4.22268676757812
 42
4.25999450683594
 43
4.23333740234375
 44
210.0
 45
297.0
 46
0.0
 47
0.0
 48
0.0
 49
0.0
140
0.0
141
0.0
142
1.0
143
1.0
 70
688
 72
0
 73
1
 74
5
 75
16
 76
0
 77
0
 78
300
147
1.0
148
0.0
149
0.0
100
AcDbLayout
  1
MyLayout
 71
3
 10
-0.166666826863927
 20
-0.166666657905879
 11
11.5262465589628
 21
8.10104987752719
 12
0.0
 22
0.0
 32
0.0
 13
0.0
 23
0.0
 33
0.0
 14
1.13599990484283
 24
0.793333355836042
 34
0.0
 15
10.2239991435854
 25
7.14000020252438
 35
0.0
 16
1.0
 26
0.0
 36
0.0
 17
0.0
 27
1.0
 37
0.0
146
0.0
 76
0
330
259
  0
DICTIONARY
  5
B7B
330
72
100
AcDbDictionary
280
0
281
0
  3
ACAD_XREC_ROUNDTRIP
350
B7C
  0
DICTIONARY
  5
BA5
330
D7
100
AcDbDictionary
280
0
281
0
  3
ACAD_XREC_ROUNDTRIP
350
BA6
  0
DICTIONARY
  5
B6F
330
17
100
AcDbDictionary
280
0
281
0
  3
ACAD_XREC_ROUNDTRIP
350
B70
  0
MLINESTYLE
  5
18
330
17
100
AcDbMlineStyle
  2
STANDARD
 70
0
  3

 62
0
 51
90.0
 52
90.0
 71
2
 49
0.5
 62
256
  6
BYLAYER
 49
-0.5
 62
256
  6
BYLAYER
  0
SCALE
  5
B7
330
B6
100
AcDbScale
 70
0
300
1:1
140
1.0
141
1.0
290
1
  0
SCALE
  5
124
330
B6
100
AcDbScale
 70
0
300
1:2
140
1.0
141
2.0
290
0
  0
SCALE
  5
125
330
B6
100
AcDbScale
 70
0
300
1:4
140
1.0
141
4.0
290
0
  0
SCALE
  5
126
330
B6
100
AcDbScale
 70
0
300
1:5
140
1.0
141
5.0
290
0
  0
SCALE
  5
127
330
B6
100
AcDbScale
 70
0
300
1:8
140
1.0
141
8.0
290
0
  0
SCALE
  5
128
330
B6
100
AcDbScale
 70
0
300
1:10
140
1.0
141
10.0
290
0
  0
SCALE
  5
129
330
B6
100
AcDbScale
 70
0
300
1:16
140
1.0
141
16.0
290
0
  0
SCALE
  5
12A
330
B6
100
AcDbScale
 70
0
300
1:20
140
1.0
141
20.0
290
0
  0
SCALE
  5
12B
330
B6
100
AcDbScale
 70
0
300
1:30
140
1.0
141
30.0
290
0
  0
SCALE
  5
12C
330
B6
100
AcDbScale
 70
0
300
1:40
140
1.0
141
40.0
290
0
  0
SCALE
  5
12D
330
B6
100
AcDbScale
 70
0
300
1:50
140
1.0
141
50.0
290
0
  0
SCALE
  5
12E
330
B6
100
AcDbScale
 70
0
300
1:100
140
1.0
141
100.0
290
0
  0
SCALE
  5
12F
330
B6
100
AcDbScale
 70
0
300
2:1
140
2.0
141
1.0
290
0
  0
SCALE
  5
130
330
B6
100
AcDbScale
 70
0
300
4:1
140
4.0
141
1.0
290
0
  0
SCALE
  5
131
330
B6
100
AcDbScale
 70
0
300
8:1
140
8.0
141
1.0
290
0
  0
SCALE
  5
132
330
B6
100
AcDbScale
 70
0
300
10:1
140
10.0
141
1.0
290
0
  0
SCALE
  5
133
330
B6
100
AcDbScale
 70
0
300
100:1
140
100.0
141
1.0
290
0
  0
SCALE
  5
134
330
B6
100
AcDbScale
 70
0
300
1/128" = 1'-0"
140
0.0078125
141
12.0
290
0
  0
SCALE
  5
135
330
B6
100
AcDbScale
 70
0
300
1/64" = 1'-0"
140
0.015625
141
12.0
290
0
  0
SCALE
  5
136
330
B6
100
AcDbScale
 70
0
300
1/32" = 1'-0"
140
0.03125
141
12.0
290
0
  0
SCALE
  5
137
330
B6
100
AcDbScale
 70
0
300
1/16" = 1'-0"
140
0.0625
141
12.0
290
0
  0
SCALE
  5
138
330
B6
100
AcDbScale
 70
0
300
3/32" = 1'-0"
140
0.09375
141
12.0
290
0
  0
SCALE
  5
139
330
B6
100
AcDbScale
 70
0
300
1/8" = 1'-0"
140
0.125
141
12.0
290
0
  0
SCALE
  5
13A
330
B6
100
AcDbScale
 70
0
300
3/16" = 1'-0"
140
0.1875
141
12.0
290
0
  0
SCALE
  5
13B
330
B6
100
AcDbScale
 70
0
300
1/4" = 1'-0"
140
0.25
141
12.0
290
0
  0
SCALE
  5
13C
330
B6
100
AcDbScale
 70
0
300
3/8" = 1'-0"
140
0.375
141
12.0
290
0
  0
SCALE
  5
13D
330
B6
100
AcDbScale
 70
0
300
1/2" = 1'-0"
140
0.5
141
12.0
290
0
  0
SCALE
  5
13E
330
B6
100
AcDbScale
 70
0
300
3/4" = 1'-0"
140
0.75
141
12.0
290
0
  0
SCALE
  5
13F
330
B6
100
AcDbScale
 70
0
300
1" = 1'-0"
140
1.0
141
12.0
290
0
  0
SCALE
  5
140
330
B6
100
AcDbScale
 70
0
300
1-1/2" = 1'-0"
140
1.5
141
12.0
290
0
  0
SCALE
  5
141
330
B6
100
AcDbScale
 70
0
300
3" = 1'-0"
140
3.0
141
12.0
290
0
  0
SCALE
  5
142
330
B6
100
AcDbScale
 70
0
300
6" = 1'-0"
140
6.0
141
12.0
290
0
  0
SCALE
  5
143
330
B6
100
AcDbScale
 70
0
300
1'-0" = 1'-0"
140
12.0
141
12.0
290
0
  0
DICTIONARY
  5
BBB
330
1A8
100
AcDbDictionary
280
0
281
0
  3
ACAD_XREC_ROUNDTRIP
350
BBC
  0
DICTIONARY
  5
B7D
330
86
100
AcDbDictionary
280
0
281
0
  3
ACAD_XREC_ROUNDTRIP
350
B7E
  0
DICTIONARY
  5
B83
330
99
100
AcDbDictionary
280
0
281
0
  3
ACAD_XREC_ROUNDTRIP
350
B84
  0
DICTIONARYVAR
  5
F0
330
66
100
DictionaryVariables
  1
1:1
280
0
  0
DICTIONARYVAR
  5
EF
330
66
100
DictionaryVariables
  1
STANDARD
280
0
  0
DICTIONARYVAR
  5
89
330
66
100
DictionaryVariables
  1
STANDARD
280
0
  0
DICTIONARYVAR
  5
1B7
330
66
100
DictionaryVariables
  1
IMPERIAL24
280
0
  0
DICTIONARYVAR
  5
1B8
330
66
100
DictionaryVariables
  1
IMPERIAL24
280
0
  0
DICTIONARYVAR
  5
67
330
66
100
DictionaryVariables
  1
2
280
0
  0
DICTIONARYVAR
  5
6B
330
66
100
DictionaryVariables
  1
1
280
0
  0
DICTIONARYVAR
  5
357
330
66
100
DictionaryVariables
  1
BYLAYER
280
0
  0
DICTIONARYVAR
  5
356
330
66
100
DictionaryVariables
  1
ByLayer
280
0
  0
DICTIONARYVAR
  5
C34
330
66
100
DictionaryVariables
  1
0
280
0
  0
DICTIONARYVAR
  5
14D
330
66
100
DictionaryVariables
  1
0
280
0
  0
DICTIONARYVAR
  5
14E
330
66
100
DictionaryVariables
  1
0
280
0
  0
DICTIONARYVAR
  5
C32
330
66
100
DictionaryVariables
  1
2
280
0
  0
DICTIONARYVAR
  5
C31
330
66
100
DictionaryVariables
  1
1
280
0
  0
DICTIONARYVAR
  5
C33
330
66
100
DictionaryVariables
  1
127
280
0
  0
DICTIONARYVAR
  5
C35
330
66
100
DictionaryVariables
  1
2
280
0
  0
DICTIONARY
  5
C2F
330
B68
100
AcDbDictionary
280
0
281
0
  3
ACAD_XREC_ROUNDTRIP
350
C30
  0
DICTIONARY
  5
B6A
330
B68
100
AcDbDictionary
280
0
281
0
  0
DICTIONARY
  5
B69
330
B68
100
AcDbDictionary
280
0
281
0
  3
1510284558640
350
B63
  3
1510284558656
350
B64
  3
1510284558672
350
B65
  3
1510284558688
350
B66
  3
1510284558704
350
B67
  0
DICTIONARY
  5
BB9
330
18F
100
AcDbDictionary
280
0
281
0
  3
ACAD_XREC_ROUNDTRIP
350
BBA
  0
DICTIONARY
  5
3C5
330
3C4
100
AcDbDictionary
280
0
281
0
  0
DICTIONARY
  5
3D3
330
3D2
100
AcDbDictionary
280
0
281
0
  0
DICTIONARY
  5
75A
330
759
100
AcDbDictionary
280
0
281
0
  0
DICTIONARY
  5
760
330
75F
100
AcDbDictionary
280
0
281
0
  0
DICTIONARY
  5
B76
330
59
100
AcDbDictionary
280
0
281
0
  3
ACAD_XREC_ROUNDTRIP
350
B77
  0
DICTIONARY
  5
B79
330
5E
100
AcDbDictionary
280
0
281
0
  3
ACAD_XREC_ROUNDTRIP
350
B7A
  0
DICTIONARY
  5
194
330
22
100
AcDbDictionary
280
0
281
0
  3
ACAD_XREC_ROUNDTRIP
350
B74
  0
DICTIONARY
  5
BC8
330
25A
100
AcDbDictionary
280
0
281
0
  3
ACAD_XREC_ROUNDTRIP
350
BC9
  0
ENDSEC
  0
EOF
