  0
SECTION
  2
HEADER
  9
$ACADVER
  1
AC1024
  9
$DWGCODEPAGE
  3
ANSI_1252
  9
$PLINEGEN
 70
0
  9
$PSLTSCALE
 70
1
  9
$ANGDIR
 70
1
  9
$MIRRTEXT
 70
0
  9
$LUNITS
 70
2
  9
$LUPREC
 70
4
  9
$AUNITS
 70
0
  9
$AUPREC
 70
0
  9
$ATTMODE
 70
1
  9
$PDMODE
 70
0
  9
$SPLINESEGS
 70
8
  9
$SURFU
 70
6
  9
$SURFV
 70
6
  9
$CMLJUST
 70
0
  9
$LTSCALE
 40
1.0
  9
$TEXTSIZE
 40
2.5
  9
$TEXTSTYLE
  7
Standard
  9
$CLAYER
  8
0
  9
$CELTYPE
  6
ByLayer
  9
$CMLSTYLE
  2
Standard
  9
$ANGBASE
 50
0.0
  9
$PDSIZE
 40
0.0
  9
$CMLSCALE
 40
20.0
  9
$CELTSCALE
 40
1.0
  9
$HANDSEED
  5
EB
  9
$TDCREATE
 40
2460524.75745338
  9
$TDUCREATE
 40
2460524.63245338
  9
$TDUPDATE
 40
2460524.75745338
  9
$TDUUPDATE
 40
2460524.63245338
  9
$TDINDWG
 40
0.0
  9
$CECOLOR
 62
0
  9
$INSBASE
 10
0.0
 20
0.0
 30
0.0
  9
$CELWEIGHT
370
-1
  9
$LWDISPLAY
290
0
  9
$EXTNAMES
290
1
  9
$INSUNITS
 70
0
  9
$DIMSTYLE
  2
Standard
  0
ENDSEC
  0
SECTION
  2
CLASSES
  0
CLASS
  1
ACDBDICTIONARYWDFLT
  2
AcDbDictionaryWithDefault
  3
ObjectDBX Classes
 90
32768
 91
0
280
0
281
0
  0
CLASS
  1
ACDBPLACEHOLDER
  2
AcDbPlaceHolder
  3
ObjectDBX Classes
 90
0
 91
0
280
0
281
0
  0
CLASS
  1
LAYOUT
  2
AcDbLayout
  3
ObjectDBX Classes
 90
0
 91
0
280
0
281
0
  0
CLASS
  1
DICTIONARYVAR
  2
AcDbDictionaryVar
  3
ObjectDBX Classes
 90
0
 91
0
280
0
281
0
  0
CLASS
  1
TABLESTYLE
  2
AcDbTableStyle
  3
ObjectDBX Classes
 90
4095
 91
0
280
0
281
0
  0
CLASS
  1
MATERIAL
  2
AcDbMaterial
  3
ObjectDBX Classes
 90
1153
 91
0
280
0
281
0
  0
CLASS
  1
VISUALSTYLE
  2
AcDbVisualStyle
  3
ObjectDBX Classes
 90
4095
 91
0
280
0
281
0
  0
CLASS
  1
SCALE
  2
AcDbScale
  3
ObjectDBX Classes
 90
1153
 91
0
280
0
281
0
  0
CLASS
  1
MLEADERSTYLE
  2
AcDbMLeaderStyle
  3
ObjectDBX Classes
 90
4095
 91
0
280
0
281
0
  0
CLASS
  1
CELLSTYLEMAP
  2
AcDbCellStyleMap
  3
ObjectDBX Classes
 90
1152
 91
0
280
0
281
0
  0
CLASS
  1
EXACXREFPANELOBJECT
  2
ExAcXREFPanelObject
  3
ObjectDBX Classes
 90
1025
 91
0
280
0
281
0
  0
CLASS
  1
NPOCOLLECTION
  2
AcDbImpNonPersistentObjectsCollection
  3
ObjectDBX Classes
 90
1153
 91
0
280
0
281
0
  0
CLASS
  1
LAYER_INDEX
  2
AcDbLayerIndex
  3
ObjectDBX Classes
 90
0
 91
0
280
0
281
0
  0
CLASS
  1
SPATIAL_INDEX
  2
AcDbSpatialIndex
  3
ObjectDBX Classes
 90
0
 91
0
280
0
281
0
  0
CLASS
  1
IDBUFFER
  2
AcDbIdBuffer
  3
ObjectDBX Classes
 90
32768
 91
0
280
0
281
0
  0
CLASS
  1
ACDBSECTIONVIEWSTYLE
  2
AcDbSectionViewStyle
  3
ObjectDBX Classes
 90
1025
 91
0
280
0
281
0
  0
CLASS
  1
ACDBDETAILVIEWSTYLE
  2
AcDbDetailViewStyle
  3
ObjectDBX Classes
 90
1025
 91
0
280
0
281
0
  0
CLASS
  1
MESH
  2
AcDbSubDMesh
  3
ObjectDBX Classes
 90
0
 91
0
280
0
281
0
  0
CLASS
  1
SORTENTSTABLE
  2
AcDbSortentsTable
  3
ObjectDBX Classes
 90
0
 91
0
280
0
281
0
  0
CLASS
  1
ACDB_TEXTOBJECTCONTEXTDATA_CLASS
  2
AcDbTextObjectContextData
  3
ObjectDBX Classes
 90
1153
 91
0
280
0
281
0
  0
CLASS
  1
WIPEOUT
  2
AcDbWipeout
  3
WipeOut
 90
32895
 91
0
280
0
281
0
  0
CLASS
  1
WIPEOUTVARIABLES
  2
AcDbWipeoutVariables
  3
WipeOut
 90
32768
 91
0
280
0
281
0
  0
CLASS
  1
DIMASSOC
  2
AcDbDimAssoc
  3
AcDbDimAssoc
 90
0
 91
0
280
0
281
0
  0
CLASS
  1
ACAD_TABLE
  2
AcDbTable
  3
ObjectDBX Classes
 90
1025
 91
0
280
0
281
0
  0
CLASS
  1
TABLECONTENT
  2
AcDbTableContent
  3
ObjectDBX Classes
 90
1152
 91
0
280
0
281
0
  0
CLASS
  1
TABLEGEOMETRY
  2
AcDbTableGeometry
  3
ObjectDBX Classes
 90
1152
 91
0
280
0
281
0
  0
CLASS
  1
IMAGE
  2
AcDbRasterImage
  3
ObjectDBX Classes
 90
32895
 91
0
280
0
281
0
  0
CLASS
  1
IMAGEDEF
  2
AcDbRasterImageDef
  3
ObjectDBX Classes
 90
32768
 91
0
280
0
281
0
  0
ENDSEC
  0
SECTION
  2
TABLES
  0
TABLE
  2
VPORT
  5
8
330
0
100
AcDbSymbolTable
 70
1
  0
VPORT
  5
35
330
8
100
AcDbSymbolTableRecord
100
AcDbViewportTableRecord
  2
*Active
 70
0
 10
0.0
 20
0.0
 11
1.0
 21
1.0
 12
0.0
 22
0.0
 13
0.0
 23
0.0
 14
0.5
 24
0.5
 15
10.0
 25
10.0
 16
0.0
 26
0.0
 36
1.0
 17
0.0
 27
0.0
 37
0.0
 40
10.0
 41
1.0
 75
0
 76
1
  0
ENDTAB
  0
TABLE
  2
LTYPE
  5
5
330
0
100
AcDbSymbolTable
 70
8
  0
LTYPE
  5
2F
330
5
100
AcDbSymbolTableRecord
100
AcDbLinetypeTableRecord
  2
ByLayer
 70
0
 72
65
 73
0
 40
0.0
  0
LTYPE
  5
30
330
5
100
AcDbSymbolTableRecord
100
AcDbLinetypeTableRecord
  2
ByBlock
 70
0
 72
65
 73
0
 40
0.0
  0
LTYPE
  5
31
330
5
100
AcDbSymbolTableRecord
100
AcDbLinetypeTableRecord
  2
Continuous
 70
0
 72
65
 73
0
 40
0.0
  0
LTYPE
  5
42
330
5
100
AcDbSymbolTableRecord
100
AcDbLinetypeTableRecord
  2
ACAD_ISO02W100
 70
0
 72
65
 73
2
 40
15.0
 49
12.0
 74
0
 49
-3.0
 74
0
  0
LTYPE
  5
98
330
5
100
AcDbSymbolTableRecord
100
AcDbLinetypeTableRecord
  2
GAS_LINE
 70
0
 72
65
 73
3
 40
0.95
 49
0.5
 74
0
 49
-0.2
 74
10
 75
0
340
0
 46
0.1
 50
0.0
 44
-0.1
 45
-0.05
  9

 49
-0.25
 74
0
  0
LTYPE
  5
9A
330
5
100
AcDbSymbolTableRecord
100
AcDbLinetypeTableRecord
  2
TRACKS
 70
0
 72
65
 73
2
 40
0.3
 49
0.15
 74
4
 75
130
340
0
 46
0.25
 50
0.0
 44
0.0
 45
0.0
  9

 49
0.15
 74
0
  0
LTYPE
  5
9C
330
5
100
AcDbSymbolTableRecord
100
AcDbLinetypeTableRecord
  2
ZIGZAG
 70
0
 72
65
 73
4
 40
0.8001
 49
0.0001
 74
0
 49
-0.2
 74
4
 75
131
340
0
 46
0.2
 50
0.0
 44
-0.2
 45
0.0
  9

 49
-0.4
 74
4
 75
131
340
0
 46
0.2
 50
0.0548311355616075
 44
0.2
 45
0.0
  9

 49
-0.2
 74
0
  0
LTYPE
  5
9E
330
5
100
AcDbSymbolTableRecord
100
AcDbLinetypeTableRecord
  2
BATTING
 70
0
 72
65
 73
4
 40
0.4001
 49
0.0001
 74
0
 49
-0.1
 74
4
 75
134
340
0
 46
0.1
 50
0.0
 44
-0.1
 45
0.0
  9

 49
-0.2
 74
4
 75
134
340
0
 46
0.1
 50
0.0548311355616075
 44
0.1
 45
0.0
  9

 49
-0.1
 74
0
  0
ENDTAB
  0
TABLE
  2
LAYER
  5
2
330
0
100
AcDbSymbolTable
 70
8
  0
LAYER
  5
32
330
2
100
AcDbSymbolTableRecord
100
AcDbLayerTableRecord
  2
0
 70
0
 62
7
  6
Continuous
290
1
370
-3
390
0
  0
LAYER
  5
3F
330
2
100
AcDbSymbolTableRecord
100
AcDbLayerTableRecord
  2
Layer_Lock
 70
0
 62
7
  6
Continuous
290
1
370
-3
390
0
  0
LAYER
  5
5B
330
2
100
AcDbSymbolTableRecord
100
AcDbLayerTableRecord
  2
Layer_true_color
 70
0
 62
7
  6
Continuous
290
1
370
-3
390
0
  0
LAYER
  5
81
330
2
100
AcDbSymbolTableRecord
100
AcDbLayerTableRecord
  2
Layer1
 70
0
 62
7
  6
Continuous
290
1
370
-3
390
0
  0
LAYER
  5
88
330
2
100
AcDbSymbolTableRecord
100
AcDbLayerTableRecord
  2
Layer2
 70
0
 62
7
  6
Continuous
290
1
370
-3
390
0
  0
LAYER
  5
A6
330
2
100
AcDbSymbolTableRecord
100
AcDbLayerTableRecord
  2
Layer_Lt_dash
 70
0
 62
7
  6
ACAD_ISO02W100
290
1
370
-3
390
0
  0
LAYER
  5
C2
330
2
100
AcDbSymbolTableRecord
100
AcDbLayerTableRecord
  2
Layer_color_80
 70
0
 62
7
  6
Continuous
290
1
370
-3
390
0
  0
LAYER
  5
C8
330
2
100
AcDbSymbolTableRecord
100
AcDbLayerTableRecord
  2
Layer_color_book
 70
0
 62
7
  6
Continuous
290
1
370
-3
390
0
  0
ENDTAB
  0
TABLE
  2
STYLE
  5
4
330
0
100
AcDbSymbolTable
 70
2
  0
STYLE
  5
33
330
4
100
AcDbSymbolTableRecord
100
AcDbTextStyleTableRecord
  2
Standard
 70
0
 40
0.0
 41
1.0
 42
0.0
 50
0.0
 71
0
  0
STYLE
  5
5E
330
4
102
{ACAD_XDICTIONARY
360
5F
102
}
100
AcDbSymbolTableRecord
100
AcDbTextStyleTableRecord
  2
custom_text_style
 70
0
  3
consola.ttf
 40
0.0
 41
1.0
 42
7.5
 50
0.0
 71
0
  0
ENDTAB
  0
TABLE
  2
VIEW
  5
6
330
0
100
AcDbSymbolTable
 70
0
  0
ENDTAB
  0
TABLE
  2
UCS
  5
7
330
0
100
AcDbSymbolTable
 70
0
  0
ENDTAB
  0
TABLE
  2
APPID
  5
9
330
0
100
AcDbSymbolTable
 70
1
  0
APPID
  5
2E
330
9
100
AcDbSymbolTableRecord
100
AcDbRegAppTableRecord
  2
ACAD
 70
0
  0
ENDTAB
  0
TABLE
  2
DIMSTYLE
  5
3
330
0
100
AcDbSymbolTable
 70
2
100
AcDbDimStyleTable
  0
DIMSTYLE
105
34
330
3
100
AcDbSymbolTableRecord
100
AcDbDimStyleTableRecord
  2
Standard
 70
0
  3
<>
  4
[]
 40
1.0
 41
0.18
 42
0.625
 43
3.75
 44
1.25
 45
0.0
 46
0.0
 47
0.0
 48
0.0
 49
1.0
 50
45.0
 70
0
 90
0
140
0.18
141
2.5
142
0.0
143
25.4
144
1.0
145
0.0
146
1.0
147
0.625
148
0.0
 71
0
 72
0
 73
0
 74
0
 75
0
 76
0
 77
1
 78
8
 79
0
170
0
171
3
172
0
173
1
174
0
175
0
176
0
177
0
178
0
179
0
271
2
272
2
273
2
274
3
275
0
276
0
277
2
278
46
279
0
280
0
281
0
282
0
283
0
284
8
285
0
286
0
287
0
288
0
289
3
290
0
340
33
341
0
342
0
343
0
344
0
371
-2
372
-2
  0
DIMSTYLE
105
82
330
3
100
AcDbSymbolTableRecord
100
AcDbDimStyleTableRecord
  2
ISO-25
 70
0
  3
<>
  4
[]
 40
1.0
 41
0.18
 42
0.625
 43
3.75
 44
1.25
 45
0.0
 46
0.0
 47
0.0
 48
0.0
 49
1.0
 50
45.0
 70
0
 90
0
140
0.18
141
2.5
142
0.0
143
25.4
144
1.0
145
0.0
146
1.0
147
0.625
148
0.0
 71
0
 72
0
 73
0
 74
0
 75
0
 76
0
 77
1
 78
8
 79
0
170
0
171
3
172
0
173
1
174
0
175
0
176
0
177
0
178
0
179
0
271
2
272
2
273
2
274
3
275
0
276
0
277
2
278
46
279
0
280
0
281
0
282
0
283
0
284
8
285
0
286
0
287
0
288
0
289
3
290
0
340
33
341
0
342
0
343
0
344
0
371
-2
372
-2
  0
ENDTAB
  0
TABLE
  2
BLOCK_RECORD
  5
1
330
0
100
AcDbSymbolTable
 70
4
  0
BLOCK_RECORD
  5
36
330
1
100
AcDbSymbolTableRecord
100
AcDbBlockTableRecord
  2
*Model_Space
 70
0
340
E
 70
0
  0
BLOCK_RECORD
  5
39
330
1
100
AcDbSymbolTableRecord
100
AcDbBlockTableRecord
  2
*Paper_Space
 70
0
340
F
 70
0
  0
BLOCK_RECORD
  5
AF
330
1
102
{ACAD_XDICTIONARY
360
B4
102
}
100
AcDbSymbolTableRecord
100
AcDbBlockTableRecord
  2
MyBlock
 70
0
340
0
 70
4
  0
BLOCK_RECORD
  5
CB
330
1
102
{ACAD_XDICTIONARY
360
D0
102
}
100
AcDbSymbolTableRecord
100
AcDbBlockTableRecord
  2
my_block_v2
 70
0
340
0
 70
6
  0
ENDTAB
  0
ENDSEC
  0
SECTION
  2
BLOCKS
  0
BLOCK
  5
37
330
36
100
AcDbEntity
  8
0
  6
ByLayer
 62
256
 48
1.0
 60
0
370
-1
100
AcDbBlockBegin
  2
*Model_Space
 70
0
 10
0.0
 20
0.0
 30
0.0
  3
*Model_Space
  0
ENDBLK
  5
38
330
36
100
AcDbEntity
  8
0
100
AcDbBlockEnd
  0
BLOCK
  5
3A
330
39
100
AcDbEntity
  8
0
  6
ByLayer
 62
256
 48
1.0
 60
0
370
-1
100
AcDbBlockBegin
  2
*Paper_Space
 70
0
 10
0.0
 20
0.0
 30
0.0
  3
*Paper_Space
  0
ENDBLK
  5
3B
330
39
100
AcDbEntity
  8
0
100
AcDbBlockEnd
  0
BLOCK
  5
B0
330
AF
102
{ACAD_XDICTIONARY
360
B1
102
}
100
AcDbEntity
  8
0
  6
ByLayer
 62
256
 48
1.0
 60
0
370
-1
100
AcDbBlockBegin
  2
MyBlock
 70
0
 10
0.0
 20
0.0
 30
0.0
  3
MyBlock
  4

  0
LINE
  5
B5
330
AF
102
{ACAD_XDICTIONARY
360
B6
102
}
100
AcDbEntity
  8
0
  6
ByLayer
 62
256
 48
1.0
 60
0
370
-1
100
AcDbLine
 10
-40.0
 20
-40.0
 30
0.0
 11
40.0
 21
40.0
 31
0.0
 39
0.0
210
0.0
220
0.0
230
1.0
  0
LINE
  5
B7
330
AF
102
{ACAD_XDICTIONARY
360
B8
102
}
100
AcDbEntity
  8
0
  6
ByLayer
 62
256
 48
1.0
 60
0
370
-1
100
AcDbLine
 10
-40.0
 20
40.0
 30
0.0
 11
40.0
 21
-40.0
 31
0.0
 39
0.0
210
0.0
220
0.0
230
1.0
  0
CIRCLE
  5
B9
330
AF
102
{ACAD_XDICTIONARY
360
BA
102
}
100
AcDbEntity
  8
0
  6
ByLayer
 62
256
 48
1.0
 60
0
370
-1
100
AcDbCircle
 10
0.0
 20
0.0
 30
0.0
 39
0.0
 40
30.0
210
0.0
220
0.0
230
1.0
  0
ATTDEF
  5
BB
330
AF
102
{ACAD_XDICTIONARY
360
BC
102
}
100
AcDbEntity
  8
0
  6
ByLayer
 62
256
 48
1.0
 60
0
370
-1
100
AcDbText
  1
1
 10
0.0
 20
0.0
 30
0.0
 40
5.0
210
0.0
220
0.0
230
1.0
100
AcDbAttributeDefinition
  3
Enter number:
  2
ATTINFO
 70
0
 73
0
  0
ENDBLK
  5
B2
330
AF
102
{ACAD_XDICTIONARY
360
B3
102
}
100
AcDbEntity
  8
0
100
AcDbBlockEnd
  0
BLOCK
  5
CC
330
CB
102
{ACAD_XDICTIONARY
360
CD
102
}
100
AcDbEntity
  8
0
  6
ByLayer
 62
256
 48
1.0
 60
0
370
-1
100
AcDbBlockBegin
  2
my_block_v2
 70
0
 10
0.0
 20
0.0
 30
0.0
  3
my_block_v2
  4

  0
LWPOLYLINE
  5
D1
330
CB
102
{ACAD_XDICTIONARY
360
D2
102
}
100
AcDbEntity
  8
0
  6
ByLayer
 62
256
 48
1.0
 60
0
370
-1
100
AcDbPolyline
 90
7
 70
1
 38
0.0
 39
0.0
 10
962.400505310526
 20
0.361304862823909
 40
0.0
 41
0.0
 42
0.0
 10
960.206653451059
 20
1.79288966738087
 40
0.0
 41
0.0
 42
-0.799559496789356
 10
961.214034405708
 20
4.49947974778114
 40
0.0
 41
0.0
 42
0.543861678943975
 10
962.825843836815
 20
6.37843480719895
 40
0.0
 41
0.0
 42
-2.84437747740574
 10
964.885378323965
 20
4.94685000264199
 40
0.0
 41
0.0
 42
0.718750983852531
 10
964.101859776925
 20
1.94946925108329
 40
0.0
 41
0.0
 42
0.273793837963669
 10
963.061297025563
 20
1.33349456126218
 40
0.0
 41
0.0
 42
-0.0476105397037214
210
0.0
220
0.0
230
1.0
  0
ATTDEF
  5
D3
330
CB
102
{ACAD_XDICTIONARY
360
D4
102
}
100
AcDbEntity
  8
0
  6
ByLayer
 62
256
 48
1.0
 60
0
370
-1
100
AcDbText
  1

 10
954.807477957349
 20
5.98387238639042
 30
0.0
 40
0.410546356340082
210
0.0
220
0.0
230
1.0
100
AcDbAttributeDefinition
  3
this is an example of prompt
  2
MULTI_LINE_ATT
 70
0
 73
0
 74
3
  0
ATTDEF
  5
D5
330
CB
102
{ACAD_XDICTIONARY
360
D6
102
}
100
AcDbEntity
  8
0
  6
ByLayer
 62
256
 48
1.0
 60
0
370
-1
100
AcDbText
  1

 10
958.929706104188
 20
9.48634387968891
 30
0.0
 40
0.410546356340082
210
0.0
220
0.0
230
1.0
100
AcDbAttributeDefinition
  3
a preset prompt
  2
PRESET_ATT
 70
8
 73
0
 74
3
  0
ATTDEF
  5
D7
330
CB
102
{ACAD_XDICTIONARY
360
D8
102
}
100
AcDbEntity
  8
0
  6
ByLayer
 62
256
 48
1.0
 60
0
370
-1
100
AcDbText
  1

 10
954.602287032648
 20
2.3530699782608
 30
0.0
 40
0.410546356340082
210
0.0
220
0.0
230
1.0
100
AcDbAttributeDefinition
  3

  2
CONSTANT_ATT
 70
2
 73
0
  0
ATTDEF
  5
D9
330
CB
102
{ACAD_XDICTIONARY
360
DA
102
}
100
AcDbEntity
  8
0
  6
ByLayer
 62
256
 48
1.0
 60
0
370
-1
100
AcDbText
  1

 10
957.051921492461
 20
-0.0946016018677529
 30
0.0
 40
0.410546356340082
210
0.0
220
0.0
230
1.0
100
AcDbAttributeDefinition
  3
verify_prompt
  2
VERIFY_ATT
 70
4
 73
0
  0
ENDBLK
  5
CE
330
CB
102
{ACAD_XDICTIONARY
360
CF
102
}
100
AcDbEntity
  8
0
100
AcDbBlockEnd
  0
ENDSEC
  0
SECTION
  2
ENTITIES
  0
POINT
  5
3C
330
36
100
AcDbEntity
  8
0
  6
ByLayer
 62
256
 48
1.0
 60
0
370
-1
100
AcDbPoint
 10
1.49440415013685
 20
1.49132589867844
 30
0.0
 39
0.0
210
0.0
220
0.0
230
1.0
 50
0.0
  0
POINT
  5
3D
330
36
100
AcDbEntity
  8
0
  6
ByBlock
 62
0
 48
1.0
 60
0
370
-2
100
AcDbPoint
 10
1.49440415013685
 20
2.24147314439643
 30
0.0
 39
0.0
210
0.0
220
0.0
230
1.0
 50
0.0
  0
POINT
  5
3E
330
36
100
AcDbEntity
  8
Layer_Lock
  6
Continuous
 62
2
 48
1.0
 60
0
370
-1
100
AcDbPoint
 10
1.49440415013685
 20
3.00501584581972
 30
0.0
 39
0.0
210
0.0
220
0.0
230
1.0
 50
0.0
  0
POINT
  5
40
330
36
100
AcDbEntity
  8
0
  6
ByLayer
420
9636597
 48
2.0
 60
0
370
-1
100
AcDbPoint
 10
1.49440415013685
 20
3.71497661786495
 30
0.0
 39
0.0
210
0.0
220
0.0
230
1.0
 50
0.0
  0
POINT
  5
41
330
36
100
AcDbEntity
  8
0
  6
ACAD_ISO02W100
 62
256
 48
1.0
 60
0
370
-1
100
AcDbPoint
 10
1.49440415013685
 20
4.4115419128935
 30
0.0
 39
0.0
210
0.0
220
0.0
230
1.0
 50
0.0
  0
POINT
  5
43
330
36
100
AcDbEntity
  8
0
  6
ByLayer
 62
7
 48
1.0
 60
0
370
-1
100
AcDbPoint
 10
1.49440415013685
 20
5.12150268493873
 30
0.0
 39
0.0
210
0.0
220
0.0
230
1.0
 50
0.0
  0
LINE
  5
44
330
36
100
AcDbEntity
  8
0
  6
ByLayer
 62
256
 48
1.0
 60
0
370
-1
100
AcDbLine
 10
3.59253399890939
 20
1.4772418961802
 30
0.0
 11
6.86354703397956
 21
1.4772418961802
 31
0.0
 39
0.0
210
0.0
220
0.0
230
1.0
  0
LINE
  5
45
330
36
100
AcDbEntity
  8
0
  6
ACAD_ISO02W100
 62
3
 48
1.0
 60
0
370
13
100
AcDbLine
 10
3.59253399890939
 20
2.29771004708093
 30
0.0
 11
6.86354703397956
 21
2.29771004708093
 31
0.0
 39
0.0
210
0.0
220
0.0
230
1.0
  0
LWPOLYLINE
  5
46
330
36
100
AcDbEntity
  8
0
  6
ByLayer
 62
256
 48
1.0
 60
0
370
-1
100
AcDbPolyline
 90
5
 70
0
 38
0.0
 39
0.0
 10
12.1405161954316
 20
1.37983119435663
 40
0.0
 41
0.0
 42
0.0
 10
10.9463776085586
 20
4.05346711062759
 40
0.0
 41
0.0
 42
0.0
 10
12.7818129554314
 20
5.04779447978565
 40
0.0
 41
0.0
 42
0.0
 10
15.3248860815288
 20
3.25800519330564
 40
0.0
 41
0.0
 42
0.0
 10
12.914494993881
 20
2.77188957716444
 40
0.0
 41
0.0
 42
0.0
210
0.0
220
0.0
230
1.0
  0
LWPOLYLINE
  5
47
330
36
100
AcDbEntity
  8
0
  6
ByLayer
 62
256
 48
1.0
 60
0
370
-1
100
AcDbPolyline
 90
7
 70
1
 38
0.0
 39
0.0
 10
19.3656302580073
 20
1.79741645278733
 40
0.0
 41
0.0
 42
0.0
 10
17.6319178313619
 20
3.60046347638152
 40
0.0
 41
0.0
 42
0.0
 10
20.6393782124462
 20
5.65098756291582
 40
0.0
 41
0.0
 42
0.0
 10
22.7976732102957
 20
4.09541754727298
 40
0.0
 41
0.0
 42
0.0
 10
21.5239253762702
 20
2.75197077556918
 40
0.0
 41
0.0
 42
0.0
 10
22.939200814306
 20
1.9388319487467
 40
0.0
 41
0.0
 42
0.0
 10
21.5593071568594
 20
0.383261933103853
 40
0.0
 41
0.0
 42
0.0
210
0.0
220
0.0
230
1.0
  0
LWPOLYLINE
  5
48
330
36
100
AcDbEntity
  8
0
  6
ByLayer
 62
256
 48
1.0
 60
0
370
-1
100
AcDbPolyline
 90
7
 70
1
 38
0.0
 39
0.0
 10
28.0056368441282
 20
0.361304862823907
 40
0.0
 41
0.0
 42
0.0
 10
25.8117849846613
 20
1.79288966738087
 40
0.0
 41
0.0
 42
-0.799559496789356
 10
26.8191659393103
 20
4.49947974778114
 40
0.0
 41
0.0
 42
0.543861678943975
 10
28.4309753704178
 20
6.37843480719895
 40
0.0
 41
0.0
 42
-2.84437747740574
 10
30.4905098575679
 20
4.94685000264199
 40
0.0
 41
0.0
 42
0.718750983852531
 10
29.7069913105269
 20
1.94946925108329
 40
0.0
 41
0.0
 42
0.273793837963669
 10
28.666428559166
 20
1.33349456126217
 40
0.0
 41
0.0
 42
-0.0476105397037214
210
0.0
220
0.0
230
1.0
  0
LWPOLYLINE
  5
49
330
36
100
AcDbEntity
  8
0
  6
ByLayer
 62
256
 48
1.0
 60
0
370
-1
100
AcDbPolyline
 90
5
 70
0
 38
0.0
 39
0.0
 10
35.3008317241206
 20
5.70074568984457
 40
0.0
 41
0.0
 42
2.12777622037806
 10
39.6519677112644
 20
5.70074568984457
 40
0.0
 41
0.0
 42
0.307935849143464
 10
38.3466269030799
 20
11.099127218258
 40
0.0
 41
0.0
 42
0.0
 10
35.6634263395437
 20
8.74412856049466
 40
0.0
 41
0.0
 42
0.0
 10
38.0464184504254
 20
8.33006720230919
 40
3.66960951761941
 41
5.08056392803054
 42
0.0
210
0.0
220
0.0
230
1.0
  0
CIRCLE
  5
4A
330
36
100
AcDbEntity
  8
0
  6
ByLayer
 62
256
 48
1.0
 60
0
370
-1
100
AcDbCircle
 10
46.8724783614526
 20
6.6729639639462
 30
0.0
 39
0.0
 40
3.68248095158793
210
0.0
220
0.0
230
1.0
  0
ARC
  5
4B
330
36
100
AcDbEntity
  8
0
  6
ByLayer
 62
256
 48
1.0
 60
0
370
-1
100
AcDbCircle
 10
56.3517924259523
 20
4.69760173251888
 30
0.0
 39
0.0
 40
3.04449439059889
210
0.0
220
0.0
230
1.0
100
AcDbArc
 50
341.043545351196
 51
161.043545351196
  0
ELLIPSE
  5
4C
330
36
100
AcDbEntity
  8
0
  6
ByLayer
 62
256
 48
1.0
 60
0
370
-1
100
AcDbEllipse
 10
68.000516893537
 20
4.18521049735528
 30
0.0
 11
-5.10125530629179
 21
0.0
 31
0.0
210
0.0
220
0.0
230
1.0
 39
0.0
 40
0.640372738515538
 41
0.0
 42
6.28318530717959
  0
3DFACE
  5
4D
330
36
100
AcDbEntity
  8
0
  6
ByLayer
 62
256
 48
1.0
 60
0
370
-1
100
AcDbFace
 10
75.0394178539563
 20
8.05039238222594
 30
0.0
 11
80.721041570185
 21
8.05039238222594
 31
0.0
 12
82.1904270902043
 22
1.49233563275085
 32
0.0
 13
76.606762425968
 23
1.49233563275085
 33
0.0
 70
0
  0
LWPOLYLINE
  5
4E
330
36
100
AcDbEntity
  8
0
  6
ByLayer
 62
256
 48
1.0
 60
0
370
-1
100
AcDbPolyline
 90
4
 70
1
 38
0.0
 39
0.0
 10
102.745761602892
 20
0.0853177934775715
 40
0.0
 41
0.0
 42
0.0
 10
123.19908748479
 20
0.0853177934775715
 40
0.0
 41
0.0
 42
0.0
 10
123.19908748479
 20
13.7100687448263
 40
0.0
 41
0.0
 42
0.0
 10
102.745761602892
 20
13.7100687448263
 40
0.0
 41
0.0
 42
0.0
210
0.0
220
0.0
230
1.0
  0
HATCH
  5
4F
330
36
100
AcDbEntity
  8
0
  6
ByLayer
 62
256
 48
1.0
 60
0
370
-1
100
AcDbHatch
 10
0.0
 20
0.0
 30
0.0
210
0.0
220
0.0
230
1.0
  2
ANSI31
 70
0
 71
1
 91
1
 92
1
 93
4
 72
1
 10
102.745761602892
 20
0.0853177934775715
 11
123.19908748479
 21
0.0853177934775715
 72
1
 10
123.19908748479
 20
0.0853177934775715
 11
123.19908748479
 21
13.7100687448263
 72
1
 10
123.19908748479
 20
13.7100687448263
 11
102.745761602892
 21
13.7100687448263
 72
1
 10
102.745761602892
 20
13.7100687448263
 11
102.745761602892
 21
0.0853177934775715
 97
1
330
4E
 75
1
 76
1
 52
0.0
 41
1.0
 77
0
 78
1
 53
45.0
 43
2.75038172371808
 44
0.0
 45
-0.0883883476483184
 46
0.0883883476483184
 79
0
 98
1
 10
2.75038172371808
 20
0.0
  0
LWPOLYLINE
  5
50
330
36
100
AcDbEntity
  8
0
  6
ByLayer
 62
256
 48
1.0
 60
0
370
-1
100
AcDbPolyline
 90
5
 70
0
 38
0.0
 39
0.0
 10
12.1405161954316
 20
7.49931616368043
 40
0.2
 41
0.1
 42
0.0
 10
10.9463776085586
 20
10.1729520799514
 40
0.0
 41
0.0
 42
0.0
 10
12.7818129554314
 20
11.1672794491094
 40
0.0
 41
0.0
 42
0.0
 10
15.6844771244563
 20
8.91632950439668
 40
0.0
 41
0.0
 42
0.0
 10
13.2740860368084
 20
8.43021388825549
 40
0.1
 41
0.5
 42
0.0
210
0.0
220
0.0
230
1.0
  0
LWPOLYLINE
  5
51
330
36
100
AcDbEntity
  8
0
  6
ByLayer
 62
256
 48
1.0
 60
0
370
-1
100
AcDbPolyline
 90
4
 70
1
 38
0.0
 39
0.0
 10
102.745761602892
 20
17.3141306084723
 40
0.0
 41
0.0
 42
0.0
 10
123.19908748479
 20
17.3141306084723
 40
0.0
 41
0.0
 42
0.0
 10
123.19908748479
 20
30.938881559821
 40
0.0
 41
0.0
 42
0.0
 10
102.745761602892
 20
30.938881559821
 40
0.0
 41
0.0
 42
0.0
210
0.0
220
0.0
230
1.0
  0
HATCH
  5
52
330
36
100
AcDbEntity
  8
0
  6
ByLayer
 62
256
 48
1.0
 60
0
370
-1
100
AcDbHatch
 10
0.0
 20
0.0
 30
0.0
210
0.0
220
0.0
230
1.0
  2
AR-PARQ1
 70
0
 71
1
 91
1
 92
1
 93
4
 72
1
 10
102.745761602892
 20
17.3141306084723
 11
123.19908748479
 21
17.3141306084723
 72
1
 10
123.19908748479
 20
17.3141306084723
 11
123.19908748479
 21
30.938881559821
 72
1
 10
123.19908748479
 20
30.938881559821
 11
102.745761602892
 21
30.938881559821
 72
1
 10
102.745761602892
 20
30.938881559821
 11
102.745761602892
 21
17.3141306084723
 97
1
330
51
 75
1
 76
1
 52
0.0
 41
1.0
 77
0
 78
14
 53
90.0
 43
0.0
 44
0.0
 45
-12.0
 46
12.0
 79
2
 49
12.0
 49
-12.0
 53
90.0
 43
2.0
 44
0.0
 45
-12.0
 46
12.0
 79
2
 49
12.0
 49
-12.0
 53
90.0
 43
4.0
 44
0.0
 45
-12.0
 46
12.0
 79
2
 49
12.0
 49
-12.0
 53
90.0
 43
6.0
 44
0.0
 45
-12.0
 46
12.0
 79
2
 49
12.0
 49
-12.0
 53
90.0
 43
8.0
 44
0.0
 45
-12.0
 46
12.0
 79
2
 49
12.0
 49
-12.0
 53
90.0
 43
10.0
 44
0.0
 45
-12.0
 46
12.0
 79
2
 49
12.0
 49
-12.0
 53
90.0
 43
12.0
 44
0.0
 45
-12.0
 46
12.0
 79
2
 49
12.0
 49
-12.0
 53
0.0
 43
0.0
 44
12.0
 45
12.0
 46
-12.0
 79
2
 49
12.0
 49
-12.0
 53
0.0
 43
0.0
 44
14.0
 45
12.0
 46
-12.0
 79
2
 49
12.0
 49
-12.0
 53
0.0
 43
0.0
 44
16.0
 45
12.0
 46
-12.0
 79
2
 49
12.0
 49
-12.0
 53
0.0
 43
0.0
 44
18.0
 45
12.0
 46
-12.0
 79
2
 49
12.0
 49
-12.0
 53
0.0
 43
0.0
 44
20.0
 45
12.0
 46
-12.0
 79
2
 49
12.0
 49
-12.0
 53
0.0
 43
0.0
 44
22.0
 45
12.0
 46
-12.0
 79
2
 49
12.0
 49
-12.0
 53
0.0
 43
0.0
 44
24.0
 45
12.0
 46
-12.0
 79
2
 49
12.0
 49
-12.0
 98
1
 10
0.0
 20
0.0
  0
LWPOLYLINE
  5
53
330
36
100
AcDbEntity
  8
0
  6
ByLayer
 62
256
 48
1.0
 60
0
370
-1
100
AcDbPolyline
 90
4
 70
1
 38
0.0
 39
0.0
 10
102.745761602892
 20
33.4672114995504
 40
0.0
 41
0.0
 42
0.0
 10
123.19908748479
 20
33.4672114995504
 40
0.0
 41
0.0
 42
0.0
 10
123.19908748479
 20
47.0919624508991
 40
0.0
 41
0.0
 42
0.0
 10
102.745761602892
 20
47.0919624508991
 40
0.0
 41
0.0
 42
0.0
210
0.0
220
0.0
230
1.0
  0
HATCH
  5
54
330
36
100
AcDbEntity
  8
0
  6
ByLayer
 62
256
 48
1.0
 60
0
370
-1
100
AcDbHatch
 10
0.0
 20
0.0
 30
0.0
210
0.0
220
0.0
230
1.0
  2
SOLID,_O
 70
1
 71
1
 91
1
 92
1
 93
4
 72
1
 10
102.745761602892
 20
33.4672114995504
 11
123.19908748479
 21
33.4672114995504
 72
1
 10
123.19908748479
 20
33.4672114995504
 11
123.19908748479
 21
47.0919624508991
 72
1
 10
123.19908748479
 20
47.0919624508991
 11
102.745761602892
 21
47.0919624508991
 72
1
 10
102.745761602892
 20
47.0919624508991
 11
102.745761602892
 21
33.4672114995504
 97
1
330
53
 75
1
 76
1
 98
1
 10
0.0
 20
0.0
  0
LWPOLYLINE
  5
55
330
36
100
AcDbEntity
  8
0
  6
ByLayer
 62
256
 48
1.0
 60
0
370
-1
100
AcDbPolyline
 90
4
 70
1
 38
0.0
 39
0.0
 10
102.745761602892
 20
49.5096547418996
 40
0.0
 41
0.0
 42
0.0
 10
123.19908748479
 20
49.5096547418996
 40
0.0
 41
0.0
 42
0.0
 10
123.19908748479
 20
63.1344056932483
 40
0.0
 41
0.0
 42
0.0
 10
102.745761602892
 20
63.1344056932483
 40
0.0
 41
0.0
 42
0.0
210
0.0
220
0.0
230
1.0
  0
HATCH
  5
56
330
36
100
AcDbEntity
  8
0
  6
ByLayer
 62
256
 48
1.0
 60
0
370
-1
100
AcDbHatch
 10
0.0
 20
0.0
 30
0.0
210
0.0
220
0.0
230
1.0
  2
SOLID,_O
 70
1
 71
1
 91
1
 92
1
 93
4
 72
1
 10
102.745761602892
 20
49.5096547418996
 11
123.19908748479
 21
49.5096547418996
 72
1
 10
123.19908748479
 20
49.5096547418996
 11
123.19908748479
 21
63.1344056932483
 72
1
 10
123.19908748479
 20
63.1344056932483
 11
102.745761602892
 21
63.1344056932483
 72
1
 10
102.745761602892
 20
63.1344056932483
 11
102.745761602892
 21
49.5096547418996
 97
1
330
55
 75
1
 76
1
 98
1
 10
0.0
 20
0.0
  0
XLINE
  5
57
330
36
100
AcDbEntity
  8
0
  6
ByLayer
 62
256
 48
1.0
 60
0
370
-1
100
AcDbXline
 10
-6.80568835837437
 20
-5.11057303876828
 30
0.0
 11
0.0
 21
1.0
 31
0.0
  0
RAY
  5
58
330
36
100
AcDbEntity
  8
0
  6
ByLayer
 62
256
 48
1.0
 60
0
370
-1
100
AcDbRay
 10
-15.4176098639582
 20
-4.20354218647213
 30
0.0
 11
0.0
 21
1.0
 31
0.0
  0
MLINE
  5
59
330
36
100
AcDbEntity
  8
0
  6
ByLayer
 62
256
 48
1.0
 60
0
370
-1
100
AcDbMline
  2
Standard
340
15
 40
1.5
 70
1
 71
1
 72
8
 73
0
 10
137.828615337973
 20
1.01457844964628
 30
0.0
210
0.0
220
0.0
230
1.0
 11
137.828615337973
 21
1.01457844964628
 31
0.0
 12
0.0
 22
1.0
 32
0.0
 13
-1.0
 23
0.0000000000000001
 33
0.0
 74
2
 41
0.75
 41
0.0
 75
0
 74
2
 41
-0.75
 41
0.0
 75
0
 11
137.828615337973
 21
8.93172710492843
 31
0.0
 12
1.0
 22
0.0
 32
0.0
 13
-0.707106781186547
 23
0.707106781186548
 33
0.0
 74
2
 41
1.06066017177982
 41
0.0
 75
0
 74
2
 41
-1.06066017177982
 41
0.0
 75
0
 11
142.14912813203
 21
8.93172710492843
 31
0.0
 12
0.0
 22
1.0
 32
0.0
 13
-0.707106781186547
 23
0.707106781186548
 33
0.0
 74
2
 41
1.06066017177982
 41
0.0
 75
0
 74
2
 41
-1.06066017177982
 41
0.0
 75
0
 11
142.14912813203
 21
14.182719629951
 31
0.0
 12
-1.0
 22
0.0000000000000002
 32
0.0
 13
-0.707106781186548
 23
-0.707106781186548
 33
0.0
 74
2
 41
1.06066017177982
 41
0.0
 75
0
 74
2
 41
-1.06066017177982
 41
0.0
 75
0
 11
133.616597846833
 21
14.182719629951
 31
0.0
 12
0.0
 22
1.0
 32
0.0
 13
-0.707106781186548
 23
-0.707106781186548
 33
0.0
 74
2
 41
1.06066017177982
 41
0.0
 75
0
 74
2
 41
-1.06066017177982
 41
0.0
 75
0
 11
133.616597846833
 21
20.0234272312665
 31
0.0
 12
1.0
 22
0.0
 32
0.0
 13
-0.707106781186547
 23
0.707106781186548
 33
0.0
 74
2
 41
1.06066017177982
 41
0.0
 75
0
 74
2
 41
-1.06066017177982
 41
0.0
 75
0
 11
141.608640949161
 21
20.0234272312665
 31
0.0
 12
0.0
 22
1.0
 32
0.0
 13
-0.707106781186547
 23
0.707106781186548
 33
0.0
 74
2
 41
1.06066017177982
 41
0.0
 75
0
 74
2
 41
-1.06066017177982
 41
0.0
 75
0
 11
141.608640949161
 21
26.682650090512
 31
0.0
 12
0.0
 22
1.0
 32
0.0
 13
-1.0
 23
0.0000000000000001
 33
0.0
 74
2
 41
0.75
 41
0.0
 75
0
 74
2
 41
-0.75
 41
0.0
 75
0
  0
MLINE
  5
5A
330
36
100
AcDbEntity
  8
Layer_true_color
  6
ByLayer
 62
256
 48
1.0
 60
0
370
-1
100
AcDbMline
  2
Standard
340
15
 40
2.13094331641872
 70
0
 71
1
 72
2
 73
0
 10
132.546887891034
 20
37.5406345497555
 30
0.0
210
0.0
220
0.0
230
1.0
 11
132.546887891034
 21
37.5406345497555
 31
0.0
 12
0.0
 22
1.0
 32
0.0
 13
-1.0
 23
0.0000000000000001
 33
0.0
 74
2
 41
0.0
 41
0.0
 75
0
 74
4
 41
-2.13094331641872
 41
0.0
 41
3.46278288918042
 41
5.06099037649447
 75
0
 11
132.546887891034
 21
46.0644078154304
 31
0.0
 12
0.0
 22
1.0
 32
0.0
 13
-1.0
 23
0.0000000000000001
 33
0.0
 74
2
 41
0.0
 41
0.0
 75
0
 74
2
 41
-2.13094331641872
 41
0.0
 75
0
  0
MLINE
  5
5C
330
36
100
AcDbEntity
  8
Layer_true_color
  6
ByLayer
 62
256
 48
1.0
 60
0
370
-1
100
AcDbMline
  2
Standard
340
15
 40
1.59820748731404
 70
1
 71
1
 72
2
 73
0
 10
132.546887891034
 20
41.8025211825929
 30
0.0
210
0.0
220
0.0
230
1.0
 11
132.546887891034
 21
41.8025211825929
 31
0.0
 12
1.0
 22
0.0
 32
0.0
 13
0.0000000000000002
 23
1.0
 33
0.0
 74
2
 41
0.799103743657021
 41
2.13094331641872
 75
0
 74
2
 41
-0.799103743657021
 41
2.13094331641872
 75
0
 11
141.070661156709
 21
41.8025211825929
 31
0.0
 12
1.0
 22
0.0
 32
0.0
 13
0.0000000000000002
 23
1.0
 33
0.0
 74
2
 41
0.799103743657021
 41
0.0
 75
0
 74
2
 41
-0.799103743657021
 41
0.0
 75
0
  0
TEXT
  5
5D
330
36
100
AcDbEntity
  8
0
  6
ByLayer
 62
256
 48
1.0
 60
0
370
-1
100
AcDbText
  1
Hello this is a single line text
 10
147.81944711946
 20
2.85497529980876
 30
0.0
 40
1.0
210
0.0
220
0.0
230
1.0
100
AcDbText
  0
TEXT
  5
60
330
36
102
{ACAD_XDICTIONARY
360
61
102
}
100
AcDbEntity
  8
0
  6
ByLayer
 62
256
 48
1.0
 60
0
370
-1
100
AcDbText
  1
Hello this is a single line text
 10
147.81944711946
 20
10.3257405013127
 30
0.0
 40
1.0
210
0.0
220
0.0
230
1.0
100
AcDbText
  0
TEXT
  5
64
330
36
100
AcDbEntity
  8
0
  6
ByLayer
 62
256
 48
1.0
 60
0
370
-1
100
AcDbText
  1
Hello this is a single line text
 10
147.81944711946
 20
17.2787300802819
 30
0.0
 40
1.0
210
0.0
220
0.0
230
1.0
100
AcDbText
  0
TEXT
  5
65
330
36
102
{ACAD_XDICTIONARY
360
66
102
}
100
AcDbEntity
  8
0
  6
ByLayer
 62
256
 48
1.0
 60
0
370
-1
100
AcDbText
  1
Hello this is a single line text
 10
147.81944711946
 20
24.7494952817858
 30
0.0
 40
1.0
210
0.0
220
0.0
230
1.0
100
AcDbText
  0
MTEXT
  5
69
330
36
100
AcDbEntity
  8
0
  6
ByLayer
 62
256
 48
1.0
 60
0
370
-1
100
AcDbMText
 10
183.588928079041
 20
5.22637071841314
 30
0.0
 40
1.0
 41
15.7414142449875
 44
1.0
 46
0.0
 71
1
 72
5
  1
this is a Mtext^Jwith multiple lines in it
  7
Standard
 73
1
 11
1.0
 21
0.0
 31
0.0
210
0.0
220
0.0
230
1.0
  0
MTEXT
  5
6A
330
36
100
AcDbEntity
  8
0
  6
ByLayer
 62
256
 48
1.0
 60
0
370
-1
100
AcDbMText
 10
183.588928079041
 20
9.18755635632726
 30
0.0
 40
1.0
 41
15.7414142449875
 44
1.0
 46
0.0
 71
1
 72
3
  1
this is a Mtext^Jwith multiple lines in it
  7
Standard
 73
1
 11
1.0
 21
0.0
 31
0.0
210
0.0
220
0.0
230
1.0
  0
MTEXT
  5
6B
330
36
100
AcDbEntity
  8
0
  6
ByLayer
 62
256
 48
1.0
 60
0
370
-1
100
AcDbMText
 10
199.330342324029
 20
15.3261017448291
 30
0.0
 40
1.0
 41
15.7414142449875
 44
1.0
 46
0.0
 71
6
 72
1
  1
this is a Mtext^Jwith multiple lines in it
  7
Standard
 73
2
 11
1.0
 21
0.0
 31
0.0
210
0.0
220
0.0
230
1.0
  0
POLYLINE
  5
6C
330
36
100
AcDbEntity
  8
0
  6
ByLayer
 62
256
 48
1.0
 60
0
370
-1
100
AcDbPolyFaceMesh
 10
0.0
 20
0.0
 30
0.0
 70
0
 75
0
210
0.0
220
0.0
230
1.0
  0
VERTEX
  5
6E
330
6C
100
AcDbEntity
  8
0
  6
ByLayer
 62
256
 48
1.0
 60
0
370
-1
100
AcDbVertex
100
AcDbPolyFaceMeshVertex
 10
213.692028984871
 20
2.25286706307065
 30
0.0
 70
192
 50
0.0
  0
VERTEX
  5
6F
330
6C
100
AcDbEntity
  8
0
  6
ByLayer
 62
256
 48
1.0
 60
0
370
-1
100
AcDbVertex
100
AcDbPolyFaceMeshVertex
 10
222.457789311651
 20
3.34858710391815
 30
0.0
 70
192
 50
0.0
  0
VERTEX
  5
70
330
6C
100
AcDbEntity
  8
0
  6
ByLayer
 62
256
 48
1.0
 60
0
370
-1
100
AcDbVertex
100
AcDbPolyFaceMeshVertex
 10
215.603725703082
 20
6.63574722646063
 30
0.0
 70
192
 50
0.0
  0
VERTEX
  5
71
330
6C
100
AcDbEntity
  8
0
  6
ByLayer
 62
256
 48
1.0
 60
0
370
-1
100
AcDbVertex
100
AcDbPolyFaceMeshVertex
 10
215.944552561236
 20
12.0758781194371
 30
0.0
 70
192
 50
0.0
  0
VERTEX
  5
72
330
6C
100
AcDbEntity
  8
0
  6
ByLayer
 62
256
 48
1.0
 60
0
370
-1
100
AcDbVertex
100
AcDbPolyFaceMeshVertex
 10
211.562495648362
 20
8.82718730815562
 30
0.0
 70
192
 50
0.0
  0
SEQEND
  5
6D
330
6C
100
AcDbEntity
  8
0
  0
POLYLINE
  5
75
330
36
100
AcDbEntity
  8
0
  6
ByLayer
 62
256
 48
1.0
 60
0
370
-1
100
AcDb3dPolyline
 10
0.0
 20
0.0
 30
0.0
 70
8
 75
0
210
0.0
220
0.0
230
1.0
  0
VERTEX
  5
77
330
75
100
AcDbEntity
  8
0
  6
ByLayer
 62
256
 48
1.0
 60
0
370
-1
100
AcDbVertex
100
AcDb3dPolylineVertex
 10
232.601720744304
 20
0.892693590346994
 30
0.0
 70
32
 50
0.0
  0
VERTEX
  5
78
330
75
100
AcDbEntity
  8
0
  6
ByLayer
 62
256
 48
1.0
 60
0
370
-1
100
AcDbVertex
100
AcDb3dPolylineVertex
 10
233.414989720126
 20
3.34858710391815
 30
5.47860020423747
 70
32
 50
0.0
  0
VERTEX
  5
79
330
75
100
AcDbEntity
  8
0
  6
ByLayer
 62
256
 48
1.0
 60
0
370
-1
100
AcDbVertex
100
AcDb3dPolylineVertex
 10
229.032109556736
 20
4.73611885305195
 30
0.0
 70
32
 50
0.0
  0
VERTEX
  5
7A
330
75
100
AcDbEntity
  8
0
  6
ByLayer
 62
256
 48
1.0
 60
0
370
-1
100
AcDbVertex
100
AcDb3dPolylineVertex
 10
227.878838422795
 20
8.43359075493493
 30
5.47860020423747
 70
32
 50
0.0
  0
VERTEX
  5
7B
330
75
100
AcDbEntity
  8
0
  6
ByLayer
 62
256
 48
1.0
 60
0
370
-1
100
AcDbVertex
100
AcDb3dPolylineVertex
 10
225.744949434193
 20
9.92290734900311
 30
0.0
 70
32
 50
0.0
  0
SEQEND
  5
76
330
75
100
AcDbEntity
  8
0
  0
SOLID
  5
7C
330
36
100
AcDbEntity
  8
0
  6
ByLayer
 62
256
 48
1.0
 60
0
370
-1
100
AcDbTrace
 10
235.606429801821
 20
4.78576355580594
 30
0.0
 11
244.372190128601
 21
3.34858710391815
 31
0.0
 12
236.702149842668
 22
11.7915003832211
 32
0.0
 13
246.09572676557
 23
11.9374537440431
 33
0.0
 39
0.0
210
0.0
220
0.0
230
1.0
  0
SPLINE
  5
7D
330
36
100
AcDbEntity
  8
0
  6
ByLayer
 62
256
 48
1.0
 60
0
370
-1
100
AcDbSpline
 70
0
 71
3
 72
8
 73
4
 42
0.000000001
 43
0.0000000001
 44
0.0000000001
 12
0.0
 22
0.0
 32
0.0
 13
0.0
 23
0.0
 33
0.0
 40
0.0
 40
0.0
 40
0.0
 40
0.0
 40
1.0
 40
1.0
 40
1.0
 40
1.0
 10
250.458790783224
 20
1.15714702222316
 30
0.0
 10
254.713771109526
 20
11.98610420237
 30
0.0
 10
259.387964086944
 20
1.23424435279787
 30
0.0
 10
259.224551110004
 20
11.0186273898506
 30
0.0
  0
SPLINE
  5
7E
330
36
100
AcDbEntity
  8
0
  6
ByLayer
 62
256
 48
1.0
 60
0
370
-1
100
AcDbSpline
 70
0
 71
3
 72
8
 73
4
 42
0.000000001
 43
0.0000000001
 44
0.0000000001
 12
0.0
 22
0.0
 32
0.0
 13
0.0
 23
0.0
 33
0.0
 40
0.0
 40
0.0
 40
0.0
 40
0.0
 40
1.0
 40
1.0
 40
1.0
 40
1.0
 10
250.458790783224
 20
17.4260241848448
 30
0.0
 10
254.713771109526
 20
28.2549813649916
 30
0.0
 10
259.387964086944
 20
17.5031215154195
 30
0.0
 10
259.224551110004
 20
27.2875045524722
 30
0.0
  0
WIPEOUT
  5
7F
330
36
100
AcDbEntity
  8
0
  6
ByLayer
 62
256
 48
1.0
 60
0
370
-1
100
AcDbWipeout
 90
0
 10
271.921128880819
 20
3.98812335185096
 30
0.0
 11
31.7077429260727
 21
0.0
 31
0.0
 12
0.0
 22
31.7077429260727
 32
0.0
 13
1.0
 23
1.0
340
0
 70
7
280
1
281
50
282
50
283
0
 71
2
 91
5
 14
-0.5
 24
0.5
 14
0.32605110088009
 24
0.492063502336059
 14
0.25059449345054
 24
-0.210317459489027
 14
-0.47617156637515
 24
-0.5
 14
-0.5
 24
0.5
  0
LEADER
  5
80
330
36
100
AcDbEntity
  8
Layer1
  6
ByLayer
 62
256
 48
1.0
 60
0
370
-1
100
AcDbLeader
  3
ISO-25
 71
1
 72
0
 73
0
 74
0
 75
0
 40
0.0
 41
0.0
 76
3
 10
717.86871543234
 20
2.94117945506799
 30
0.0
 10
729.268117078097
 20
48.5387860380986
 30
0.0
 10
740.398750025285
 20
14.0718124022556
 30
0.0
210
0.0
220
0.0
230
1.0
211
1.0
221
0.0
231
0.0
212
0.0
222
0.0
232
0.0
213
0.0
223
0.0
233
0.0
  0
MTEXT
  5
83
330
36
100
AcDbEntity
  8
Layer1
  6
ByLayer
 62
256
 48
1.0
 60
0
370
-1
100
AcDbMText
 10
741.023750025285
 20
14.6968124022556
 30
0.0
 40
1.42492520571971
 41
0.0
 44
1.0
 46
0.0
 71
7
 72
1
  1
Sample annotation
  7
Standard
 73
1
 11
1.0
 21
0.0
 31
0.0
210
0.0
220
0.0
230
1.0
  0
DIMENSION
  5
84
330
36
100
AcDbEntity
  8
Layer1
  6
ByLayer
 62
256
 48
1.0
 60
0
370
-1
100
AcDbDimension
  2
*D3
 10
360.358100223525
 20
44.2913065627815
 30
0.0
 11
339.065951087752
 21
34.4547739601339
 31
0.0
 70
32
 71
5
210
0.0
220
0.0
230
1.0
  3
ISO-25
100
AcDbAlignedDimension
 13
330.28905947658
 23
2.94117945506799
 33
0.0
 14
364.487264413852
 24
37.1393843923409
 34
0.0
 50
30.0000000000006
100
AcDbRotatedDimension
  0
DIMENSION
  5
85
330
36
100
AcDbEntity
  8
Layer1
  6
ByLayer
 62
256
 48
1.0
 60
0
370
-1
100
AcDbDimension
  2
*D4
 10
472.360450046828
 20
22.1580627413702
 30
0.0
 11
470.642040949818
 21
31.9390540112458
 31
0.0
 70
37
 71
5
210
0.0
220
0.0
230
1.0
  3
ISO-25
100
AcDb3PointAngularDimension
 13
455.682477579914
 23
8.64088027794681
 33
0.0
 14
444.283075934156
 24
37.1393843923409
 34
0.0
 15
438.583375111277
 25
14.3405811008256
 35
0.0
  0
DIMENSION
  5
86
330
36
100
AcDbEntity
  8
Layer1
  6
ByLayer
 62
256
 48
1.0
 60
0
370
-1
100
AcDbDimension
  2
*D5
 10
512.679485808702
 20
8.64088027794681
 30
0.0
 11
527.000217858332
 21
31.5883701823925
 31
0.0
 70
34
 71
5
210
0.0
220
0.0
230
1.0
  3
ISO-25
100
AcDb2LineAngularDimension
 13
495.580383340065
 23
14.3405811008256
 33
0.0
 14
501.280084162944
 24
37.1393843923409
 34
0.0
 15
495.580383340065
 25
14.3405811008256
 35
0.0
 16
528.647470337295
 26
21.9937407068713
 36
0.0
  0
LINE
  5
87
330
36
100
AcDbEntity
  8
Layer2
  6
ByLayer
 62
256
 48
1.0
 60
0
370
-1
100
AcDbLine
 10
330.28905947658
 20
2.94117945506799
 30
0.0
 11
364.487264413852
 21
37.1393843923409
 31
0.0
 39
0.0
210
0.0
220
0.0
230
1.0
  0
LINE
  5
89
330
36
100
AcDbEntity
  8
Layer2
  6
ByLayer
 62
256
 48
1.0
 60
0
370
-1
100
AcDbLine
 10
381.586366882489
 20
8.64088027794681
 30
0.0
 11
415.784571819762
 21
42.8390852152198
 31
0.0
 39
0.0
210
0.0
220
0.0
230
1.0
  0
LINE
  5
8A
330
36
100
AcDbEntity
  8
Layer2
  6
ByLayer
 62
256
 48
1.0
 60
0
370
-1
100
AcDbLine
 10
438.583375111277
 20
14.3405811008256
 30
0.0
 11
444.283075934156
 21
37.1393843923409
 31
0.0
 39
0.0
210
0.0
220
0.0
230
1.0
  0
LINE
  5
8B
330
36
100
AcDbEntity
  8
Layer2
  6
ByLayer
 62
256
 48
1.0
 60
0
370
-1
100
AcDbLine
 10
438.583375111277
 20
14.3405811008256
 30
0.0
 11
455.682477579914
 21
8.64088027794681
 31
0.0
 39
0.0
210
0.0
220
0.0
230
1.0
  0
LINE
  5
8C
330
36
100
AcDbEntity
  8
Layer2
  6
ByLayer
 62
256
 48
1.0
 60
0
370
-1
100
AcDbLine
 10
495.580383340065
 20
14.3405811008256
 30
0.0
 11
501.280084162944
 21
37.1393843923409
 31
0.0
 39
0.0
210
0.0
220
0.0
230
1.0
  0
LINE
  5
8D
330
36
100
AcDbEntity
  8
Layer2
  6
ByLayer
 62
256
 48
1.0
 60
0
370
-1
100
AcDbLine
 10
495.580383340065
 20
14.3405811008256
 30
0.0
 11
512.679485808702
 21
8.64088027794681
 31
0.0
 39
0.0
210
0.0
220
0.0
230
1.0
  0
CIRCLE
  5
8E
330
36
100
AcDbEntity
  8
Layer2
  6
ByLayer
 62
256
 48
1.0
 60
0
370
-1
100
AcDbCircle
 10
569.67649403749
 20
25.7399827465833
 30
0.0
 39
0.0
 40
11.3994016457576
210
0.0
220
0.0
230
1.0
  0
CIRCLE
  5
8F
330
36
100
AcDbEntity
  8
Layer2
  6
ByLayer
 62
256
 48
1.0
 60
0
370
-1
100
AcDbCircle
 10
626.673502266278
 20
25.7399827465833
 30
0.0
 39
0.0
 40
22.7988032915153
210
0.0
220
0.0
230
1.0
  0
DIMENSION
  5
90
330
36
102
{ACAD_XDICTIONARY
360
91
102
}
100
AcDbEntity
  8
Layer1
  6
ByLayer
 62
256
 48
1.0
 60
0
370
-1
100
AcDbDimension
  2
*D10
 10
569.67649403749
 20
25.7399827465833
 30
0.0
 11
583.348482182394
 21
42.4205510740598
 31
0.0
 70
36
 71
5
210
0.0
220
0.0
230
1.0
  3
ISO-25
100
AcDbRadialDimension
 15
577.737088242675
 25
33.8005769517678
 35
0.0
 40
0.0
  0
DIMENSION
  5
92
330
36
102
{ACAD_XDICTIONARY
360
93
102
}
100
AcDbEntity
  8
Layer1
  6
ByLayer
 62
256
 48
1.0
 60
0
370
-1
100
AcDbDimension
  2
*D11
 10
649.472305557794
 20
25.7399827465833
 30
0.0
 11
626.673502266278
 21
25.7399827465833
 31
0.0
 70
163
 71
5
210
0.0
220
0.0
230
1.0
  3
ISO-25
100
AcDbDiametricDimension
 15
603.874698974763
 25
25.7399827465833
 35
0.0
 40
0.0
  0
DIMENSION
  5
94
330
36
100
AcDbEntity
  8
Layer1
  6
ByLayer
 62
256
 48
1.0
 60
0
370
-1
100
AcDbDimension
  2
*D6
 10
313.189957007943
 20
111.235495089766
 30
0.0
 11
706.468794409815
 21
16.467968549666
 31
0.0
 70
38
 71
5
210
0.0
220
0.0
230
1.0
  3
ISO-25
100
AcDbOrdinateDimension
 13
660.871707203551
 23
8.64088027794681
 33
0.0
 14
700.769612963703
 24
14.3405811008256
 34
0.0
  0
DIMENSION
  5
95
330
36
100
AcDbEntity
  8
Layer1
  6
ByLayer
 62
256
 48
1.0
 60
0
370
-1
100
AcDbDimension
  2
*D7
 10
313.189957007943
 20
111.235495089766
 30
0.0
 11
675.843422223348
 21
48.6550811224502
 31
0.0
 70
102
 71
5
210
0.0
220
0.0
230
1.0
  3
ISO-25
100
AcDbOrdinateDimension
 13
666.571408026431
 23
2.94117945506799
 33
0.0
 14
677.970809672189
 24
42.8390852152198
 34
0.0
  0
DIMENSION
  5
96
330
36
100
AcDbEntity
  8
Layer1
  6
ByLayer
 62
256
 48
1.0
 60
0
370
-1
100
AcDbDimension
  2
*D8
 10
410.084870996883
 20
48.5387860380986
 30
0.0
 11
390.75736925875
 21
33.6680828389586
 31
0.0
 70
32
 71
5
210
0.0
220
0.0
230
1.0
  3
ISO-25
100
AcDbAlignedDimension
 13
381.586366882489
 23
8.64088027794681
 33
0.0
 14
415.784571819762
 24
42.8390852152198
 34
0.0
 50
0.0
100
AcDbRotatedDimension
  0
LINE
  5
97
330
36
100
AcDbEntity
  8
0
  6
GAS_LINE
 62
256
 48
1.0
 60
0
370
-1
100
AcDbLine
 10
3.59253399890939
 20
3.27501309309945
 30
0.0
 11
6.86354703397956
 21
3.27501309309945
 31
0.0
 39
0.0
210
0.0
220
0.0
230
1.0
  0
LINE
  5
99
330
36
100
AcDbEntity
  8
0
  6
TRACKS
 62
3
 48
1.0
 60
0
370
13
100
AcDbLine
 10
3.59253399890939
 20
4.09548124400019
 30
0.0
 11
6.86354703397956
 21
4.09548124400019
 31
0.0
 39
0.0
210
0.0
220
0.0
230
1.0
  0
LINE
  5
9B
330
36
100
AcDbEntity
  8
0
  6
ZIGZAG
 62
256
 48
1.0
 60
0
370
-1
100
AcDbLine
 10
3.59253399890939
 20
5.16047899502427
 30
0.0
 11
6.86354703397956
 21
5.16047899502427
 31
0.0
 39
0.0
210
0.0
220
0.0
230
1.0
  0
LINE
  5
9D
330
36
100
AcDbEntity
  8
0
  6
BATTING
 62
200
 48
1.0
 60
0
370
13
100
AcDbLine
 10
3.59253399890939
 20
6.21589163122735
 30
0.0
 11
6.86354703397956
 21
6.21589163122735
 31
0.0
 39
0.0
210
0.0
220
0.0
230
1.0
  0
LINE
  5
9F
330
36
100
AcDbEntity
  8
0
  6
ByLayer
 62
256
 48
1.0
 60
0
370
-1
100
AcDbLine
 10
3.59253399890939
 20
-7.79531737951857
 30
0.0
 11
6.86354703397956
 21
-7.79531737951857
 31
0.0
 39
0.0
210
0.0
220
0.0
230
1.0
  0
LINE
  5
A0
330
36
100
AcDbEntity
  8
0
  6
ACAD_ISO02W100
 62
3
 48
1.0
 60
0
370
13
100
AcDbLine
 10
3.59253399890939
 20
-6.97484922861783
 30
0.0
 11
6.86354703397956
 21
-6.97484922861783
 31
0.0
 39
0.0
210
0.0
220
0.0
230
1.0
  0
LINE
  5
A1
330
36
100
AcDbEntity
  8
0
  6
ByLayer
 62
256
 48
1.0
 60
0
370
-1
100
AcDbLine
 10
3.59253399890939
 20
-5.99754618259932
 30
0.0
 11
6.86354703397956
 21
-5.99754618259932
 31
0.0
 39
0.0
210
0.0
220
0.0
230
1.0
  0
LINE
  5
A2
330
36
100
AcDbEntity
  8
0
  6
ACAD_ISO02W100
 62
3
 48
1.0
 60
0
370
13
100
AcDbLine
 10
3.59253399890939
 20
-5.17707803169858
 30
0.0
 11
6.86354703397956
 21
-5.17707803169858
 31
0.0
 39
0.0
210
0.0
220
0.0
230
1.0
  0
LINE
  5
A3
330
36
100
AcDbEntity
  8
0
  6
ByLayer
 62
256
 48
1.0
 60
0
370
-1
100
AcDbLine
 10
3.59253399890939
 20
-4.1120802806745
 30
0.0
 11
6.86354703397956
 21
-4.1120802806745
 31
0.0
 39
0.0
210
0.0
220
0.0
230
1.0
  0
LINE
  5
A4
330
36
100
AcDbEntity
  8
0
  6
ACAD_ISO02W100
 62
3
 48
1.0
 60
0
370
13
100
AcDbLine
 10
3.59253399890939
 20
-3.29161212977376
 30
0.0
 11
6.86354703397956
 21
-3.29161212977376
 31
0.0
 39
0.0
210
0.0
220
0.0
230
1.0
  0
LINE
  5
A5
330
36
100
AcDbEntity
  8
Layer_Lt_dash
  6
ByLayer
 62
256
 48
1.0
 60
0
370
-1
100
AcDbLine
 10
3.59253399890938
 20
-14.6255294053312
 30
0.0
 11
6.86354703397955
 21
-14.6255294053312
 31
0.0
 39
0.0
210
0.0
220
0.0
230
1.0
  0
LINE
  5
A7
330
36
100
AcDbEntity
  8
Layer_Lt_dash
  6
ACAD_ISO02W100
 62
256
 48
1.0
 60
0
370
13
100
AcDbLine
 10
3.59253399890938
 20
-13.8050612544305
 30
0.0
 11
6.86354703397955
 21
-13.8050612544305
 31
0.0
 39
0.0
210
0.0
220
0.0
230
1.0
  0
LINE
  5
A8
330
36
100
AcDbEntity
  8
Layer_Lt_dash
  6
ByLayer
 62
256
 48
1.0
 60
0
370
-1
100
AcDbLine
 10
3.59253399890938
 20
-12.827758208412
 30
0.0
 11
6.86354703397955
 21
-12.827758208412
 31
0.0
 39
0.0
210
0.0
220
0.0
230
1.0
  0
LINE
  5
A9
330
36
100
AcDbEntity
  8
Layer_Lt_dash
  6
ACAD_ISO02W100
 62
256
 48
1.0
 60
0
370
13
100
AcDbLine
 10
3.59253399890938
 20
-12.0072900575112
 30
0.0
 11
6.86354703397955
 21
-12.0072900575112
 31
0.0
 39
0.0
210
0.0
220
0.0
230
1.0
  0
LINE
  5
AA
330
36
100
AcDbEntity
  8
Layer_Lt_dash
  6
ByLayer
 62
256
 48
1.0
 60
0
370
-1
100
AcDbLine
 10
3.59253399890938
 20
-10.9422923064872
 30
0.0
 11
6.86354703397955
 21
-10.9422923064872
 31
0.0
 39
0.0
210
0.0
220
0.0
230
1.0
  0
LINE
  5
AB
330
36
100
AcDbEntity
  8
Layer_Lt_dash
  6
ACAD_ISO02W100
 62
256
 48
1.0
 60
0
370
13
100
AcDbLine
 10
3.59253399890938
 20
-10.1218241555864
 30
0.0
 11
6.86354703397955
 21
-10.1218241555864
 31
0.0
 39
0.0
210
0.0
220
0.0
230
1.0
  0
INSERT
  5
AC
330
36
100
AcDbEntity
  8
Layer1
  6
ByLayer
 62
256
 48
1.0
 60
0
370
-1
100
AcDbBlockReference
  2
MyBlock
 10
920.679626662723
 20
16.3528537738905
 30
0.0
 41
0.363373694847201
 42
0.363373694847201
 43
0.363373694847201
 50
0.0
 70
1
 71
1
 44
0.0
 45
0.0
210
0.0
220
0.0
230
1.0
 66
1
  0
ATTRIB
  5
AE
330
AC
100
AcDbEntity
  8
0
  6
ByLayer
 62
256
 48
1.0
 60
0
370
-1
100
AcDbText
  1
17
 10
920.679626662723
 20
16.3528537738905
 30
0.0
 40
1.816868474236
210
0.0
220
0.0
230
1.0
100
AcDbAttribute
  2
ATTINFO
 70
0
 73
0
  0
SEQEND
  5
AD
330
AC
100
AcDbEntity
  8
Layer1
  0
TEXT
  5
BD
330
36
100
AcDbEntity
  8
Layer2
  6
ByLayer
 62
256
 48
1.0
 60
0
370
-1
100
AcDbText
  1
Hello this is a single line text
 10
147.589772910276
 20
32.3481892763946
 30
0.0
 40
1.0
210
0.0
220
0.0
230
1.0
100
AcDbText
  0
TEXT
  5
BE
330
36
102
{ACAD_XDICTIONARY
360
BF
102
}
100
AcDbEntity
  8
Layer_color_80
  6
ByLayer
 62
256
 48
1.0
 60
0
370
-1
100
AcDbText
  1
Hello this is a single line text
 10
147.589772910276
 20
39.8189544778985
 30
0.0
 40
1.0
210
0.0
220
0.0
230
1.0
100
AcDbText
  0
TEXT
  5
C3
330
36
100
AcDbEntity
  8
Layer_true_color
  6
ByLayer
 62
256
 48
1.0
 60
0
370
-1
100
AcDbText
  1
Hello this is a single line text
 10
147.589772910276
 20
46.7719440568677
 30
0.0
 40
1.0
210
0.0
220
0.0
230
1.0
100
AcDbText
  0
TEXT
  5
C4
330
36
102
{ACAD_XDICTIONARY
360
C5
102
}
100
AcDbEntity
  8
Layer_color_book
  6
ByLayer
 62
256
 48
1.0
 60
0
370
-1
100
AcDbText
  1
Hello this is a single line text
 10
147.589772910276
 20
54.2427092583716
 30
0.0
 40
1.0
210
0.0
220
0.0
230
1.0
100
AcDbText
  0
MTEXT
  5
C9
330
36
100
AcDbEntity
  8
0
  6
ByLayer
 62
256
 48
1.0
 60
0
370
-1
100
AcDbMText
 10
183.588928079041
 20
-1.38637568506374
 30
0.0
 40
1.0
 41
15.7414142449875
 44
1.0
 46
0.0
 71
1
 72
5
  3
this is a really long Mtext^Jbla bla bla bla bla bla bla bla bla bla bla bla bla bla bla bla bla bla bla bla bla bla bla bla bla bla bla bla bla bla bla bla bla bla bla bla bla bla bla bla bla bla bla bla bla bla bla bla bla bla bla bla bla bla bla bl
  3
a bla bla bla bla bla bla bla bla bla bla bla bla bla bla bla bla bla bla bla bla bla bla bla bla bla bla bla bla bla bla bla bla bla bla bla bla bla bla bla bla bla bla bla bla bla bla bla bla bla bla bla bla bla bla bla bla bla bla bla bla bla bla 
  3
bla bla bla bla bla bla bla bla bla bla bla bla bla bla bla bla bla bla bla bla bla bla bla bla bla bla bla bla bla bla bla bla bla bla bla bla bla bla bla bla bla bla bla bla bla bla bla bla bla bla bla bla bla bla bla bla bla bla bla bla bla bla bl
  3
a bla bla bla bla bla bla bla bla bla bla bla bla bla bla bla bla bla bla bla bla bla bla bla bla bla bla bla bla bla bla bla bla bla bla bla bla bla bla bla bla bla bla bla bla bla bla bla bla bla bla bla bla bla bla bla bla bla bla bla bla bla bla 
  3
bla bla bla bla bla bla bla bla bla bla bla bla bla bla bla bla bla bla bla bla bla bla bla bla bla bla bla bla bla bla bla bla bla bla bla bla bla bla bla bla bla bla bla bla bla bla bla bla bla bla bla bla bla bla bla bla bla bla bla bla bla bla bl
  3
a bla bla bla bla bla bla bla bla bla bla bla bla bla bla bla bla bla bla bla bla bla bla bla bla bla bla bla bla bla bla bla bla bla bla bla bla bla bla bla bla bla bla bla bla bla bla bla bla bla bla bla bla bla bla bla bla bla bla bla bla bla bla 
  3
bla bla bla bla bla bla bla bla bla bla bla bla bla bla bla bla bla bla bla bla bla bla bla bla bla bla bla bla bla bla bla bla bla bla bla bla bla bla bla bla bla bla bla bla bla bla bla bla bla bla bla bla bla bla bla bla bla bla bla bla bla bla bl
  3
a bla bla bla bla bla bla bla bla bla bla bla bla bla bla bla bla bla bla bla bla bla bla bla bla bla bla bla bla bla bla bla bla bla bla bla bla bla bla bla bla bla bla bla bla bla bla bla bla bla bla bla bla bla bla bla bla bla bla bla bla bla bla 
  3
bla bla bla bla bla bla bla bla bla bla bla bla bla bla bla bla bla bla bla bla bla bla bla bla bla bla bla bla bla bla bla bla bla bla bla bla bla bla bla bla bla bla bla bla bla bla bla bla bla bla bla bla bla bla bla bla bla bla bla bla bla bla bl
  3
a bla bla bla bla bla bla bla bla bla bla bla bla bla bla bla bla bla bla bla bla bla bla bla bla bla bla bla bla bla bla bla bla bla bla bla bla bla bla bla bla bla bla bla bla bla bla bla bla bla bla bla bla bla bla bla bla bla bla bla bla bla bla 
  3
bla bla bla bla bla bla bla bla bla bla bla bla bla bla bla bla bla bla bla bla bla bla bla bla bla bla bla bla bla bla bla bla bla bla bla bla bla bla bla bla bla bla bla bla bla bla bla bla bla bla bla bla bla bla bla bla bla bla bla bla bla bla bl
  3
a bla bla bla bla bla bla bla bla bla bla bla bla bla bla bla bla bla bla bla bla bla bla bla bla bla bla bla bla bla bla bla bla bla bla bla bla bla bla bla bla bla bla bla bla bla bla bla bla bla bla bla bla bla bla bla bla bla bla bla bla bla bla 
  3
bla bla bla bla bla bla bla bla bla bla bla bla bla bla bla bla bla bla bla bla bla bla bla bla bla bla bla bla bla bla bla bla bla bla bla bla bla bla bla bla bla bla bla bla bla bla bla bla bla bla bla bla bla bla bla bla bla bla bla bla bla bla bl
  1
this is a really long Mtext^Jbla bla bla bla bla bla bla bla bla bla bla bla bla bla bla bla bla bla bla bla bla bla bla bla bla bla bla bla bla bla bla bla bla bla bla bla bla bla bla bla bla bla bla bla bla bla bla bla bla bla bla bla bla bla bla bla bla bla bla bla bla bla bla bla bla bla bla bla bla bla bla bla bla bla bla bla bla bla bla bla bla bla bla bla bla bla bla bla bla bla bla bla bla bla bla bla bla bla bla bla bla bla bla bla bla bla bla bla bla bla bla bla bla bla bla bla bla bla bla bla bla bla bla bla bla bla bla bla bla bla bla bla bla bla bla bla bla bla bla bla bla bla bla bla bla bla bla bla bla bla bla bla bla bla bla bla bla bla bla bla bla bla bla bla bla bla bla bla bla bla bla bla bla bla bla bla bla bla bla bla bla bla bla bla bla bla bla bla bla bla bla bla bla bla bla bla bla bla bla bla bla bla bla bla bla bla bla bla bla bla bla bla bla bla bla bla bla bla bla bla bla bla bla bla bla bla bla bla bla bla bla bla bla bla bla bla bla bla bla bla bla bla bla bla bla bla bla bla bla bla bla bla bla bla bla bla bla bla bla bla bla bla bla bla bla bla bla bla bla bla bla bla bla bla bla bla bla bla bla bla bla bla bla bla bla bla bla bla bla bla bla bla bla bla bla bla bla bla bla bla bla bla bla bla bla bla bla bla bla bla bla bla bla bla bla bla bla bla bla bla bla bla bla bla bla bla bla bla bla bla bla bla bla bla bla bla bla bla bla bla bla bla bla bla bla bla bla bla bla bla bla bla bla bla bla bla bla bla bla bla bla bla bla bla bla bla bla bla bla bla bla bla bla bla bla bla bla bla bla bla bla bla bla bla bla bla bla bla bla bla bla bla bla bla bla bla bla bla bla bla bla bla bla bla bla bla bla bla bla bla bla bla bla bla bla bla bla bla bla bla bla bla bla bla bla bla bla bla bla bla bla bla bla bla bla bla bla bla bla bla bla bla bla bla bla bla bla bla bla bla bla bla bla bla bla bla bla bla bla bla bla bla bla bla bla bla bla bla bla bla bla bla bla bla bla bla bla bla bla bla bla bla bla bla bla bla bla bla bla bla bla bla bla bla bla bla bla bla bla bla bla bla bla bla bla bla bla bla bla bla bla bla bla bla bla bla bla bla bla bla bla bla bla bla bla bla bla bla bla bla bla bla bla bla bla bla bla bla bla bla bla bla bla bla bla bla bla bla bla bla bla bla bla bla bla bla bla bla bla bla bla bla bla bla bla bla bla bla bla bla bla bla bla bla bla bla bla bla bla bla bla bla bla bla bla bla bla bla bla bla bla bla bla bla bla bla bla bla bla bla bla bla bla bla bla bla bla bla bla bla bla bla bla bla bla bla bla bla bla bla bla bla bla bla bla bla bla bla bla bla bla bla bla bla bla bla bla bla bla bla bla bla bla bla bla bla bla bla bla bla bla bla bla bla bla bla bla bla bla bla bla bla bla bla bla bla bla bla bla bla bla bla bla bla bla bla bla bla bla bla bla bla bla bla bla bla bla bla bla bla bla bla bla bla bla bla bla bla bla bla bla bla bla bla bla bla bla bla bla bla bla bla bla bla bla bla bla bla bla bla bla bla bla bla bla bla bla bla bla bla bla bla bla bla bla bla bla bla bla bla bla bla bla bla bla bla bla bla bla bla bla bla bla bla bla bla bla bla bla bla bla bla bla bla bla bla bla bla bla bla bla bla bla bla bla bla bla bla bla bla bla bla bla bla bla bla bla bla bla bla bla bla bla bla bla bla bla bla bla bla bla bla bla bla bla bla bla bla bla bla bla bla bla bla bla bla bla bla bla bla bla bla bla bla bla bla bla bla bla bla bla bla bla bla bla bla bla bla bla bla bla bla bla bla bla bla bla bla bla bla bla bla
  7
Standard
 73
1
 11
1.0
 21
0.0
 31
0.0
210
0.0
220
0.0
230
1.0
  0
INSERT
  5
CA
330
36
100
AcDbEntity
  8
0
  6
ByLayer
 62
256
 48
1.0
 60
0
370
-1
100
AcDbBlockReference
  2
my_block_v2
 10
-208.149532769608
 20
8.9901243659841
 30
0.0
 41
1.21788926458238
 42
1.21788926458238
 43
1.21788926458238
 50
0.0
 70
1
 71
1
 44
0.0
 45
0.0
210
0.0
220
0.0
230
1.0
  0
INSERT
  5
DB
330
36
100
AcDbEntity
  8
0
  6
ByLayer
 62
256
 48
1.0
 60
0
370
-1
100
AcDbBlockReference
  2
my_block_v2
 10
-3024.44381838633
 20
1.95095366051225
 30
0.0
 41
4.19113318054708
 42
4.19113318054708
 43
4.19113318054708
 50
0.0
 70
1
 71
1
 44
0.0
 45
0.0
210
0.0
220
0.0
230
1.0
 66
1
  0
ATTRIB
  5
DD
330
DB
102
{ACAD_XDICTIONARY
360
DE
102
}
100
AcDbEntity
  8
0
  6
ByLayer
 62
256
 48
1.0
 60
0
370
-1
100
AcDbText
  1
my multi line text for the attrrib
 10
977.123033070722
 20
27.0008170923713
 30
0.0
 40
1.72065445620962
210
0.0
220
0.0
230
1.0
100
AcDbAttribute
  2
MULTI_LINE_ATT_001
 70
0
 73
0
  0
ATTRIB
  5
E1
330
DB
100
AcDbEntity
  8
0
  6
ByLayer
 62
256
 48
1.0
 60
0
370
-1
100
AcDbText
  1
hello
 10
994.55829067919
 20
41.7094842567561
 30
0.0
 40
1.72065445620962
210
0.0
220
0.0
230
1.0
100
AcDbAttribute
  2
PRESET_ATT
 70
0
 73
0
 74
3
  0
ATTRIB
  5
E2
330
DB
100
AcDbEntity
  8
0
  6
ByLayer
 62
256
 48
1.0
 60
0
370
-1
100
AcDbText
  1
bla bla
 10
986.688245287059
 20
1.55446574799142
 30
0.0
 40
1.72065445620962
210
0.0
220
0.0
230
1.0
100
AcDbAttribute
  2
VERIFY_ATT
 70
0
 73
0
  0
SEQEND
  5
DC
330
DB
100
AcDbEntity
  8
0
  0
TOLERANCE
  5
E4
330
36
100
AcDbEntity
  8
0
  6
ByLayer
 62
256
 48
1.0
 60
0
370
-1
100
AcDbFcf
  3
Standard
 10
214.175239377513
 20
-4.32043774706062
 30
0.0
 11
1.0
 21
0.0
 31
0.0
210
0.0
220
0.0
230
1.0
  1
{\Fgdt;j}%%v{\Fgdt;n}%%v%%v%%v%%v^J{\Fgdt;d}%%v%%v%%v%%v%%v^J.5^J5
  0
TOLERANCE
  5
E5
330
36
100
AcDbEntity
  8
0
  6
ByLayer
 62
256
 48
1.0
 60
0
370
-1
100
AcDbFcf
  3
Standard
 10
215.904047348762
 20
-4.26969171078736
 30
0.0
 11
1.0
 21
0.0
 31
0.0
210
0.0
220
0.0
230
1.0
  1
99^Ja
  0
TOLERANCE
  5
E6
330
36
100
AcDbEntity
  8
0
  6
ByLayer
 62
256
 48
1.0
 60
0
370
-1
100
AcDbFcf
  3
Standard
 10
217.104523528104
 20
-4.3572342337709
 30
0.0
 11
1.0
 21
0.0
 31
0.0
210
0.0
220
0.0
230
1.0
  1
{\Fgdt;p}
  0
SHAPE
  5
E7
330
36
100
AcDbEntity
  8
0
  6
ByLayer
 62
256
 48
1.0
 60
0
370
-1
100
AcDbShape
 39
0.0
 10
15.2770201665726
 20
-20.3594711018486
 30
0.0
 40
1.0
  2
D:\Albert DC\Documents\Visual Studio 2022\Repos\ACadSharp\samples\sample_base\test_shape.shx
 50
0.0
 41
1.0
 51
0.0
210
0.0
220
0.0
230
1.0
  0
IMAGE
  5
E8
330
36
100
AcDbEntity
  8
0
  6
ByLayer
 62
256
 48
1.0
 60
0
370
-1
100
AcDbRasterImage
 90
0
 10
0.0
 20
15.0
 30
0.0
 11
0.0104166666666667
 21
0.0
 31
0.0
 12
0.0
 22
0.0104166666666667
 32
0.0
 13
994.0
 23
965.0
340
E9
 70
7
280
0
281
50
282
50
283
0
 71
1
 91
2
 14
-0.5
 24
-0.5
 14
993.5
 24
964.5
  0
ENDSEC
  0
SECTION
  2
OBJECTS
  0
DICTIONARY
  5
A
330
0
100
AcDbDictionary
280
0
281
0
  3
ACAD_COLOR
350
B
  3
ACAD_GROUP
350
C
  3
ACAD_LAYOUT
350
D
  3
ACAD_MATERIAL
350
10
  3
ACAD_SORTENTS
350
11
  3
ACAD_MLEADERSTYLE
350
12
  3
ACAD_MLINESTYLE
350
14
  3
ACAD_TABLESTYLE
350
16
  3
ACAD_PLOTSETTINGS
350
17
  3
AcDbVariableDictionary
350
18
  3
ACAD_SCALELIST
350
19
  3
ACAD_VISUALSTYLE
350
2B
  3
ACAD_FIELDLIST
350
2C
  3
ACAD_IMAGE_DICT
350
2D
  0
DICTIONARY
  5
5F
330
5E
100
AcDbDictionary
280
0
281
0
  0
DICTIONARY
  5
B4
330
AF
100
AcDbDictionary
280
0
281
0
  0
DICTIONARY
  5
D0
330
CB
100
AcDbDictionary
280
0
281
0
  0
DICTIONARY
  5
B1
330
B0
100
AcDbDictionary
280
0
281
0
  0
DICTIONARY
  5
B6
330
B5
100
AcDbDictionary
280
0
281
0
  0
DICTIONARY
  5
B8
330
B7
100
AcDbDictionary
280
0
281
0
  0
DICTIONARY
  5
BA
330
B9
100
AcDbDictionary
280
0
281
0
  0
DICTIONARY
  5
BC
330
BB
100
AcDbDictionary
280
0
281
0
  0
DICTIONARY
  5
B3
330
B2
100
AcDbDictionary
280
0
281
0
  0
DICTIONARY
  5
CD
330
CC
100
AcDbDictionary
280
0
281
0
  0
DICTIONARY
  5
D2
330
D1
100
AcDbDictionary
280
0
281
0
  0
DICTIONARY
  5
D4
330
D3
100
AcDbDictionary
280
0
281
0
  0
DICTIONARY
  5
D6
330
D5
100
AcDbDictionary
280
0
281
0
  0
DICTIONARY
  5
D8
330
D7
100
AcDbDictionary
280
0
281
0
  0
DICTIONARY
  5
DA
330
D9
100
AcDbDictionary
280
0
281
0
  0
DICTIONARY
  5
CF
330
CE
100
AcDbDictionary
280
0
281
0
  0
DICTIONARY
  5
61
330
60
100
AcDbDictionary
280
1
281
1
  3
AcDbContextDataManager
350
62
  0
DICTIONARY
  5
66
330
65
100
AcDbDictionary
280
1
281
1
  3
AcDbContextDataManager
350
67
  0
DICTIONARY
  5
91
330
90
100
AcDbDictionary
280
1
281
1
  0
DICTIONARY
  5
93
330
92
100
AcDbDictionary
280
1
281
1
  0
DICTIONARY
  5
BF
330
BE
100
AcDbDictionary
280
1
281
1
  3
AcDbContextDataManager
350
C0
  0
DICTIONARY
  5
C5
330
C4
100
AcDbDictionary
280
1
281
1
  3
AcDbContextDataManager
350
C6
  0
DICTIONARY
  5
DE
330
DD
100
AcDbDictionary
280
1
281
1
  3
ACAD_MLATT
350
DF
  3
ACAD_XREC_ROUNDTRIP
350
E0
  0
DICTIONARY
  5
B
330
A
100
AcDbDictionary
280
0
281
0
  0
DICTIONARY
  5
C
330
A
100
AcDbDictionary
280
0
281
0
  0
DICTIONARY
  5
D
330
A
100
AcDbDictionary
280
0
281
0
  3
Model
350
E
  3
Layout1
350
F
  0
DICTIONARY
  5
10
330
A
100
AcDbDictionary
280
0
281
0
  0
DICTIONARY
  5
11
330
A
100
AcDbDictionary
280
0
281
0
  0
DICTIONARY
  5
12
330
A
100
AcDbDictionary
280
0
281
0
  3
Standard
350
13
  0
DICTIONARY
  5
14
330
A
100
AcDbDictionary
280
0
281
0
  3
Standard
350
15
  0
DICTIONARY
  5
16
330
A
100
AcDbDictionary
280
0
281
0
  0
DICTIONARY
  5
17
330
A
100
AcDbDictionary
280
0
281
0
  0
DICTIONARY
  5
18
330
A
100
AcDbDictionary
280
0
281
0
  0
DICTIONARY
  5
19
330
A
100
AcDbDictionary
280
0
281
0
  3
A0
350
1A
  3
A1
350
1B
  3
A2
350
1C
  3
A3
350
1D
  3
A4
350
1E
  3
A5
350
1F
  3
A6
350
20
  3
A7
350
21
  3
A8
350
22
  3
A9
350
23
  3
B0
350
24
  3
B1
350
25
  3
B2
350
26
  3
B3
350
27
  3
B4
350
28
  3
B5
350
29
  3
B6
350
2A
  0
DICTIONARY
  5
2B
330
A
100
AcDbDictionary
280
0
281
0
  0
DICTIONARY
  5
2C
330
A
100
AcDbDictionary
280
0
281
0
  0
DICTIONARY
  5
2D
330
A
100
AcDbDictionary
280
0
281
0
  3
image
350
E9
  0
DICTIONARY
  5
62
330
61
100
AcDbDictionary
280
0
281
1
  3
ACDB_ANNOTATIONSCALES
350
63
  0
DICTIONARY
  5
67
330
66
100
AcDbDictionary
280
0
281
1
  3
ACDB_ANNOTATIONSCALES
350
68
  0
DICTIONARY
  5
C0
330
BF
100
AcDbDictionary
280
0
281
1
  3
ACDB_ANNOTATIONSCALES
350
C1
  0
DICTIONARY
  5
C6
330
C5
100
AcDbDictionary
280
0
281
1
  3
ACDB_ANNOTATIONSCALES
350
C7
  0
LAYOUT
  5
E
330
D
100
AcDbPlotSettings
  1
none_device
  4
ISO_A4_(210.00_x_297.00_MM)
 40
0.0
 41
0.0
 42
0.0
 43
0.0
 44
0.0
 45
0.0
 46
0.0
 47
0.0
 48
0.0
 49
0.0
140
0.0
141
0.0
142
1.0
143
1.0
 70
11952
 72
1
 73
0
 74
1
 75
0
 76
0
 77
0
 78
300
147
1.0
148
0.0
149
0.0
100
AcDbLayout
  1
Model
 71
0
 10
-20.0
 20
-7.5
 11
277.0
 21
202.5
 12
0.0
 22
0.0
 32
0.0
 13
0.0
 23
0.0
 33
0.0
 14
25.7
 24
19.5
 34
0.0
 15
231.3
 25
175.5
 35
0.0
 16
1.0
 26
0.0
 36
0.0
 17
0.0
 27
1.0
 37
0.0
146
0.0
 76
0
330
36
  0
LAYOUT
  5
F
330
D
100
AcDbPlotSettings
  1
none_device
  4
ISO_A4_(210.00_x_297.00_MM)
 40
0.0
 41
0.0
 42
0.0
 43
0.0
 44
0.0
 45
0.0
 46
0.0
 47
0.0
 48
0.0
 49
0.0
140
0.0
141
0.0
142
1.0
143
1.0
 70
688
 72
1
 73
0
 74
1
 75
0
 76
0
 77
0
 78
300
147
1.0
148
0.0
149
0.0
100
AcDbLayout
  1
Layout1
 71
0
 10
-20.0
 20
-7.5
 11
277.0
 21
202.5
 12
0.0
 22
0.0
 32
0.0
 13
0.0
 23
0.0
 33
0.0
 14
25.7
 24
19.5
 34
0.0
 15
231.3
 25
175.5
 35
0.0
 16
1.0
 26
0.0
 36
0.0
 17
0.0
 27
1.0
 37
0.0
146
0.0
 76
0
330
39
  0
MLINESTYLE
  5
15
330
14
100
AcDbMlineStyle
  2
Standard
 70
0
 62
0
 51
90.0
 52
90.0
 71
0
  0
SCALE
  5
1A
330
19
100
AcDbScale
 70
0
300
A0
140
1.0
141
1.0
290
1
  0
SCALE
  5
1B
330
19
100
AcDbScale
 70
0
300
A1
140
1.0
141
2.0
290
0
  0
SCALE
  5
1C
330
19
100
AcDbScale
 70
0
300
A2
140
1.0
141
4.0
290
0
  0
SCALE
  5
1D
330
19
100
AcDbScale
 70
0
300
A3
140
1.0
141
5.0
290
0
  0
SCALE
  5
1E
330
19
100
AcDbScale
 70
0
300
A4
140
1.0
141
8.0
290
0
  0
SCALE
  5
1F
330
19
100
AcDbScale
 70
0
300
A5
140
1.0
141
10.0
290
0
  0
SCALE
  5
20
330
19
100
AcDbScale
 70
0
300
A6
140
1.0
141
16.0
290
0
  0
SCALE
  5
21
330
19
100
AcDbScale
 70
0
300
A7
140
1.0
141
20.0
290
0
  0
SCALE
  5
22
330
19
100
AcDbScale
 70
0
300
A8
140
1.0
141
30.0
290
0
  0
SCALE
  5
23
330
19
100
AcDbScale
 70
0
300
A9
140
1.0
141
40.0
290
0
  0
SCALE
  5
24
330
19
100
AcDbScale
 70
0
300
B0
140
1.0
141
50.0
290
0
  0
SCALE
  5
25
330
19
100
AcDbScale
 70
0
300
B1
140
1.0
141
100.0
290
0
  0
SCALE
  5
26
330
19
100
AcDbScale
 70
0
300
B2
140
2.0
141
1.0
290
0
  0
SCALE
  5
27
330
19
100
AcDbScale
 70
0
300
B3
140
4.0
141
1.0
290
0
  0
SCALE
  5
28
330
19
100
AcDbScale
 70
0
300
B4
140
8.0
141
1.0
290
0
  0
SCALE
  5
29
330
19
100
AcDbScale
 70
0
300
B5
140
10.0
141
1.0
290
0
  0
SCALE
  5
2A
330
19
100
AcDbScale
 70
0
300
B6
140
100.0
141
1.0
290
0
  0
IMAGEDEF
  5
E9
330
2D
102
{ACAD_XDICTIONARY
360
EA
102
}
100
AcDbRasterImageDef
 90
0
  1
.\image.JPG
 10
994.0
 20
965.0
280
1
281
5
  0
DICTIONARY
  5
63
330
62
100
AcDbDictionary
280
0
281
1
  0
DICTIONARY
  5
68
330
67
100
AcDbDictionary
280
0
281
1
  0
DICTIONARY
  5
C1
330
C0
100
AcDbDictionary
280
0
281
1
  0
DICTIONARY
  5
C7
330
C6
100
AcDbDictionary
280
0
281
1
  0
DICTIONARY
  5
EA
330
E9
100
AcDbDictionary
280
0
281
0
  0
ENDSEC
  0
EOF
